<svg xmlns="http://www.w3.org/2000/svg" xmlns:xlink="http://www.w3.org/1999/xlink" contentStyleType="text/css" data-diagram-type="ACTIVITY" height="726px" preserveAspectRatio="none" style="width:950px;height:726px;background:#FFFFFF;" version="1.1" viewBox="0 0 950 726" width="950px" zoomAndPan="magnify"><title>Aktivit&#228;tsdiagramm: Anonyme Meldung eines verlorenen Gegenstands</title><defs/><g><g class="title" data-source-line="1"><text fill="#000000" font-family="sans-serif" font-size="14" font-weight="bold" lengthAdjust="spacing" textLength="559.4326" x="194.1343" y="32.9951">Aktivit&#228;tsdiagramm: Anonyme Meldung eines verlorenen Gegenstands</text></g><ellipse cx="475.3506" cy="57.2969" fill="#222222" rx="10" ry="10" style="stroke:#222222;stroke-width:1;"/><rect fill="#F1F1F1" height="33.9688" rx="12.5" ry="12.5" style="stroke:#181818;stroke-width:0.5;" width="145.6074" x="402.5469" y="87.2969"/><text fill="#000000" font-family="sans-serif" font-size="12" lengthAdjust="spacing" textLength="125.6074" x="412.5469" y="108.4355">App/Webseite &#246;ffnen</text><rect fill="#F1F1F1" height="33.9688" rx="12.5" ry="12.5" style="stroke:#181818;stroke-width:0.5;" width="242.9727" x="353.8643" y="141.2656"/><text fill="#000000" font-family="sans-serif" font-size="12" lengthAdjust="spacing" textLength="222.9727" x="363.8643" y="162.4043">Option "Verloren melden" ausw&#228;hlen</text><rect fill="#555555" height="6" rx="2.5" ry="2.5" style="stroke:#555555;stroke-width:1;" width="928.7012" x="11" y="195.2344"/><rect fill="#F1F1F1" height="33.9688" rx="12.5" ry="12.5" style="stroke:#181818;stroke-width:0.5;" width="198.0371" x="23" y="251.3008"/><text fill="#000000" font-family="sans-serif" font-size="12" lengthAdjust="spacing" textLength="178.0371" x="33" y="272.4395">Ort ausw&#228;hlen oder eingeben</text><rect fill="#F1F1F1" height="33.9688" rx="12.5" ry="12.5" style="stroke:#181818;stroke-width:0.5;" width="202.5898" x="249.0371" y="251.3008"/><text fill="#000000" font-family="sans-serif" font-size="12" lengthAdjust="spacing" textLength="182.5898" x="259.0371" y="272.4395">Zeitpunkt des Verlusts w&#228;hlen</text><rect fill="#F1F1F1" height="33.9688" rx="12.5" ry="12.5" style="stroke:#181818;stroke-width:0.5;" width="204.166" x="479.627" y="251.3008"/><text fill="#000000" font-family="sans-serif" font-size="12" lengthAdjust="spacing" textLength="184.166" x="489.627" y="272.4395">Beschreibung (Text) verfassen</text><path d="M781.7649,221.2344 L781.7649,246.3672 L857.7292,246.3672 L857.7292,231.2344 L847.7292,221.2344 L781.7649,221.2344" fill="#FEFFDD" style="stroke:#181818;stroke-width:0.5;"/><path d="M847.7292,221.2344 L847.7292,231.2344 L857.7292,231.2344 L847.7292,221.2344" fill="#FEFFDD" style="stroke:#181818;stroke-width:0.5;"/><text fill="#000000" font-family="sans-serif" font-size="13" lengthAdjust="spacing" textLength="54.9644" x="787.7649" y="238.3013">Optional</text><rect fill="#F1F1F1" height="33.9688" rx="12.5" ry="12.5" style="stroke:#181818;stroke-width:0.5;" width="215.9082" x="711.793" y="281.3672"/><text fill="#000000" font-family="sans-serif" font-size="12" lengthAdjust="spacing" textLength="195.9082" x="721.793" y="302.5059">Foto aufnehmen oder hochladen</text><rect fill="#555555" height="6" rx="2.5" ry="2.5" style="stroke:#555555;stroke-width:1;" width="928.7012" x="11" y="335.3359"/><rect fill="#F1F1F1" height="33.9688" rx="12.5" ry="12.5" style="stroke:#181818;stroke-width:0.5;" width="302.8555" x="323.9229" y="361.3359"/><text fill="#000000" font-family="sans-serif" font-size="12" lengthAdjust="spacing" textLength="282.8555" x="333.9229" y="382.4746">Angaben pr&#252;fen (Zusammenfassung anzeigen)</text><polygon fill="#F1F1F1" points="393.4092,415.3047,557.292,415.3047,569.292,427.3047,557.292,439.3047,393.4092,439.3047,381.4092,427.3047,393.4092,415.3047" style="stroke:#181818;stroke-width:0.5;"/><text fill="#000000" font-family="sans-serif" font-size="11" lengthAdjust="spacing" textLength="163.8828" x="393.4092" y="431.1128">Alle Pflichtangaben gemacht?</text><text fill="#000000" font-family="sans-serif" font-size="11" lengthAdjust="spacing" textLength="9.7969" x="371.6123" y="424.7104">ja</text><text fill="#000000" font-family="sans-serif" font-size="11" lengthAdjust="spacing" textLength="23.7671" x="569.292" y="424.7104">nein</text><path d="M334.2449,453.7227 L334.2449,462.2891 L314.2449,466.2891 L334.2449,470.2891 L334.2449,478.8555 A0,0 0 0 0 334.2449,478.8555 L580.7581,478.8555 A0,0 0 0 0 580.7581,478.8555 L580.7581,463.7227 L570.7581,453.7227 L334.2449,453.7227 A0,0 0 0 0 334.2449,453.7227" fill="#FEFFDD" style="stroke:#181818;stroke-width:0.5;"/><path d="M570.7581,453.7227 L570.7581,463.7227 L580.7581,463.7227 L570.7581,453.7227" fill="#FEFFDD" style="stroke:#181818;stroke-width:0.5;"/><text fill="#000000" font-family="sans-serif" font-size="13" lengthAdjust="spacing" textLength="225.5132" x="340.2449" y="470.7896">Meldung wird anonym gespeichert</text><rect fill="#F1F1F1" height="33.9688" rx="12.5" ry="12.5" style="stroke:#181818;stroke-width:0.5;" width="134.1465" x="180.0984" y="449.3047"/><text fill="#000000" font-family="sans-serif" font-size="12" lengthAdjust="spacing" textLength="114.1465" x="190.0984" y="470.4434">Meldung absenden</text><rect fill="#F1F1F1" height="33.9688" rx="12.5" ry="12.5" style="stroke:#181818;stroke-width:0.5;" width="205.543" x="600.7581" y="449.3047"/><text fill="#000000" font-family="sans-serif" font-size="12" lengthAdjust="spacing" textLength="185.543" x="610.7581" y="470.4434">Hinweis: Fehlende Pflichtfelder</text><rect fill="#F1F1F1" height="33.9688" rx="12.5" ry="12.5" style="stroke:#181818;stroke-width:0.5;" width="136.8711" x="635.094" y="503.2734"/><text fill="#000000" font-family="sans-serif" font-size="12" lengthAdjust="spacing" textLength="116.8711" x="645.094" y="524.4121">Zur&#252;ck zur Eingabe</text><polygon fill="#F1F1F1" points="475.3506,543.2422,487.3506,555.2422,475.3506,567.2422,463.3506,555.2422,475.3506,543.2422" style="stroke:#181818;stroke-width:0.5;"/><rect fill="#555555" height="6" rx="2.5" ry="2.5" style="stroke:#555555;stroke-width:1;" width="775.6523" x="87.5244" y="587.2422"/><rect fill="#F1F1F1" height="33.9688" rx="12.5" ry="12.5" style="stroke:#181818;stroke-width:0.5;" width="244.0156" x="101.5244" y="613.2422"/><text fill="#000000" font-family="sans-serif" font-size="12" lengthAdjust="spacing" textLength="224.0156" x="111.5244" y="634.3809">Anzeige in "Gefunden/Verloren"-Liste</text><rect fill="#F1F1F1" height="33.9688" rx="12.5" ry="12.5" style="stroke:#181818;stroke-width:0.5;" width="193.2969" x="373.54" y="613.2422"/><text fill="#000000" font-family="sans-serif" font-size="12" lengthAdjust="spacing" textLength="173.2969" x="383.54" y="634.3809">Datenbank-Eintrag erzeugen</text><rect fill="#F1F1F1" height="33.9688" rx="12.5" ry="12.5" style="stroke:#181818;stroke-width:0.5;" width="254.3398" x="594.8369" y="613.2422"/><text fill="#000000" font-family="sans-serif" font-size="12" lengthAdjust="spacing" textLength="234.3398" x="604.8369" y="634.3809">Benachrichtigung an Fundb&#252;ro/System</text><rect fill="#555555" height="6" rx="2.5" ry="2.5" style="stroke:#555555;stroke-width:1;" width="775.6523" x="87.5244" y="667.2109"/><ellipse cx="475.3506" cy="704.2109" fill="none" rx="11" ry="11" style="stroke:#222222;stroke-width:1;"/><ellipse cx="475.3506" cy="704.2109" fill="#222222" rx="6" ry="6" style="stroke:#222222;stroke-width:1;"/><line style="stroke:#181818;stroke-width:1;" x1="475.3506" x2="475.3506" y1="67.2969" y2="87.2969"/><polygon fill="#181818" points="471.3506,77.2969,475.3506,87.2969,479.3506,77.2969,475.3506,81.2969" style="stroke:#181818;stroke-width:1;"/><line style="stroke:#181818;stroke-width:1;" x1="475.3506" x2="475.3506" y1="121.2656" y2="141.2656"/><polygon fill="#181818" points="471.3506,131.2656,475.3506,141.2656,479.3506,131.2656,475.3506,135.2656" style="stroke:#181818;stroke-width:1;"/><line style="stroke:#181818;stroke-width:1;" x1="819.7471" x2="819.7471" y1="246.3672" y2="281.3672"/><polygon fill="#181818" points="815.7471,271.3672,819.7471,281.3672,823.7471,271.3672,819.7471,275.3672" style="stroke:#181818;stroke-width:1;"/><line style="stroke:#181818;stroke-width:1;" x1="122.0186" x2="122.0186" y1="201.2344" y2="251.3008"/><polygon fill="#181818" points="118.0186,241.3008,122.0186,251.3008,126.0186,241.3008,122.0186,245.3008" style="stroke:#181818;stroke-width:1;"/><line style="stroke:#181818;stroke-width:1;" x1="350.332" x2="350.332" y1="201.2344" y2="251.3008"/><polygon fill="#181818" points="346.332,241.3008,350.332,251.3008,354.332,241.3008,350.332,245.3008" style="stroke:#181818;stroke-width:1;"/><line style="stroke:#181818;stroke-width:1;" x1="581.71" x2="581.71" y1="201.2344" y2="251.3008"/><polygon fill="#181818" points="577.71,241.3008,581.71,251.3008,585.71,241.3008,581.71,245.3008" style="stroke:#181818;stroke-width:1;"/><line style="stroke:#181818;stroke-width:1;" x1="819.7471" x2="819.7471" y1="201.2344" y2="221.2344"/><polygon fill="#181818" points="815.7471,211.2344,819.7471,221.2344,823.7471,211.2344,819.7471,215.2344" style="stroke:#181818;stroke-width:1;"/><line style="stroke:#181818;stroke-width:1;" x1="122.0186" x2="122.0186" y1="285.2695" y2="335.3359"/><polygon fill="#181818" points="118.0186,325.3359,122.0186,335.3359,126.0186,325.3359,122.0186,329.3359" style="stroke:#181818;stroke-width:1;"/><line style="stroke:#181818;stroke-width:1;" x1="350.332" x2="350.332" y1="285.2695" y2="335.3359"/><polygon fill="#181818" points="346.332,325.3359,350.332,335.3359,354.332,325.3359,350.332,329.3359" style="stroke:#181818;stroke-width:1;"/><line style="stroke:#181818;stroke-width:1;" x1="581.71" x2="581.71" y1="285.2695" y2="335.3359"/><polygon fill="#181818" points="577.71,325.3359,581.71,335.3359,585.71,325.3359,581.71,329.3359" style="stroke:#181818;stroke-width:1;"/><line style="stroke:#181818;stroke-width:1;" x1="819.7471" x2="819.7471" y1="315.3359" y2="335.3359"/><polygon fill="#181818" points="815.7471,325.3359,819.7471,335.3359,823.7471,325.3359,819.7471,329.3359" style="stroke:#181818;stroke-width:1;"/><line style="stroke:#181818;stroke-width:1;" x1="475.3506" x2="475.3506" y1="175.2344" y2="195.2344"/><polygon fill="#181818" points="471.3506,185.2344,475.3506,195.2344,479.3506,185.2344,475.3506,189.2344" style="stroke:#181818;stroke-width:1;"/><line style="stroke:#181818;stroke-width:1;" x1="475.3506" x2="475.3506" y1="341.3359" y2="361.3359"/><polygon fill="#181818" points="471.3506,351.3359,475.3506,361.3359,479.3506,351.3359,475.3506,355.3359" style="stroke:#181818;stroke-width:1;"/><line style="stroke:#181818;stroke-width:1;" x1="703.5295" x2="703.5295" y1="483.2734" y2="503.2734"/><polygon fill="#181818" points="699.5295,493.2734,703.5295,503.2734,707.5295,493.2734,703.5295,497.2734" style="stroke:#181818;stroke-width:1;"/><line style="stroke:#181818;stroke-width:1;" x1="381.4092" x2="247.1716" y1="427.3047" y2="427.3047"/><line style="stroke:#181818;stroke-width:1;" x1="247.1716" x2="247.1716" y1="427.3047" y2="449.3047"/><polygon fill="#181818" points="243.1716,439.3047,247.1716,449.3047,251.1716,439.3047,247.1716,443.3047" style="stroke:#181818;stroke-width:1;"/><line style="stroke:#181818;stroke-width:1;" x1="569.292" x2="703.5295" y1="427.3047" y2="427.3047"/><line style="stroke:#181818;stroke-width:1;" x1="703.5295" x2="703.5295" y1="427.3047" y2="449.3047"/><polygon fill="#181818" points="699.5295,439.3047,703.5295,449.3047,707.5295,439.3047,703.5295,443.3047" style="stroke:#181818;stroke-width:1;"/><line style="stroke:#181818;stroke-width:1;" x1="247.1716" x2="247.1716" y1="483.2734" y2="555.2422"/><line style="stroke:#181818;stroke-width:1;" x1="247.1716" x2="463.3506" y1="555.2422" y2="555.2422"/><polygon fill="#181818" points="453.3506,551.2422,463.3506,555.2422,453.3506,559.2422,457.3506,555.2422" style="stroke:#181818;stroke-width:1;"/><line style="stroke:#181818;stroke-width:1;" x1="703.5295" x2="703.5295" y1="537.2422" y2="555.2422"/><line style="stroke:#181818;stroke-width:1;" x1="703.5295" x2="487.3506" y1="555.2422" y2="555.2422"/><polygon fill="#181818" points="497.3506,551.2422,487.3506,555.2422,497.3506,559.2422,493.3506,555.2422" style="stroke:#181818;stroke-width:1;"/><line style="stroke:#181818;stroke-width:1;" x1="475.3506" x2="475.3506" y1="395.3047" y2="415.3047"/><polygon fill="#181818" points="471.3506,405.3047,475.3506,415.3047,479.3506,405.3047,475.3506,409.3047" style="stroke:#181818;stroke-width:1;"/><line style="stroke:#181818;stroke-width:1;" x1="223.5322" x2="223.5322" y1="593.2422" y2="613.2422"/><polygon fill="#181818" points="219.5322,603.2422,223.5322,613.2422,227.5322,603.2422,223.5322,607.2422" style="stroke:#181818;stroke-width:1;"/><line style="stroke:#181818;stroke-width:1;" x1="470.1885" x2="470.1885" y1="593.2422" y2="613.2422"/><polygon fill="#181818" points="466.1885,603.2422,470.1885,613.2422,474.1885,603.2422,470.1885,607.2422" style="stroke:#181818;stroke-width:1;"/><line style="stroke:#181818;stroke-width:1;" x1="722.0068" x2="722.0068" y1="593.2422" y2="613.2422"/><polygon fill="#181818" points="718.0068,603.2422,722.0068,613.2422,726.0068,603.2422,722.0068,607.2422" style="stroke:#181818;stroke-width:1;"/><line style="stroke:#181818;stroke-width:1;" x1="223.5322" x2="223.5322" y1="647.2109" y2="667.2109"/><polygon fill="#181818" points="219.5322,657.2109,223.5322,667.2109,227.5322,657.2109,223.5322,661.2109" style="stroke:#181818;stroke-width:1;"/><line style="stroke:#181818;stroke-width:1;" x1="470.1885" x2="470.1885" y1="647.2109" y2="667.2109"/><polygon fill="#181818" points="466.1885,657.2109,470.1885,667.2109,474.1885,657.2109,470.1885,661.2109" style="stroke:#181818;stroke-width:1;"/><line style="stroke:#181818;stroke-width:1;" x1="722.0068" x2="722.0068" y1="647.2109" y2="667.2109"/><polygon fill="#181818" points="718.0068,657.2109,722.0068,667.2109,726.0068,657.2109,722.0068,661.2109" style="stroke:#181818;stroke-width:1;"/><line style="stroke:#181818;stroke-width:1;" x1="475.3506" x2="475.3506" y1="567.2422" y2="587.2422"/><polygon fill="#181818" points="471.3506,577.2422,475.3506,587.2422,479.3506,577.2422,475.3506,581.2422" style="stroke:#181818;stroke-width:1;"/><line style="stroke:#181818;stroke-width:1;" x1="475.3506" x2="475.3506" y1="673.2109" y2="693.2109"/><polygon fill="#181818" points="471.3506,683.2109,475.3506,693.2109,479.3506,683.2109,475.3506,687.2109" style="stroke:#181818;stroke-width:1;"/><!--SRC=[RLAzRjim4Dxr50TFzX1uLuP2HUjqI942BLeW6sKTgOkaeq2UuiRFasVeb4qlrZkvpa_RYH3uyVkLaFG8LITqJp8_Icx8XUI6eOIA8pyC29-nRoOEWCIOuHvJ7nCoCbnXGCxYkCb5eMUIeYYhSTp-m3eZ2SByotj5NXRbpIWK6LRV_po7GLcHL-2cV9WVszvGXO-fAm3AcoIlBY0sc4m-O6qmGu4BZjYmjweqJjm9D6hF-ASi6Pv9twBVOzwt2QcsHEjl-5Cs5icxdFy1SzG8YK8h9PpykzuuTb6YsjDaxN1sryPzsxl6E90RM89e6HoSMeOnpKzUp_NjbBLRPDCp1uwFIDhYHiEJXtNLwnfVV4_xLdizFGuuEFryjm5fZUFERSp5UHQdNVCY_DRn-Vv0gL4TsrAfyeZAZJeLzXbXpLhhGlU9-82KIzYXzTOys_0sLBfSgfuqnxw3uvJW8otsbhZaNwQhJec0TEmhz9DPsvvNNrrSKnRyUvGFJf1hnzs5iafo-g-b8qxXV_EnTf7C5uLJWR1JZNf-Id7xzK79XzSBP8dZRm00]--></g></svg>