<svg xmlns="http://www.w3.org/2000/svg" xmlns:xlink="http://www.w3.org/1999/xlink" contentStyleType="text/css" data-diagram-type="ACTIVITY" height="745px" preserveAspectRatio="none" style="width:1735px;height:745px;background:#FFFFFF;" version="1.1" viewBox="0 0 1735 745" width="1735px" zoomAndPan="magnify"><title>Aktivit&#228;tsdiagramm: Anonyme Meldung eines verlorenen Gegenstands</title><defs/><g><g class="title" data-source-line="1"><text fill="#000000" font-family="sans-serif" font-size="14" font-weight="bold" lengthAdjust="spacing" textLength="559.4326" x="586.5422" y="32.9951">Aktivit&#228;tsdiagramm: Anonyme Meldung eines verlorenen Gegenstands</text></g><rect fill="none" height="20.9531" style="stroke:none;stroke-width:1;" width="1702.5171" x="15" y="50.042"/><ellipse cx="465.502" cy="85.9951" fill="#222222" rx="10" ry="10" style="stroke:#222222;stroke-width:1;"/><rect fill="#F0F8FF" height="33.9688" rx="12.5" ry="12.5" style="stroke:#4682B4;stroke-width:0.5;" width="145.6074" x="392.6982" y="115.9951"/><text fill="#000000" font-family="sans-serif" font-size="12" lengthAdjust="spacing" textLength="125.6074" x="402.6982" y="137.1338">App/Webseite &#246;ffnen</text><rect fill="#F0F8FF" height="33.9688" rx="12.5" ry="12.5" style="stroke:#4682B4;stroke-width:0.5;" width="242.9727" x="344.0156" y="169.9639"/><text fill="#000000" font-family="sans-serif" font-size="12" lengthAdjust="spacing" textLength="222.9727" x="354.0156" y="191.1025">Option "Verloren melden" ausw&#228;hlen</text><rect fill="#555555" height="6" rx="2.5" ry="2.5" style="stroke:#555555;stroke-width:1;" width="889.0039" x="21" y="223.9326"/><rect fill="#F0F8FF" height="33.9688" rx="12.5" ry="12.5" style="stroke:#4682B4;stroke-width:0.5;" width="198.0371" x="33" y="269.9326"/><text fill="#000000" font-family="sans-serif" font-size="12" lengthAdjust="spacing" textLength="178.0371" x="43" y="291.0713">Ort ausw&#228;hlen oder eingeben</text><rect fill="#F0F8FF" height="33.9688" rx="12.5" ry="12.5" style="stroke:#4682B4;stroke-width:0.5;" width="202.5898" x="259.0371" y="269.9326"/><text fill="#000000" font-family="sans-serif" font-size="12" lengthAdjust="spacing" textLength="182.5898" x="269.0371" y="291.0713">Zeitpunkt des Verlusts w&#228;hlen</text><rect fill="#F0F8FF" height="33.9688" rx="12.5" ry="12.5" style="stroke:#4682B4;stroke-width:0.5;" width="164.4688" x="489.627" y="269.9326"/><text fill="#000000" font-family="sans-serif" font-size="12" lengthAdjust="spacing" textLength="144.4688" x="499.627" y="291.0713">Beschreibung verfassen</text><rect fill="#F0F8FF" height="33.9688" rx="12.5" ry="12.5" style="stroke:#4682B4;stroke-width:0.5;" width="215.9082" x="682.0957" y="299.999"/><text fill="#000000" font-family="sans-serif" font-size="12" lengthAdjust="spacing" textLength="195.9082" x="692.0957" y="321.1377">Foto aufnehmen oder hochladen</text><rect fill="#555555" height="6" rx="2.5" ry="2.5" style="stroke:#555555;stroke-width:1;" width="889.0039" x="21" y="353.9678"/><rect fill="#F0F8FF" height="33.9688" rx="12.5" ry="12.5" style="stroke:#4682B4;stroke-width:0.5;" width="302.8555" x="314.0742" y="379.9678"/><text fill="#000000" font-family="sans-serif" font-size="12" lengthAdjust="spacing" textLength="282.8555" x="324.0742" y="401.1064">Angaben pr&#252;fen (Zusammenfassung anzeigen)</text><polygon fill="#F0F8FF" points="383.5605,433.9365,547.4434,433.9365,559.4434,445.9365,547.4434,457.9365,383.5605,457.9365,371.5605,445.9365,383.5605,433.9365" style="stroke:#4682B4;stroke-width:0.5;"/><text fill="#000000" font-family="sans-serif" font-size="11" lengthAdjust="spacing" textLength="163.8828" x="383.5605" y="449.7446">Alle Pflichtangaben gemacht?</text><text fill="#000000" font-family="sans-serif" font-size="11" lengthAdjust="spacing" textLength="9.7969" x="361.7637" y="443.3423">ja</text><text fill="#000000" font-family="sans-serif" font-size="11" lengthAdjust="spacing" textLength="23.7671" x="559.4434" y="443.3423">nein</text><path d="M324.3962,472.3545 L324.3962,480.9209 L304.3962,484.9209 L324.3962,488.9209 L324.3962,497.4873 A0,0 0 0 0 324.3962,497.4873 L570.9094,497.4873 A0,0 0 0 0 570.9094,497.4873 L570.9094,482.3545 L560.9094,472.3545 L324.3962,472.3545 A0,0 0 0 0 324.3962,472.3545" fill="#FFFACD" style="stroke:#FFD700;stroke-width:0.5;"/><path d="M560.9094,472.3545 L560.9094,482.3545 L570.9094,482.3545 L560.9094,472.3545" fill="#FFFACD" style="stroke:#FFD700;stroke-width:0.5;"/><text fill="#000000" font-family="sans-serif" font-size="13" lengthAdjust="spacing" textLength="225.5132" x="330.3962" y="489.4214">Meldung wird anonym gespeichert</text><rect fill="#F0F8FF" height="33.9688" rx="12.5" ry="12.5" style="stroke:#4682B4;stroke-width:0.5;" width="134.1465" x="170.2498" y="467.9365"/><text fill="#000000" font-family="sans-serif" font-size="12" lengthAdjust="spacing" textLength="114.1465" x="180.2498" y="489.0752">Meldung absenden</text><rect fill="#F0F8FF" height="33.9688" rx="12.5" ry="12.5" style="stroke:#4682B4;stroke-width:0.5;" width="205.543" x="590.9094" y="467.9365"/><text fill="#000000" font-family="sans-serif" font-size="12" lengthAdjust="spacing" textLength="185.543" x="600.9094" y="489.0752">Hinweis: Fehlende Pflichtfelder</text><rect fill="#F0F8FF" height="33.9688" rx="12.5" ry="12.5" style="stroke:#4682B4;stroke-width:0.5;" width="136.8711" x="625.2454" y="521.9053"/><text fill="#000000" font-family="sans-serif" font-size="12" lengthAdjust="spacing" textLength="116.8711" x="635.2454" y="543.0439">Zur&#252;ck zur Eingabe</text><polygon fill="#F0F8FF" points="465.502,561.874,477.502,573.874,465.502,585.874,453.502,573.874,465.502,561.874" style="stroke:#4682B4;stroke-width:0.5;"/><line style="stroke:#000000;stroke-width:1.5;" x1="15" x2="15" y1="50.042" y2="733.8428"/><rect fill="#555555" height="6" rx="2.5" ry="2.5" style="stroke:#555555;stroke-width:1;" width="471.3125" x="920.0039" y="605.874"/><rect fill="#F0F8FF" height="33.9688" rx="12.5" ry="12.5" style="stroke:#4682B4;stroke-width:0.5;" width="244.0156" x="932.0039" y="631.874"/><text fill="#000000" font-family="sans-serif" font-size="12" lengthAdjust="spacing" textLength="224.0156" x="942.0039" y="653.0127">Anzeige in "Gefunden/Verloren"-Liste</text><rect fill="#F0F8FF" height="33.9688" rx="12.5" ry="12.5" style="stroke:#4682B4;stroke-width:0.5;" width="193.2969" x="1186.0195" y="631.874"/><text fill="#000000" font-family="sans-serif" font-size="12" lengthAdjust="spacing" textLength="173.2969" x="1196.0195" y="653.0127">Datenbank-Eintrag erzeugen</text><line style="stroke:#000000;stroke-width:1.5;" x1="914.0039" x2="914.0039" y1="50.042" y2="733.8428"/><rect fill="#F0F8FF" height="33.9688" rx="12.5" ry="12.5" style="stroke:#4682B4;stroke-width:0.5;" width="254.3398" x="1445.3164" y="631.874"/><text fill="#000000" font-family="sans-serif" font-size="12" lengthAdjust="spacing" textLength="234.3398" x="1455.3164" y="653.0127">Benachrichtigung an Fundb&#252;ro/System</text><rect fill="#555555" height="6" rx="2.5" ry="2.5" style="stroke:#555555;stroke-width:1;" width="310.3398" x="1401.3164" y="685.8428"/><ellipse cx="1424.3164" cy="722.8428" fill="none" rx="11" ry="11" style="stroke:#222222;stroke-width:1;"/><ellipse cx="1424.3164" cy="722.8428" fill="#222222" rx="6" ry="6" style="stroke:#222222;stroke-width:1;"/><line style="stroke:#000000;stroke-width:1.5;" x1="1395.3164" x2="1395.3164" y1="50.042" y2="733.8428"/><line style="stroke:#000000;stroke-width:1.5;" x1="1715.6563" x2="1715.6563" y1="50.042" y2="733.8428"/><line style="stroke:#6A5ACD;stroke-width:1;" x1="465.502" x2="465.502" y1="95.9951" y2="115.9951"/><polygon fill="#6A5ACD" points="461.502,105.9951,465.502,115.9951,469.502,105.9951,465.502,109.9951" style="stroke:#6A5ACD;stroke-width:1;"/><line style="stroke:#6A5ACD;stroke-width:1;" x1="465.502" x2="465.502" y1="149.9639" y2="169.9639"/><polygon fill="#6A5ACD" points="461.502,159.9639,465.502,169.9639,469.502,159.9639,465.502,163.9639" style="stroke:#6A5ACD;stroke-width:1;"/><line style="stroke:#6A5ACD;stroke-width:1;" x1="790.0498" x2="790.0498" y1="264.999" y2="299.999"/><polygon fill="#6A5ACD" points="786.0498,289.999,790.0498,299.999,794.0498,289.999,790.0498,293.999" style="stroke:#6A5ACD;stroke-width:1;"/><line style="stroke:#6A5ACD;stroke-width:1;" x1="132.0186" x2="132.0186" y1="229.9326" y2="269.9326"/><polygon fill="#6A5ACD" points="128.0186,259.9326,132.0186,269.9326,136.0186,259.9326,132.0186,263.9326" style="stroke:#6A5ACD;stroke-width:1;"/><line style="stroke:#6A5ACD;stroke-width:1;" x1="360.332" x2="360.332" y1="229.9326" y2="269.9326"/><polygon fill="#6A5ACD" points="356.332,259.9326,360.332,269.9326,364.332,259.9326,360.332,263.9326" style="stroke:#6A5ACD;stroke-width:1;"/><line style="stroke:#6A5ACD;stroke-width:1;" x1="571.8613" x2="571.8613" y1="229.9326" y2="269.9326"/><polygon fill="#6A5ACD" points="567.8613,259.9326,571.8613,269.9326,575.8613,259.9326,571.8613,263.9326" style="stroke:#6A5ACD;stroke-width:1;"/><line style="stroke:#6A5ACD;stroke-width:1;" x1="790.0498" x2="790.0498" y1="229.9326" y2="249.9326"/><polygon fill="#6A5ACD" points="786.0498,239.9326,790.0498,249.9326,794.0498,239.9326,790.0498,243.9326" style="stroke:#6A5ACD;stroke-width:1;"/><line style="stroke:#6A5ACD;stroke-width:1;" x1="132.0186" x2="132.0186" y1="303.9014" y2="353.9678"/><polygon fill="#6A5ACD" points="128.0186,343.9678,132.0186,353.9678,136.0186,343.9678,132.0186,347.9678" style="stroke:#6A5ACD;stroke-width:1;"/><line style="stroke:#6A5ACD;stroke-width:1;" x1="360.332" x2="360.332" y1="303.9014" y2="353.9678"/><polygon fill="#6A5ACD" points="356.332,343.9678,360.332,353.9678,364.332,343.9678,360.332,347.9678" style="stroke:#6A5ACD;stroke-width:1;"/><line style="stroke:#6A5ACD;stroke-width:1;" x1="571.8613" x2="571.8613" y1="303.9014" y2="353.9678"/><polygon fill="#6A5ACD" points="567.8613,343.9678,571.8613,353.9678,575.8613,343.9678,571.8613,347.9678" style="stroke:#6A5ACD;stroke-width:1;"/><line style="stroke:#6A5ACD;stroke-width:1;" x1="790.0498" x2="790.0498" y1="333.9678" y2="353.9678"/><polygon fill="#6A5ACD" points="786.0498,343.9678,790.0498,353.9678,794.0498,343.9678,790.0498,347.9678" style="stroke:#6A5ACD;stroke-width:1;"/><line style="stroke:#6A5ACD;stroke-width:1;" x1="465.502" x2="465.502" y1="203.9326" y2="223.9326"/><polygon fill="#6A5ACD" points="461.502,213.9326,465.502,223.9326,469.502,213.9326,465.502,217.9326" style="stroke:#6A5ACD;stroke-width:1;"/><line style="stroke:#6A5ACD;stroke-width:1;" x1="465.502" x2="465.502" y1="359.9678" y2="379.9678"/><polygon fill="#6A5ACD" points="461.502,369.9678,465.502,379.9678,469.502,369.9678,465.502,373.9678" style="stroke:#6A5ACD;stroke-width:1;"/><line style="stroke:#6A5ACD;stroke-width:1;" x1="693.6809" x2="693.6809" y1="501.9053" y2="521.9053"/><polygon fill="#6A5ACD" points="689.6809,511.9053,693.6809,521.9053,697.6809,511.9053,693.6809,515.9053" style="stroke:#6A5ACD;stroke-width:1;"/><line style="stroke:#6A5ACD;stroke-width:1;" x1="371.5605" x2="237.323" y1="445.9365" y2="445.9365"/><line style="stroke:#6A5ACD;stroke-width:1;" x1="237.323" x2="237.323" y1="445.9365" y2="467.9365"/><polygon fill="#6A5ACD" points="233.323,457.9365,237.323,467.9365,241.323,457.9365,237.323,461.9365" style="stroke:#6A5ACD;stroke-width:1;"/><line style="stroke:#6A5ACD;stroke-width:1;" x1="559.4434" x2="693.6809" y1="445.9365" y2="445.9365"/><line style="stroke:#6A5ACD;stroke-width:1;" x1="693.6809" x2="693.6809" y1="445.9365" y2="467.9365"/><polygon fill="#6A5ACD" points="689.6809,457.9365,693.6809,467.9365,697.6809,457.9365,693.6809,461.9365" style="stroke:#6A5ACD;stroke-width:1;"/><line style="stroke:#6A5ACD;stroke-width:1;" x1="237.323" x2="237.323" y1="501.9053" y2="573.874"/><line style="stroke:#6A5ACD;stroke-width:1;" x1="237.323" x2="453.502" y1="573.874" y2="573.874"/><polygon fill="#6A5ACD" points="443.502,569.874,453.502,573.874,443.502,577.874,447.502,573.874" style="stroke:#6A5ACD;stroke-width:1;"/><line style="stroke:#6A5ACD;stroke-width:1;" x1="693.6809" x2="693.6809" y1="555.874" y2="573.874"/><line style="stroke:#6A5ACD;stroke-width:1;" x1="693.6809" x2="477.502" y1="573.874" y2="573.874"/><polygon fill="#6A5ACD" points="487.502,569.874,477.502,573.874,487.502,577.874,483.502,573.874" style="stroke:#6A5ACD;stroke-width:1;"/><line style="stroke:#6A5ACD;stroke-width:1;" x1="465.502" x2="465.502" y1="413.9365" y2="433.9365"/><polygon fill="#6A5ACD" points="461.502,423.9365,465.502,433.9365,469.502,423.9365,465.502,427.9365" style="stroke:#6A5ACD;stroke-width:1;"/><line style="stroke:#6A5ACD;stroke-width:1;" x1="1054.0117" x2="1054.0117" y1="611.874" y2="631.874"/><polygon fill="#6A5ACD" points="1050.0117,621.874,1054.0117,631.874,1058.0117,621.874,1054.0117,625.874" style="stroke:#6A5ACD;stroke-width:1;"/><line style="stroke:#6A5ACD;stroke-width:1;" x1="1282.668" x2="1282.668" y1="611.874" y2="631.874"/><polygon fill="#6A5ACD" points="1278.668,621.874,1282.668,631.874,1286.668,621.874,1282.668,625.874" style="stroke:#6A5ACD;stroke-width:1;"/><line style="stroke:#6A5ACD;stroke-width:1;" x1="1572.4863" x2="1572.4863" y1="665.8428" y2="685.8428"/><polygon fill="#6A5ACD" points="1568.4863,675.8428,1572.4863,685.8428,1576.4863,675.8428,1572.4863,679.8428" style="stroke:#6A5ACD;stroke-width:1;"/><line style="stroke:#6A5ACD;stroke-width:1;" x1="1424.3164" x2="1424.3164" y1="691.8428" y2="711.8428"/><polygon fill="#6A5ACD" points="1420.3164,701.8428,1424.3164,711.8428,1428.3164,701.8428,1424.3164,705.8428" style="stroke:#6A5ACD;stroke-width:1;"/><line style="stroke:#6A5ACD;stroke-width:1;" x1="1384.3164" x2="1384.3164" y1="611.874" y2="615.874"/><line style="stroke:#6A5ACD;stroke-width:1;" x1="1384.3164" x2="1572.4863" y1="615.874" y2="615.874"/><line style="stroke:#6A5ACD;stroke-width:1;" x1="1572.4863" x2="1572.4863" y1="615.874" y2="631.874"/><polygon fill="#6A5ACD" points="1568.4863,621.874,1572.4863,631.874,1576.4863,621.874,1572.4863,625.874" style="stroke:#6A5ACD;stroke-width:1;"/><line style="stroke:#6A5ACD;stroke-width:1;" x1="1054.0117" x2="1054.0117" y1="665.8428" y2="671.8428"/><line style="stroke:#6A5ACD;stroke-width:1;" x1="1054.0117" x2="1408.3164" y1="671.8428" y2="671.8428"/><line style="stroke:#6A5ACD;stroke-width:1;" x1="1408.3164" x2="1408.3164" y1="671.8428" y2="685.8428"/><polygon fill="#6A5ACD" points="1404.3164,675.8428,1408.3164,685.8428,1412.3164,675.8428,1408.3164,679.8428" style="stroke:#6A5ACD;stroke-width:1;"/><line style="stroke:#6A5ACD;stroke-width:1;" x1="1282.668" x2="1282.668" y1="665.8428" y2="671.8428"/><line style="stroke:#6A5ACD;stroke-width:1;" x1="1282.668" x2="1419.1543" y1="671.8428" y2="671.8428"/><line style="stroke:#6A5ACD;stroke-width:1;" x1="1419.1543" x2="1419.1543" y1="671.8428" y2="685.8428"/><polygon fill="#6A5ACD" points="1415.1543,675.8428,1419.1543,685.8428,1423.1543,675.8428,1419.1543,679.8428" style="stroke:#6A5ACD;stroke-width:1;"/><line style="stroke:#6A5ACD;stroke-width:1;" x1="465.502" x2="465.502" y1="585.874" y2="590.874"/><line style="stroke:#6A5ACD;stroke-width:1;" x1="465.502" x2="1287.8301" y1="590.874" y2="590.874"/><line style="stroke:#6A5ACD;stroke-width:1;" x1="1287.8301" x2="1287.8301" y1="590.874" y2="605.874"/><polygon fill="#6A5ACD" points="1283.8301,595.874,1287.8301,605.874,1291.8301,595.874,1287.8301,599.874" style="stroke:#6A5ACD;stroke-width:1;"/><text fill="#000000" font-family="sans-serif" font-size="18" lengthAdjust="spacing" textLength="81.2197" x="423.8921" y="66.75">Benutzer</text><text fill="#000000" font-family="sans-serif" font-size="18" lengthAdjust="spacing" textLength="67.1221" x="1121.0991" y="66.75">System</text><text fill="#000000" font-family="sans-serif" font-size="18" lengthAdjust="spacing" textLength="85.8428" x="1512.5649" y="66.75">Fundb&#252;ro</text><!--SRC=[TLDBRjim4Dth50DdOoy26q6Q1igYaECoNRH8WG8fa1qjZIXMqb3W9uPTzpOvGrVP-M8TIhRX9EZA4Fduvdt6Nli68QkzVj9-z-nTeQMoicrJoCZGkaNuXaqHI05gGWTFQ1jZaP3W3XMIyv8AbxXQKoVv8SYyvrh3xmHWBlDQMHEek3Ny3Cx4J5mB4M-CBT3kJo-lhY_cbtoQMMjM-yEhx4DskqZ-d72JyVWVNY4Y-0sl48kFinbJ9DivKl0RjDk45LkVf5dNJN_Yqg5cpjtVicHBDqbwttbj24OFUv_Gidsa4SZWLhldgecef3Isvc7flVKd5s1uTCn9uJB28WgaafeYzf4dTO5g3mNd6Fc3ymwEfA_HStHvPL4lO_GSUYcTUuVgyx1QLJw5GRXiucDXl65TRAbg3x8garUDB287KW6z0qw1b6IjqDdTIyc_uyVWk7saE2-EbhH1pJrFsBKkOPmrl2_VoqRd5JS_F5ROIlxyD05VHOvVSX9L71P7SiZK3twj-72_qhRWEN7RcCfroDp85M7Z4CR4UVPqNpIjKBiK1CR0YgECCZPaR_gC0_l8QzW42vzrBw-tgqjUWHzhvx7T7ilB1ckWkUuxB4FKE3tqFZh_gXd-jfQ5z4XBIVKvqtih-MzXDnZKksgsWlcMknThjaETn17PA5Uh8LSu8gQ3ijDYd3VTFm00]--></g></svg>