<svg xmlns="http://www.w3.org/2000/svg" xmlns:xlink="http://www.w3.org/1999/xlink" contentStyleType="text/css" data-diagram-type="ACTIVITY" height="606px" preserveAspectRatio="none" style="width:528px;height:606px;background:#FFFFFF;" version="1.1" viewBox="0 0 528 606" width="528px" zoomAndPan="magnify"><title>Aktivit&#228;tsdiagramm: Verlorenen Gegenstand anonym melden</title><defs/><g><g class="title" data-source-line="1"><text fill="#000000" font-family="sans-serif" font-size="14" font-weight="bold" lengthAdjust="spacing" textLength="485.126" x="20" y="32.9951">Aktivit&#228;tsdiagramm: Verlorenen Gegenstand anonym melden</text></g><ellipse cx="264.063" cy="57.2969" fill="#222222" rx="10" ry="10" style="stroke:#222222;stroke-width:1;"/><rect fill="#F1F1F1" height="33.9688" rx="12.5" ry="12.5" style="stroke:#181818;stroke-width:0.5;" width="176.4688" x="175.8286" y="87.2969"/><text fill="#000000" font-family="sans-serif" font-size="12" lengthAdjust="spacing" textLength="156.4688" x="185.8286" y="108.4355">App oder Webseite &#246;ffnen</text><rect fill="#F1F1F1" height="33.9688" rx="12.5" ry="12.5" style="stroke:#181818;stroke-width:0.5;" width="313.3848" x="107.3706" y="141.2656"/><text fill="#000000" font-family="sans-serif" font-size="12" lengthAdjust="spacing" textLength="293.3848" x="117.3706" y="162.4043">Option "Verlorenen Gegenstand melden" w&#228;hlen</text><rect fill="#F1F1F1" height="33.9688" rx="12.5" ry="12.5" style="stroke:#181818;stroke-width:0.5;" width="98.8262" x="214.6499" y="195.2344"/><text fill="#000000" font-family="sans-serif" font-size="12" lengthAdjust="spacing" textLength="78.8262" x="224.6499" y="216.373">Ort eingeben</text><rect fill="#F1F1F1" height="33.9688" rx="12.5" ry="12.5" style="stroke:#181818;stroke-width:0.5;" width="137.8672" x="195.1294" y="249.2031"/><text fill="#000000" font-family="sans-serif" font-size="12" lengthAdjust="spacing" textLength="117.8672" x="205.1294" y="270.3418">Zeitpunkt eingeben</text><rect fill="#F1F1F1" height="33.9688" rx="12.5" ry="12.5" style="stroke:#181818;stroke-width:0.5;" width="161.9082" x="183.1089" y="303.1719"/><text fill="#000000" font-family="sans-serif" font-size="12" lengthAdjust="spacing" textLength="141.9082" x="193.1089" y="324.3105">Beschreibung eingeben</text><rect fill="#F1F1F1" height="33.9688" rx="12.5" ry="12.5" style="stroke:#181818;stroke-width:0.5;" width="178.8008" x="174.6626" y="357.1406"/><text fill="#000000" font-family="sans-serif" font-size="12" lengthAdjust="spacing" textLength="158.8008" x="184.6626" y="378.2793">Foto hinzuf&#252;gen (optional)</text><rect fill="#F1F1F1" height="33.9688" rx="12.5" ry="12.5" style="stroke:#181818;stroke-width:0.5;" width="209.1113" x="159.5073" y="411.1094"/><text fill="#000000" font-family="sans-serif" font-size="12" lengthAdjust="spacing" textLength="189.1113" x="169.5073" y="432.248">Meldung pr&#252;fen und best&#228;tigen</text><rect fill="#F1F1F1" height="33.9688" rx="12.5" ry="12.5" style="stroke:#181818;stroke-width:0.5;" width="249.0781" x="139.5239" y="465.0781"/><text fill="#000000" font-family="sans-serif" font-size="12" lengthAdjust="spacing" textLength="229.0781" x="149.5239" y="486.2168">Angaben werden anonym gespeichert</text><rect fill="#F1F1F1" height="33.9688" rx="12.5" ry="12.5" style="stroke:#181818;stroke-width:0.5;" width="334.6777" x="96.7241" y="519.0469"/><text fill="#000000" font-family="sans-serif" font-size="12" lengthAdjust="spacing" textLength="314.6777" x="106.7241" y="540.1855">Gegenstand wird systematisch in Datenbank erfasst</text><ellipse cx="264.063" cy="584.0156" fill="none" rx="11" ry="11" style="stroke:#222222;stroke-width:1;"/><ellipse cx="264.063" cy="584.0156" fill="#222222" rx="6" ry="6" style="stroke:#222222;stroke-width:1;"/><line style="stroke:#181818;stroke-width:1;" x1="264.063" x2="264.063" y1="67.2969" y2="87.2969"/><polygon fill="#181818" points="260.063,77.2969,264.063,87.2969,268.063,77.2969,264.063,81.2969" style="stroke:#181818;stroke-width:1;"/><line style="stroke:#181818;stroke-width:1;" x1="264.063" x2="264.063" y1="121.2656" y2="141.2656"/><polygon fill="#181818" points="260.063,131.2656,264.063,141.2656,268.063,131.2656,264.063,135.2656" style="stroke:#181818;stroke-width:1;"/><line style="stroke:#181818;stroke-width:1;" x1="264.063" x2="264.063" y1="175.2344" y2="195.2344"/><polygon fill="#181818" points="260.063,185.2344,264.063,195.2344,268.063,185.2344,264.063,189.2344" style="stroke:#181818;stroke-width:1;"/><line style="stroke:#181818;stroke-width:1;" x1="264.063" x2="264.063" y1="229.2031" y2="249.2031"/><polygon fill="#181818" points="260.063,239.2031,264.063,249.2031,268.063,239.2031,264.063,243.2031" style="stroke:#181818;stroke-width:1;"/><line style="stroke:#181818;stroke-width:1;" x1="264.063" x2="264.063" y1="283.1719" y2="303.1719"/><polygon fill="#181818" points="260.063,293.1719,264.063,303.1719,268.063,293.1719,264.063,297.1719" style="stroke:#181818;stroke-width:1;"/><line style="stroke:#181818;stroke-width:1;" x1="264.063" x2="264.063" y1="337.1406" y2="357.1406"/><polygon fill="#181818" points="260.063,347.1406,264.063,357.1406,268.063,347.1406,264.063,351.1406" style="stroke:#181818;stroke-width:1;"/><line style="stroke:#181818;stroke-width:1;" x1="264.063" x2="264.063" y1="391.1094" y2="411.1094"/><polygon fill="#181818" points="260.063,401.1094,264.063,411.1094,268.063,401.1094,264.063,405.1094" style="stroke:#181818;stroke-width:1;"/><line style="stroke:#181818;stroke-width:1;" x1="264.063" x2="264.063" y1="445.0781" y2="465.0781"/><polygon fill="#181818" points="260.063,455.0781,264.063,465.0781,268.063,455.0781,264.063,459.0781" style="stroke:#181818;stroke-width:1;"/><line style="stroke:#181818;stroke-width:1;" x1="264.063" x2="264.063" y1="499.0469" y2="519.0469"/><polygon fill="#181818" points="260.063,509.0469,264.063,519.0469,268.063,509.0469,264.063,513.0469" style="stroke:#181818;stroke-width:1;"/><line style="stroke:#181818;stroke-width:1;" x1="264.063" x2="264.063" y1="553.0156" y2="573.0156"/><polygon fill="#181818" points="260.063,563.0156,264.063,573.0156,268.063,563.0156,264.063,567.0156" style="stroke:#181818;stroke-width:1;"/><!--SRC=[RP0nJiH034NxdCBQ2guGgY045Q83YMwo-PbOIJmZZyDgES-UWMgxN0nd4T8YqNxxl_zjOvj0pMZymRQUh7GSeePvhkaLEYM5GEW94L8iI4T1aXndcZ5raAfoKQsgwYPdIXsKtj0Mi87MhxvtxrrLlsJZ9BJx7_X3sj5XFGtJjky6DG9BH7lnlpilBpB-4UzHzeE2sqNYjVwOBD70yhdqwzb3w2PTuiDqkw6VFMrpP5tFlKyNRz2YRATpl00QYS5HT81whzzx8qe6xmUe-SvL_GDhH-LO37Cmzax4GW_186sGaQ1zACKz_gcKlm40]--></g></svg>