<svg xmlns="http://www.w3.org/2000/svg" xmlns:xlink="http://www.w3.org/1999/xlink" contentStyleType="text/css" data-diagram-type="ACTIVITY" height="1101px" preserveAspectRatio="none" style="width:1428px;height:1101px;background:#FFFFFF;" version="1.1" viewBox="0 0 1428 1101" width="1428px" zoomAndPan="magnify"><title>Activity Diagram: Lost &amp; Found Platform</title><defs/><g><g class="title" data-source-line="1"><text fill="#000000" font-family="sans-serif" font-size="14" font-weight="bold" lengthAdjust="spacing" textLength="320.4756" x="552.5327" y="32.9951">Activity Diagram: Lost &amp; Found Platform</text></g><ellipse cx="840.8408" cy="57.2969" fill="#222222" rx="10" ry="10" style="stroke:#222222;stroke-width:1;"/><rect fill="#F1F1F1" height="33.9688" rx="12.5" ry="12.5" style="stroke:#181818;stroke-width:0.5;" width="149.7559" x="765.9629" y="87.2969"/><text fill="#000000" font-family="sans-serif" font-size="12" lengthAdjust="spacing" textLength="129.7559" x="775.9629" y="108.4355">Open Fundus website</text><polygon fill="#F1F1F1" points="752.9644,141.2656,928.7173,141.2656,940.7173,153.2656,928.7173,165.2656,752.9644,165.2656,740.9644,153.2656,752.9644,141.2656" style="stroke:#181818;stroke-width:0.5;"/><text fill="#000000" font-family="sans-serif" font-size="11" lengthAdjust="spacing" textLength="175.7529" x="752.9644" y="157.0737">What does the user want to do?</text><text fill="#000000" font-family="sans-serif" font-size="11" lengthAdjust="spacing" textLength="88.6338" x="652.3306" y="150.6714">Report lost item</text><text fill="#000000" font-family="sans-serif" font-size="11" lengthAdjust="spacing" textLength="130.2437" x="940.7173" y="150.6714">Browse existing reports</text><rect fill="#F1F1F1" height="33.9688" rx="12.5" ry="12.5" style="stroke:#181818;stroke-width:0.5;" width="167.6797" x="366.5967" y="175.2656"/><text fill="#000000" font-family="sans-serif" font-size="12" lengthAdjust="spacing" textLength="147.6797" x="376.5967" y="196.4043">Select 'Report Lost Item'</text><rect fill="#555555" height="6" rx="2.5" ry="2.5" style="stroke:#555555;stroke-width:1;" width="898.873" x="11" y="301.2344"/><rect fill="#F1F1F1" height="33.9688" rx="12.5" ry="12.5" style="stroke:#181818;stroke-width:0.5;" width="108.4473" x="23" y="357.3008"/><text fill="#000000" font-family="sans-serif" font-size="12" lengthAdjust="spacing" textLength="88.4473" x="33" y="378.4395">Select location</text><rect fill="#F1F1F1" height="33.9688" rx="12.5" ry="12.5" style="stroke:#181818;stroke-width:0.5;" width="175.9883" x="141.4473" y="357.3008"/><text fill="#000000" font-family="sans-serif" font-size="12" lengthAdjust="spacing" textLength="155.9883" x="151.4473" y="378.4395">Choose date of loss/found</text><rect fill="#F1F1F1" height="33.9688" rx="12.5" ry="12.5" style="stroke:#181818;stroke-width:0.5;" width="203.4805" x="345.4355" y="357.3008"/><text fill="#000000" font-family="sans-serif" font-size="12" lengthAdjust="spacing" textLength="183.4805" x="355.4355" y="378.4395">Provide item description (text)</text><path d="M618.6252,327.2344 L618.6252,352.3672 L694.5896,352.3672 L694.5896,337.2344 L684.5896,327.2344 L618.6252,327.2344" fill="#FEFFDD" style="stroke:#181818;stroke-width:0.5;"/><path d="M684.5896,327.2344 L684.5896,337.2344 L694.5896,337.2344 L684.5896,327.2344" fill="#FEFFDD" style="stroke:#181818;stroke-width:0.5;"/><text fill="#000000" font-family="sans-serif" font-size="13" lengthAdjust="spacing" textLength="54.9644" x="624.6252" y="344.3013">Optional</text><rect fill="#F1F1F1" height="33.9688" rx="12.5" ry="12.5" style="stroke:#181818;stroke-width:0.5;" width="159.3828" x="576.916" y="387.3672"/><text fill="#000000" font-family="sans-serif" font-size="12" lengthAdjust="spacing" textLength="139.3828" x="586.916" y="408.5059">Take or upload a photo</text><path d="M792.1038,327.2344 L792.1038,352.3672 L868.0681,352.3672 L868.0681,337.2344 L858.0681,327.2344 L792.1038,327.2344" fill="#FEFFDD" style="stroke:#181818;stroke-width:0.5;"/><path d="M858.0681,327.2344 L858.0681,337.2344 L868.0681,337.2344 L858.0681,327.2344" fill="#FEFFDD" style="stroke:#181818;stroke-width:0.5;"/><text fill="#000000" font-family="sans-serif" font-size="13" lengthAdjust="spacing" textLength="54.9644" x="798.1038" y="344.3013">Optional</text><rect fill="#F1F1F1" height="33.9688" rx="12.5" ry="12.5" style="stroke:#181818;stroke-width:0.5;" width="131.5742" x="764.2988" y="387.3672"/><text fill="#000000" font-family="sans-serif" font-size="12" lengthAdjust="spacing" textLength="111.5742" x="774.2988" y="408.5059">Add email address</text><rect fill="#555555" height="6" rx="2.5" ry="2.5" style="stroke:#555555;stroke-width:1;" width="898.873" x="11" y="441.3359"/><polygon fill="#F1F1F1" points="450.4365,229.2344,462.4365,241.2344,450.4365,253.2344,438.4365,241.2344,450.4365,229.2344" style="stroke:#181818;stroke-width:0.5;"/><polygon fill="#F1F1F1" points="356.061,485.1406,544.812,485.1406,556.812,497.1406,544.812,509.1406,356.061,509.1406,344.061,497.1406,356.061,485.1406" style="stroke:#181818;stroke-width:0.5;"/><text fill="#000000" font-family="sans-serif" font-size="11" lengthAdjust="spacing" textLength="19.0083" x="454.4365" y="519.3511">yes</text><text fill="#000000" font-family="sans-serif" font-size="11" lengthAdjust="spacing" textLength="188.751" x="356.061" y="500.9487">All required information provided?</text><text fill="#000000" font-family="sans-serif" font-size="11" lengthAdjust="spacing" textLength="13.7017" x="556.812" y="494.5464">no</text><rect fill="#F1F1F1" height="33.9688" rx="12.5" ry="12.5" style="stroke:#181818;stroke-width:0.5;" width="142.8418" x="379.0156" y="544.1406"/><text fill="#000000" font-family="sans-serif" font-size="12" lengthAdjust="spacing" textLength="122.8418" x="389.0156" y="565.2793">Check for duplicates</text><polygon fill="#F1F1F1" points="400.9365,613.1094,499.9365,613.1094,511.9365,625.1094,499.9365,637.1094,400.9365,637.1094,388.9365,625.1094,400.9365,613.1094" style="stroke:#181818;stroke-width:0.5;"/><text fill="#000000" font-family="sans-serif" font-size="11" lengthAdjust="spacing" textLength="99" x="400.9365" y="628.9175">Duplicates found?</text><text fill="#000000" font-family="sans-serif" font-size="11" lengthAdjust="spacing" textLength="19.0083" x="369.9282" y="622.5151">yes</text><text fill="#000000" font-family="sans-serif" font-size="11" lengthAdjust="spacing" textLength="13.7017" x="511.9365" y="622.5151">no</text><rect fill="#F1F1F1" height="33.9688" rx="12.5" ry="12.5" style="stroke:#181818;stroke-width:0.5;" width="170.9375" x="259.9271" y="647.1094"/><text fill="#000000" font-family="sans-serif" font-size="12" lengthAdjust="spacing" textLength="150.9375" x="269.9271" y="668.248">Show possible duplicates</text><polygon fill="#F1F1F1" points="289.7325,716.0781,401.0592,716.0781,413.0592,728.0781,401.0592,740.0781,289.7325,740.0781,277.7325,728.0781,289.7325,716.0781" style="stroke:#181818;stroke-width:0.5;"/><text fill="#000000" font-family="sans-serif" font-size="11" lengthAdjust="spacing" textLength="111.3267" x="289.7325" y="731.8862">User forces publish?</text><text fill="#000000" font-family="sans-serif" font-size="11" lengthAdjust="spacing" textLength="19.0083" x="258.7242" y="725.4839">yes</text><text fill="#000000" font-family="sans-serif" font-size="11" lengthAdjust="spacing" textLength="13.7017" x="413.0592" y="725.4839">no</text><rect fill="#F1F1F1" height="33.9688" rx="12.5" ry="12.5" style="stroke:#181818;stroke-width:0.5;" width="100.3379" x="217.5636" y="750.0781"/><text fill="#000000" font-family="sans-serif" font-size="12" lengthAdjust="spacing" textLength="80.3379" x="227.5636" y="771.2168">Force publish</text><rect fill="#F1F1F1" height="33.9688" rx="12.5" ry="12.5" style="stroke:#181818;stroke-width:0.5;" width="141.8516" x="352.1334" y="750.0781"/><text fill="#000000" font-family="sans-serif" font-size="12" lengthAdjust="spacing" textLength="121.8516" x="362.1334" y="771.2168">User discards report</text><ellipse cx="423.0592" cy="830.0469" fill="none" rx="11" ry="11" style="stroke:#222222;stroke-width:1;"/><ellipse cx="423.0592" cy="830.0469" fill="#222222" rx="6" ry="6" style="stroke:#222222;stroke-width:1;"/><rect fill="#F1F1F1" height="33.9688" rx="12.5" ry="12.5" style="stroke:#181818;stroke-width:0.5;" width="62.9844" x="523.985" y="647.1094"/><text fill="#000000" font-family="sans-serif" font-size="12" lengthAdjust="spacing" textLength="42.9844" x="533.985" y="668.248">Publish</text><polygon fill="#F1F1F1" points="450.4365,853.0469,462.4365,865.0469,450.4365,877.0469,438.4365,865.0469,450.4365,853.0469" style="stroke:#181818;stroke-width:0.5;"/><rect fill="#F1F1F1" height="33.9688" rx="12.5" ry="12.5" style="stroke:#181818;stroke-width:0.5;" width="155.1289" x="372.8721" y="912.0469"/><text fill="#000000" font-family="sans-serif" font-size="12" lengthAdjust="spacing" textLength="135.1289" x="382.8721" y="933.1855">Create database entry</text><rect fill="#F1F1F1" height="33.9688" rx="12.5" ry="12.5" style="stroke:#181818;stroke-width:0.5;" width="235.0508" x="332.9111" y="972.2656"/><text fill="#000000" font-family="sans-serif" font-size="12" lengthAdjust="spacing" textLength="215.0508" x="342.9111" y="993.4043">Display report in "Lost &amp; Found" list</text><ellipse cx="450.4365" cy="1037.2344" fill="none" rx="11" ry="11" style="stroke:#222222;stroke-width:1;"/><ellipse cx="450.4365" cy="1037.2344" fill="#222222" rx="6" ry="6" style="stroke:#222222;stroke-width:1;"/><rect fill="#F1F1F1" height="33.9688" rx="12.5" ry="12.5" style="stroke:#181818;stroke-width:0.5;" width="129.0488" x="1166.7207" y="175.2656"/><text fill="#000000" font-family="sans-serif" font-size="12" lengthAdjust="spacing" textLength="109.0488" x="1176.7207" y="196.4043">Display all reports</text><polygon fill="#F1F1F1" points="1176.9756,229.2344,1285.5146,229.2344,1297.5146,241.2344,1285.5146,253.2344,1176.9756,253.2344,1164.9756,241.2344,1176.9756,229.2344" style="stroke:#181818;stroke-width:0.5;"/><text fill="#000000" font-family="sans-serif" font-size="11" lengthAdjust="spacing" textLength="108.5391" x="1176.9756" y="245.0425">User applies filters?</text><text fill="#000000" font-family="sans-serif" font-size="11" lengthAdjust="spacing" textLength="19.0083" x="1145.9673" y="238.6401">yes</text><text fill="#000000" font-family="sans-serif" font-size="11" lengthAdjust="spacing" textLength="13.7017" x="1297.5146" y="238.6401">no</text><rect fill="#F1F1F1" height="33.9688" rx="12.5" ry="12.5" style="stroke:#181818;stroke-width:0.5;" width="297.9102" x="963.873" y="263.2344"/><text fill="#000000" font-family="sans-serif" font-size="12" lengthAdjust="spacing" textLength="277.9102" x="973.873" y="284.373">Apply selected filters (category, location, etc.)</text><rect fill="#F1F1F1" height="33.9688" rx="12.5" ry="12.5" style="stroke:#181818;stroke-width:0.5;" width="135.7578" x="1281.7832" y="263.2344"/><text fill="#000000" font-family="sans-serif" font-size="12" lengthAdjust="spacing" textLength="115.7578" x="1291.7832" y="284.373">Show unfiltered list</text><polygon fill="#F1F1F1" points="1231.2451,303.2031,1243.2451,315.2031,1231.2451,327.2031,1219.2451,315.2031,1231.2451,303.2031" style="stroke:#181818;stroke-width:0.5;"/><rect fill="#F1F1F1" height="33.9688" rx="12.5" ry="12.5" style="stroke:#181818;stroke-width:0.5;" width="144.9688" x="1158.7607" y="362.2031"/><text fill="#000000" font-family="sans-serif" font-size="12" lengthAdjust="spacing" textLength="124.9688" x="1168.7607" y="383.3418">User selects a report</text><rect fill="#F1F1F1" height="33.9688" rx="12.5" ry="12.5" style="stroke:#181818;stroke-width:0.5;" width="148.7539" x="1156.8682" y="431.1719"/><text fill="#000000" font-family="sans-serif" font-size="12" lengthAdjust="spacing" textLength="128.7539" x="1166.8682" y="452.3105">Display report details</text><rect fill="#F1F1F1" height="33.9688" rx="12.5" ry="12.5" style="stroke:#181818;stroke-width:0.5;" width="269.0176" x="1096.7363" y="586.75"/><text fill="#000000" font-family="sans-serif" font-size="12" lengthAdjust="spacing" textLength="249.0176" x="1106.7363" y="607.8887">Open email client with recipient pre-filled</text><polygon fill="#F1F1F1" points="1175.6355,538.3477,1286.8547,538.3477,1298.8547,550.3477,1286.8547,562.3477,1175.6355,562.3477,1163.6355,550.3477,1175.6355,538.3477" style="stroke:#181818;stroke-width:0.5;"/><text fill="#000000" font-family="sans-serif" font-size="11" lengthAdjust="spacing" textLength="38.3281" x="1235.2451" y="572.5581">clicked</text><text fill="#000000" font-family="sans-serif" font-size="11" lengthAdjust="spacing" textLength="111.2192" x="1175.6355" y="554.1558">User clicks 'Contact'</text><polygon fill="#F1F1F1" points="1231.2451,645.1211,1243.2451,657.1211,1231.2451,669.1211,1219.2451,657.1211,1231.2451,645.1211" style="stroke:#181818;stroke-width:0.5;"/><polygon fill="#F1F1F1" points="1164.7563,489.9453,1297.7339,489.9453,1309.7339,501.9453,1297.7339,513.9453,1164.7563,513.9453,1152.7563,501.9453,1164.7563,489.9453" style="stroke:#181818;stroke-width:0.5;"/><text fill="#000000" font-family="sans-serif" font-size="11" lengthAdjust="spacing" textLength="19.0083" x="1235.2451" y="524.1558">yes</text><text fill="#000000" font-family="sans-serif" font-size="11" lengthAdjust="spacing" textLength="132.9775" x="1164.7563" y="505.7534">Creator provided email?</text><polygon fill="#F1F1F1" points="1231.2451,693.5234,1243.2451,705.5234,1231.2451,717.5234,1219.2451,705.5234,1231.2451,693.5234" style="stroke:#181818;stroke-width:0.5;"/><rect fill="#F1F1F1" height="33.9688" rx="12.5" ry="12.5" style="stroke:#181818;stroke-width:0.5;" width="191.6094" x="1135.4404" y="800.9258"/><text fill="#000000" font-family="sans-serif" font-size="12" lengthAdjust="spacing" textLength="171.6094" x="1145.4404" y="822.0645">Delete report from database</text><rect fill="#F1F1F1" height="33.9688" rx="12.5" ry="12.5" style="stroke:#181818;stroke-width:0.5;" width="122.6797" x="1169.9053" y="869.8945"/><text fill="#000000" font-family="sans-serif" font-size="12" lengthAdjust="spacing" textLength="102.6797" x="1179.9053" y="891.0332">Remove from list</text><polygon fill="#F1F1F1" points="1178.4392,752.5234,1284.051,752.5234,1296.051,764.5234,1284.051,776.5234,1178.4392,776.5234,1166.4392,764.5234,1178.4392,752.5234" style="stroke:#181818;stroke-width:0.5;"/><text fill="#000000" font-family="sans-serif" font-size="11" lengthAdjust="spacing" textLength="19.0083" x="1235.2451" y="786.7339">yes</text><text fill="#000000" font-family="sans-serif" font-size="11" lengthAdjust="spacing" textLength="105.6118" x="1178.4392" y="768.3315">User clicks 'Return'</text><text fill="#000000" font-family="sans-serif" font-size="11" lengthAdjust="spacing" textLength="13.7017" x="1296.051" y="761.9292">no</text><polygon fill="#F1F1F1" points="1231.2451,928.2656,1243.2451,940.2656,1231.2451,952.2656,1219.2451,940.2656,1231.2451,928.2656" style="stroke:#181818;stroke-width:0.5;"/><ellipse cx="840.8408" cy="1079.2344" fill="none" rx="11" ry="11" style="stroke:#222222;stroke-width:1;"/><ellipse cx="840.8408" cy="1079.2344" fill="#222222" rx="6" ry="6" style="stroke:#222222;stroke-width:1;"/><line style="stroke:#181818;stroke-width:1;" x1="840.8408" x2="840.8408" y1="67.2969" y2="87.2969"/><polygon fill="#181818" points="836.8408,77.2969,840.8408,87.2969,844.8408,77.2969,840.8408,81.2969" style="stroke:#181818;stroke-width:1;"/><line style="stroke:#181818;stroke-width:1;" x1="656.6074" x2="656.6074" y1="352.3672" y2="387.3672"/><polygon fill="#181818" points="652.6074,377.3672,656.6074,387.3672,660.6074,377.3672,656.6074,381.3672" style="stroke:#181818;stroke-width:1;"/><line style="stroke:#181818;stroke-width:1;" x1="830.0859" x2="830.0859" y1="352.3672" y2="387.3672"/><polygon fill="#181818" points="826.0859,377.3672,830.0859,387.3672,834.0859,377.3672,830.0859,381.3672" style="stroke:#181818;stroke-width:1;"/><line style="stroke:#181818;stroke-width:1;" x1="77.2236" x2="77.2236" y1="307.2344" y2="357.3008"/><polygon fill="#181818" points="73.2236,347.3008,77.2236,357.3008,81.2236,347.3008,77.2236,351.3008" style="stroke:#181818;stroke-width:1;"/><line style="stroke:#181818;stroke-width:1;" x1="229.4414" x2="229.4414" y1="307.2344" y2="357.3008"/><polygon fill="#181818" points="225.4414,347.3008,229.4414,357.3008,233.4414,347.3008,229.4414,351.3008" style="stroke:#181818;stroke-width:1;"/><line style="stroke:#181818;stroke-width:1;" x1="447.1758" x2="447.1758" y1="307.2344" y2="357.3008"/><polygon fill="#181818" points="443.1758,347.3008,447.1758,357.3008,451.1758,347.3008,447.1758,351.3008" style="stroke:#181818;stroke-width:1;"/><line style="stroke:#181818;stroke-width:1;" x1="656.6074" x2="656.6074" y1="307.2344" y2="327.2344"/><polygon fill="#181818" points="652.6074,317.2344,656.6074,327.2344,660.6074,317.2344,656.6074,321.2344" style="stroke:#181818;stroke-width:1;"/><line style="stroke:#181818;stroke-width:1;" x1="830.0859" x2="830.0859" y1="307.2344" y2="327.2344"/><polygon fill="#181818" points="826.0859,317.2344,830.0859,327.2344,834.0859,317.2344,830.0859,321.2344" style="stroke:#181818;stroke-width:1;"/><line style="stroke:#181818;stroke-width:1;" x1="77.2236" x2="77.2236" y1="391.2695" y2="441.3359"/><polygon fill="#181818" points="73.2236,431.3359,77.2236,441.3359,81.2236,431.3359,77.2236,435.3359" style="stroke:#181818;stroke-width:1;"/><line style="stroke:#181818;stroke-width:1;" x1="229.4414" x2="229.4414" y1="391.2695" y2="441.3359"/><polygon fill="#181818" points="225.4414,431.3359,229.4414,441.3359,233.4414,431.3359,229.4414,435.3359" style="stroke:#181818;stroke-width:1;"/><line style="stroke:#181818;stroke-width:1;" x1="447.1758" x2="447.1758" y1="391.2695" y2="441.3359"/><polygon fill="#181818" points="443.1758,431.3359,447.1758,441.3359,451.1758,431.3359,447.1758,435.3359" style="stroke:#181818;stroke-width:1;"/><line style="stroke:#181818;stroke-width:1;" x1="656.6074" x2="656.6074" y1="421.3359" y2="441.3359"/><polygon fill="#181818" points="652.6074,431.3359,656.6074,441.3359,660.6074,431.3359,656.6074,435.3359" style="stroke:#181818;stroke-width:1;"/><line style="stroke:#181818;stroke-width:1;" x1="830.0859" x2="830.0859" y1="421.3359" y2="441.3359"/><polygon fill="#181818" points="826.0859,431.3359,830.0859,441.3359,834.0859,431.3359,830.0859,435.3359" style="stroke:#181818;stroke-width:1;"/><line style="stroke:#181818;stroke-width:1;" x1="450.4365" x2="450.4365" y1="253.2344" y2="301.2344"/><polygon fill="#181818" points="446.4365,291.2344,450.4365,301.2344,454.4365,291.2344,450.4365,295.2344" style="stroke:#181818;stroke-width:1;"/><line style="stroke:#181818;stroke-width:1;" x1="556.812" x2="921.873" y1="497.1406" y2="497.1406"/><polygon fill="#181818" points="917.873,384.2852,921.873,374.2852,925.873,384.2852,921.873,380.2852" style="stroke:#181818;stroke-width:1;"/><line style="stroke:#181818;stroke-width:1;" x1="921.873" x2="921.873" y1="241.2344" y2="497.1406"/><line style="stroke:#181818;stroke-width:1;" x1="921.873" x2="462.4365" y1="241.2344" y2="241.2344"/><polygon fill="#181818" points="472.4365,237.2344,462.4365,241.2344,472.4365,245.2344,468.4365,241.2344" style="stroke:#181818;stroke-width:1;"/><line style="stroke:#181818;stroke-width:1;" x1="450.4365" x2="450.4365" y1="447.3359" y2="485.1406"/><polygon fill="#181818" points="446.4365,475.1406,450.4365,485.1406,454.4365,475.1406,450.4365,479.1406" style="stroke:#181818;stroke-width:1;"/><line style="stroke:#181818;stroke-width:1;" x1="450.4365" x2="450.4365" y1="209.2344" y2="229.2344"/><polygon fill="#181818" points="446.4365,219.2344,450.4365,229.2344,454.4365,219.2344,450.4365,223.2344" style="stroke:#181818;stroke-width:1;"/><line style="stroke:#181818;stroke-width:1;" x1="450.4365" x2="450.4365" y1="509.1406" y2="544.1406"/><polygon fill="#181818" points="446.4365,534.1406,450.4365,544.1406,454.4365,534.1406,450.4365,538.1406" style="stroke:#181818;stroke-width:1;"/><line style="stroke:#181818;stroke-width:1;" x1="423.0592" x2="423.0592" y1="784.0469" y2="819.0469"/><polygon fill="#181818" points="419.0592,809.0469,423.0592,819.0469,427.0592,809.0469,423.0592,813.0469" style="stroke:#181818;stroke-width:1;"/><line style="stroke:#181818;stroke-width:1;" x1="277.7325" x2="267.7325" y1="728.0781" y2="728.0781"/><line style="stroke:#181818;stroke-width:1;" x1="267.7325" x2="267.7325" y1="728.0781" y2="750.0781"/><polygon fill="#181818" points="263.7325,740.0781,267.7325,750.0781,271.7325,740.0781,267.7325,744.0781" style="stroke:#181818;stroke-width:1;"/><line style="stroke:#181818;stroke-width:1;" x1="413.0592" x2="423.0592" y1="728.0781" y2="728.0781"/><line style="stroke:#181818;stroke-width:1;" x1="423.0592" x2="423.0592" y1="728.0781" y2="750.0781"/><polygon fill="#181818" points="419.0592,740.0781,423.0592,750.0781,427.0592,740.0781,423.0592,744.0781" style="stroke:#181818;stroke-width:1;"/><line style="stroke:#181818;stroke-width:1;" x1="267.7325" x2="267.7325" y1="784.0469" y2="865.0469"/><line style="stroke:#181818;stroke-width:1;" x1="267.7325" x2="438.4365" y1="865.0469" y2="865.0469"/><polygon fill="#181818" points="428.4365,861.0469,438.4365,865.0469,428.4365,869.0469,432.4365,865.0469" style="stroke:#181818;stroke-width:1;"/><line style="stroke:#181818;stroke-width:1;" x1="345.3959" x2="345.3959" y1="681.0781" y2="716.0781"/><polygon fill="#181818" points="341.3959,706.0781,345.3959,716.0781,349.3959,706.0781,345.3959,710.0781" style="stroke:#181818;stroke-width:1;"/><line style="stroke:#181818;stroke-width:1;" x1="388.9365" x2="345.3959" y1="625.1094" y2="625.1094"/><line style="stroke:#181818;stroke-width:1;" x1="345.3959" x2="345.3959" y1="625.1094" y2="647.1094"/><polygon fill="#181818" points="341.3959,637.1094,345.3959,647.1094,349.3959,637.1094,345.3959,641.1094" style="stroke:#181818;stroke-width:1;"/><line style="stroke:#181818;stroke-width:1;" x1="511.9365" x2="555.4772" y1="625.1094" y2="625.1094"/><line style="stroke:#181818;stroke-width:1;" x1="555.4772" x2="555.4772" y1="625.1094" y2="647.1094"/><polygon fill="#181818" points="551.4772,637.1094,555.4772,647.1094,559.4772,637.1094,555.4772,641.1094" style="stroke:#181818;stroke-width:1;"/><line style="stroke:#181818;stroke-width:1;" x1="555.4772" x2="555.4772" y1="681.0781" y2="865.0469"/><line style="stroke:#181818;stroke-width:1;" x1="555.4772" x2="462.4365" y1="865.0469" y2="865.0469"/><polygon fill="#181818" points="472.4365,861.0469,462.4365,865.0469,472.4365,869.0469,468.4365,865.0469" style="stroke:#181818;stroke-width:1;"/><line style="stroke:#181818;stroke-width:1;" x1="450.4365" x2="450.4365" y1="578.1094" y2="613.1094"/><polygon fill="#181818" points="446.4365,603.1094,450.4365,613.1094,454.4365,603.1094,450.4365,607.1094" style="stroke:#181818;stroke-width:1;"/><line style="stroke:#181818;stroke-width:1;" x1="450.4365" x2="450.4365" y1="877.0469" y2="912.0469"/><polygon fill="#181818" points="446.4365,902.0469,450.4365,912.0469,454.4365,902.0469,450.4365,906.0469" style="stroke:#181818;stroke-width:1;"/><line style="stroke:#181818;stroke-width:1;" x1="450.4365" x2="450.4365" y1="946.0156" y2="972.2656"/><polygon fill="#181818" points="446.4365,962.2656,450.4365,972.2656,454.4365,962.2656,450.4365,966.2656" style="stroke:#181818;stroke-width:1;"/><line style="stroke:#181818;stroke-width:1;" x1="450.4365" x2="450.4365" y1="1006.2344" y2="1026.2344"/><polygon fill="#181818" points="446.4365,1016.2344,450.4365,1026.2344,454.4365,1016.2344,450.4365,1020.2344" style="stroke:#181818;stroke-width:1;"/><line style="stroke:#181818;stroke-width:1;" x1="1164.9756" x2="1112.8281" y1="241.2344" y2="241.2344"/><line style="stroke:#181818;stroke-width:1;" x1="1112.8281" x2="1112.8281" y1="241.2344" y2="263.2344"/><polygon fill="#181818" points="1108.8281,253.2344,1112.8281,263.2344,1116.8281,253.2344,1112.8281,257.2344" style="stroke:#181818;stroke-width:1;"/><line style="stroke:#181818;stroke-width:1;" x1="1297.5146" x2="1349.6621" y1="241.2344" y2="241.2344"/><line style="stroke:#181818;stroke-width:1;" x1="1349.6621" x2="1349.6621" y1="241.2344" y2="263.2344"/><polygon fill="#181818" points="1345.6621,253.2344,1349.6621,263.2344,1353.6621,253.2344,1349.6621,257.2344" style="stroke:#181818;stroke-width:1;"/><line style="stroke:#181818;stroke-width:1;" x1="1112.8281" x2="1112.8281" y1="297.2031" y2="315.2031"/><line style="stroke:#181818;stroke-width:1;" x1="1112.8281" x2="1219.2451" y1="315.2031" y2="315.2031"/><polygon fill="#181818" points="1209.2451,311.2031,1219.2451,315.2031,1209.2451,319.2031,1213.2451,315.2031" style="stroke:#181818;stroke-width:1;"/><line style="stroke:#181818;stroke-width:1;" x1="1349.6621" x2="1349.6621" y1="297.2031" y2="315.2031"/><line style="stroke:#181818;stroke-width:1;" x1="1349.6621" x2="1243.2451" y1="315.2031" y2="315.2031"/><polygon fill="#181818" points="1253.2451,311.2031,1243.2451,315.2031,1253.2451,319.2031,1249.2451,315.2031" style="stroke:#181818;stroke-width:1;"/><line style="stroke:#181818;stroke-width:1;" x1="1231.2451" x2="1231.2451" y1="209.2344" y2="229.2344"/><polygon fill="#181818" points="1227.2451,219.2344,1231.2451,229.2344,1235.2451,219.2344,1231.2451,223.2344" style="stroke:#181818;stroke-width:1;"/><line style="stroke:#181818;stroke-width:1;" x1="1231.2451" x2="1231.2451" y1="327.2031" y2="362.2031"/><polygon fill="#181818" points="1227.2451,352.2031,1231.2451,362.2031,1235.2451,352.2031,1231.2451,356.2031" style="stroke:#181818;stroke-width:1;"/><line style="stroke:#181818;stroke-width:1;" x1="1231.2451" x2="1231.2451" y1="396.1719" y2="431.1719"/><polygon fill="#181818" points="1227.2451,421.1719,1231.2451,431.1719,1235.2451,421.1719,1231.2451,425.1719" style="stroke:#181818;stroke-width:1;"/><line style="stroke:#181818;stroke-width:1;" x1="1231.2451" x2="1231.2451" y1="562.3477" y2="586.75"/><polygon fill="#181818" points="1227.2451,576.75,1231.2451,586.75,1235.2451,576.75,1231.2451,580.75" style="stroke:#181818;stroke-width:1;"/><line style="stroke:#181818;stroke-width:1;" x1="1298.8547" x2="1375.7539" y1="550.3477" y2="550.3477"/><polygon fill="#181818" points="1371.7539,593.7344,1375.7539,603.7344,1379.7539,593.7344,1375.7539,597.7344" style="stroke:#181818;stroke-width:1;"/><line style="stroke:#181818;stroke-width:1;" x1="1375.7539" x2="1375.7539" y1="550.3477" y2="657.1211"/><line style="stroke:#181818;stroke-width:1;" x1="1375.7539" x2="1243.2451" y1="657.1211" y2="657.1211"/><polygon fill="#181818" points="1253.2451,653.1211,1243.2451,657.1211,1253.2451,661.1211,1249.2451,657.1211" style="stroke:#181818;stroke-width:1;"/><line style="stroke:#181818;stroke-width:1;" x1="1231.2451" x2="1231.2451" y1="620.7188" y2="645.1211"/><polygon fill="#181818" points="1227.2451,635.1211,1231.2451,645.1211,1235.2451,635.1211,1231.2451,639.1211" style="stroke:#181818;stroke-width:1;"/><line style="stroke:#181818;stroke-width:1;" x1="1231.2451" x2="1231.2451" y1="513.9453" y2="538.3477"/><polygon fill="#181818" points="1227.2451,528.3477,1231.2451,538.3477,1235.2451,528.3477,1231.2451,532.3477" style="stroke:#181818;stroke-width:1;"/><line style="stroke:#181818;stroke-width:1;" x1="1309.7339" x2="1397.7539" y1="501.9453" y2="501.9453"/><polygon fill="#181818" points="1393.7539,593.7344,1397.7539,603.7344,1401.7539,593.7344,1397.7539,597.7344" style="stroke:#181818;stroke-width:1;"/><line style="stroke:#181818;stroke-width:1;" x1="1397.7539" x2="1397.7539" y1="501.9453" y2="705.5234"/><line style="stroke:#181818;stroke-width:1;" x1="1397.7539" x2="1243.2451" y1="705.5234" y2="705.5234"/><polygon fill="#181818" points="1253.2451,701.5234,1243.2451,705.5234,1253.2451,709.5234,1249.2451,705.5234" style="stroke:#181818;stroke-width:1;"/><line style="stroke:#181818;stroke-width:1;" x1="1231.2451" x2="1231.2451" y1="669.1211" y2="693.5234"/><polygon fill="#181818" points="1227.2451,683.5234,1231.2451,693.5234,1235.2451,683.5234,1231.2451,687.5234" style="stroke:#181818;stroke-width:1;"/><line style="stroke:#181818;stroke-width:1;" x1="1231.2451" x2="1231.2451" y1="465.1406" y2="489.9453"/><polygon fill="#181818" points="1227.2451,479.9453,1231.2451,489.9453,1235.2451,479.9453,1231.2451,483.9453" style="stroke:#181818;stroke-width:1;"/><line style="stroke:#181818;stroke-width:1;" x1="1231.2451" x2="1231.2451" y1="834.8945" y2="869.8945"/><polygon fill="#181818" points="1227.2451,859.8945,1231.2451,869.8945,1235.2451,859.8945,1231.2451,863.8945" style="stroke:#181818;stroke-width:1;"/><line style="stroke:#181818;stroke-width:1;" x1="1231.2451" x2="1231.2451" y1="776.5234" y2="800.9258"/><polygon fill="#181818" points="1227.2451,790.9258,1231.2451,800.9258,1235.2451,790.9258,1231.2451,794.9258" style="stroke:#181818;stroke-width:1;"/><line style="stroke:#181818;stroke-width:1;" x1="1296.051" x2="1337.0498" y1="764.5234" y2="764.5234"/><polygon fill="#181818" points="1333.0498,842.3945,1337.0498,852.3945,1341.0498,842.3945,1337.0498,846.3945" style="stroke:#181818;stroke-width:1;"/><line style="stroke:#181818;stroke-width:1;" x1="1337.0498" x2="1337.0498" y1="764.5234" y2="940.2656"/><line style="stroke:#181818;stroke-width:1;" x1="1337.0498" x2="1243.2451" y1="940.2656" y2="940.2656"/><polygon fill="#181818" points="1253.2451,936.2656,1243.2451,940.2656,1253.2451,944.2656,1249.2451,940.2656" style="stroke:#181818;stroke-width:1;"/><line style="stroke:#181818;stroke-width:1;" x1="1231.2451" x2="1231.2451" y1="903.8633" y2="928.2656"/><polygon fill="#181818" points="1227.2451,918.2656,1231.2451,928.2656,1235.2451,918.2656,1231.2451,922.2656" style="stroke:#181818;stroke-width:1;"/><line style="stroke:#181818;stroke-width:1;" x1="1231.2451" x2="1231.2451" y1="717.5234" y2="752.5234"/><polygon fill="#181818" points="1227.2451,742.5234,1231.2451,752.5234,1235.2451,742.5234,1231.2451,746.5234" style="stroke:#181818;stroke-width:1;"/><line style="stroke:#181818;stroke-width:1;" x1="740.9644" x2="450.4365" y1="153.2656" y2="153.2656"/><line style="stroke:#181818;stroke-width:1;" x1="450.4365" x2="450.4365" y1="153.2656" y2="175.2656"/><polygon fill="#181818" points="446.4365,165.2656,450.4365,175.2656,454.4365,165.2656,450.4365,169.2656" style="stroke:#181818;stroke-width:1;"/><line style="stroke:#181818;stroke-width:1;" x1="940.7173" x2="1231.2451" y1="153.2656" y2="153.2656"/><line style="stroke:#181818;stroke-width:1;" x1="1231.2451" x2="1231.2451" y1="153.2656" y2="175.2656"/><polygon fill="#181818" points="1227.2451,165.2656,1231.2451,175.2656,1235.2451,165.2656,1231.2451,169.2656" style="stroke:#181818;stroke-width:1;"/><line style="stroke:#181818;stroke-width:1;" x1="1231.2451" x2="1231.2451" y1="952.2656" y2="1053.2344"/><line style="stroke:#181818;stroke-width:1;" x1="1231.2451" x2="840.8408" y1="1053.2344" y2="1053.2344"/><line style="stroke:#181818;stroke-width:1;" x1="840.8408" x2="840.8408" y1="1053.2344" y2="1068.2344"/><polygon fill="#181818" points="836.8408,1058.2344,840.8408,1068.2344,844.8408,1058.2344,840.8408,1062.2344" style="stroke:#181818;stroke-width:1;"/><line style="stroke:#181818;stroke-width:1;" x1="840.8408" x2="840.8408" y1="121.2656" y2="141.2656"/><polygon fill="#181818" points="836.8408,131.2656,840.8408,141.2656,844.8408,131.2656,840.8408,135.2656" style="stroke:#181818;stroke-width:1;"/><!--SRC=[dLHDSzem4BtxL-paKCXCsjxDT3eE7orJWXdZ36TXBLY3iLnf7SA_xqh-W49pQIu1QVSzxNjl8KK5GfIHUbDqXeaIUoEE8Ioq9VW4CrsN4bQ5e9qsno2m90m5GHXNMCACxseB9znQHJWAWW5yQ_xW9PelOJ8TpzVpU1d2vcUKmYIUhk5rFKrW4otJxrrje7OmtEI2G6gqG3b2RT70IPG4fFdq-wCxBM6OOAKDGU7Unep7no00k90kudKAytJw0ibq5ISfp1RnfgS12DTOO4OmQ77yZ7F66OmSaC4A1RbF03pjmN-uT1Kw4wHqEUeBGEo5AhkoSQwrHP224FJEFT9-tJdvFcfO6Vsc9Ff9GABDZAeS0Gm9t-dnWxPICxvH-vn2Y7szA3h4L1oOsq1T5Lf8453bclH_04LI0Xw5Aa18QT3Q1WCv2rwPNYquvOhpCuoAWaz-rygW15Mwi7Yne6g6bEoXiZ0izQCZXk4PhNUFPSFiu511yhCLQupMs-5YCUcFm4lP9y6tD-xa-WGLYwss_90RZ0RbrSM96JA6gUfjeMn-3yHGCrVILRGJ5sofUtLNux6aifamqZeHE4YZzjAIhZgTrCxn_zqUhYxGVKauDkWYmxaHMy7bM98vkv9mecnLY7FBmhB2m_LQFW23aP_JCmT1G_TizCdXlFEjAlTjkxrPbkSatgpdonztIzAn2c-fR-tzyDEBYZLsZgY2qDX_U19nnHcitnlEGri8GsVCNflpKxzCJu2KVV5Plz7A-rgNJI-3DBDU2-SVqv1Oplh5YrlX9197kPdY8i0uNgRHE8KuuL-hv1T4QpvQBARZT3gvqiEDxItYX7PXRdRZVl1Ueen3UB0m6EkIH4Q3hjAVe-pJv7z6cqNZAtOUJefoVdUcAl-rClYP9IXGZgwITQN27MM2L9joS6_AX9Lo6zzeiZFws6UkmGuJFEetRAvwkQzSQKdRVovpVm00]--></g></svg>