<svg xmlns="http://www.w3.org/2000/svg" xmlns:xlink="http://www.w3.org/1999/xlink" contentStyleType="text/css" data-diagram-type="DESCRIPTION" height="662px" preserveAspectRatio="none" style="width:2707px;height:662px;background:#FFFFFF;" version="1.1" viewBox="0 0 2707 662" width="2707px" zoomAndPan="magnify"><defs/><g><!--cluster Lost & Found System--><g class="cluster" data-entity="Lost . Found System" data-source-line="8" data-uid="ent0006" id="cluster_Lost . Found System"><path d="M116.53,6 L285.3796,6 A3.75,3.75 0 0 1 287.8796,8.5 L294.8796,28.2969 L2480.15,28.2969 A2.5,2.5 0 0 1 2482.65,30.7969 L2482.65,396.5 A2.5,2.5 0 0 1 2480.15,399 L116.53,399 A2.5,2.5 0 0 1 114.03,396.5 L114.03,8.5 A2.5,2.5 0 0 1 116.53,6" fill="none" style="stroke:#000000;stroke-width:1.5;"/><line style="stroke:#000000;stroke-width:1.5;" x1="114.03" x2="294.8796" y1="28.2969" y2="28.2969"/><text fill="#000000" font-family="sans-serif" font-size="14" font-weight="bold" lengthAdjust="spacing" textLength="167.8496" x="118.03" y="20.9951">Lost &amp; Found System</text></g><!--entity UC1--><g class="entity" data-entity="UC1" data-source-line="9" data-uid="ent0007" id="entity_UC1"><ellipse cx="294.916" cy="249.0012" fill="#F1F1F1" rx="131.206" ry="28.6412" style="stroke:#181818;stroke-width:0.5;"/><text fill="#000000" font-family="sans-serif" font-size="14" lengthAdjust="spacing" textLength="243.1201" x="173.3559" y="253.6496">Verlustmeldung anonym aufgeben</text></g><!--entity UC13--><g class="entity" data-entity="UC13" data-source-line="10" data-uid="ent0008" id="entity_UC13"><ellipse cx="294.9234" cy="65.0047" fill="#F1F1F1" rx="110.1234" ry="24.4247" style="stroke:#181818;stroke-width:0.5;"/><text fill="#000000" font-family="sans-serif" font-size="14" lengthAdjust="spacing" textLength="198.1465" x="195.8502" y="69.6531">Neue Fundmeldung anlegen</text></g><!--entity UC2--><g class="entity" data-entity="UC2" data-source-line="11" data-uid="ent0009" id="entity_UC2"><ellipse cx="616.3714" cy="249.0043" fill="#F1F1F1" rx="96.5714" ry="21.7143" style="stroke:#181818;stroke-width:0.5;"/><text fill="#000000" font-family="sans-serif" font-size="14" lengthAdjust="spacing" textLength="168.4717" x="532.1355" y="253.6527">Informationen eingeben</text></g><!--entity UC6--><g class="entity" data-entity="UC6" data-source-line="12" data-uid="ent0010" id="entity_UC6"><ellipse cx="1478.6987" cy="176.0017" fill="#F1F1F1" rx="81.0087" ry="18.6017" style="stroke:#181818;stroke-width:0.5;"/><text fill="#000000" font-family="sans-serif" font-size="14" lengthAdjust="spacing" textLength="133.0479" x="1412.1748" y="180.6502">Meldung speichern</text></g><!--entity UC7--><g class="entity" data-entity="UC7" data-source-line="13" data-uid="ent0011" id="entity_UC7"><ellipse cx="1795.7485" cy="226.0017" fill="#F1F1F1" rx="97.4585" ry="21.8917" style="stroke:#181818;stroke-width:0.5;"/><text fill="#000000" font-family="sans-serif" font-size="14" lengthAdjust="spacing" textLength="170.4404" x="1710.5283" y="230.6501">Meldung ver&#246;ffentlichen</text></g><!--entity UC8--><g class="entity" data-entity="UC8" data-source-line="14" data-uid="ent0012" id="entity_UC8"><ellipse cx="881.6457" cy="252.0011" fill="#F1F1F1" rx="108.7057" ry="24.1411" style="stroke:#181818;stroke-width:0.5;"/><text fill="#000000" font-family="sans-serif" font-size="14" lengthAdjust="spacing" textLength="195.0771" x="784.1071" y="256.6496">Eingaben validieren (Client)</text></g><!--entity UC9--><g class="entity" data-entity="UC9" data-source-line="15" data-uid="ent0013" id="entity_UC9"><ellipse cx="1161.5528" cy="257.9986" fill="#F1F1F1" rx="111.1928" ry="24.6386" style="stroke:#181818;stroke-width:0.5;"/><text fill="#000000" font-family="sans-serif" font-size="14" lengthAdjust="spacing" textLength="200.457" x="1061.3243" y="262.647">Eingaben validieren (Server)</text></g><!--entity UC10--><g class="entity" data-entity="UC10" data-source-line="16" data-uid="ent0014" id="entity_UC10"><ellipse cx="1478.7016" cy="261.0023" fill="#F1F1F1" rx="145.9616" ry="31.5923" style="stroke:#181818;stroke-width:0.5;"/><text fill="#000000" font-family="sans-serif" font-size="14" lengthAdjust="spacing" textLength="274.0664" x="1341.6684" y="265.6508">Verst&#228;ndliche Fehlermeldung anzeigen</text></g><!--entity UC11--><g class="entity" data-entity="UC11" data-source-line="17" data-uid="ent0015" id="entity_UC11"><ellipse cx="1478.6969" cy="355.0034" fill="#F1F1F1" rx="126.4169" ry="27.6834" style="stroke:#181818;stroke-width:0.5;"/><text fill="#000000" font-family="sans-serif" font-size="14" lengthAdjust="spacing" textLength="232.9961" x="1362.1988" y="359.6518">Exception abfangen &amp; maskieren</text></g><!--entity UC12--><g class="entity" data-entity="UC12" data-source-line="18" data-uid="ent0016" id="entity_UC12"><ellipse cx="1795.7515" cy="357.9983" fill="#F1F1F1" rx="111.0915" ry="24.6183" style="stroke:#181818;stroke-width:0.5;"/><text fill="#000000" font-family="sans-serif" font-size="14" lengthAdjust="spacing" textLength="200.2383" x="1695.6323" y="362.6467">Fehler protokollieren/alerten</text></g><!--entity UC14--><g class="entity" data-entity="UC14" data-source-line="19" data-uid="ent0017" id="entity_UC14"><ellipse cx="294.9221" cy="154.9964" fill="#F1F1F1" rx="142.1821" ry="30.8364" style="stroke:#181818;stroke-width:0.5;"/><text fill="#000000" font-family="sans-serif" font-size="14" lengthAdjust="spacing" textLength="266.1709" x="161.8367" y="159.6449">Benachrichtigungspr&#228;ferenzen setzen</text></g><!--entity UC15--><g class="entity" data-entity="UC15" data-source-line="20" data-uid="ent0018" id="entity_UC15"><ellipse cx="2040.2083" cy="258.0037" fill="#F1F1F1" rx="73.3683" ry="17.0737" style="stroke:#181818;stroke-width:0.5;"/><text fill="#000000" font-family="sans-serif" font-size="14" lengthAdjust="spacing" textLength="114.748" x="1982.8343" y="262.6521">Matching pr&#252;fen</text></g><!--entity UC16--><g class="entity" data-entity="UC16" data-source-line="21" data-uid="ent0019" id="entity_UC16"><ellipse cx="2320.1151" cy="288.997" fill="#F1F1F1" rx="146.5351" ry="31.707" style="stroke:#181818;stroke-width:0.5;"/><text fill="#000000" font-family="sans-serif" font-size="14" lengthAdjust="spacing" textLength="275.2627" x="2182.4837" y="293.6454">Benachrichtigung generieren &amp; senden</text></g><!--entity UC17--><g class="entity" data-entity="UC17" data-source-line="22" data-uid="ent0020" id="entity_UC17"><ellipse cx="294.9236" cy="347.9967" fill="#F1F1F1" rx="164.8836" ry="35.3767" style="stroke:#181818;stroke-width:0.5;"/><text fill="#000000" font-family="sans-serif" font-size="14" lengthAdjust="spacing" textLength="313.3457" x="138.2508" y="352.6452">Benachrichtigung empfangen &amp; interagieren</text></g><!--entity stud--><g class="entity" data-entity="stud" data-source-line="3" data-uid="ent0002" id="entity_stud"><ellipse cx="38.0161" cy="172.35" fill="#F1F1F1" rx="8" ry="8" style="stroke:#181818;stroke-width:0.5;"/><path d="M38.0161,180.35 L38.0161,207.35 M25.0161,188.35 L51.0161,188.35 M38.0161,207.35 L25.0161,222.35 M38.0161,207.35 L51.0161,222.35" fill="none" style="stroke:#181818;stroke-width:0.5;"/><text fill="#000000" font-family="sans-serif" font-size="14" lengthAdjust="spacing" textLength="64.0322" x="6" y="236.8451">Nutzer:in</text></g><!--entity dev--><g class="entity" data-entity="dev" data-source-line="4" data-uid="ent0003" id="entity_dev"><ellipse cx="2040.2154" cy="423.35" fill="#F1F1F1" rx="8" ry="8" style="stroke:#181818;stroke-width:0.5;"/><path d="M2040.2154,431.35 L2040.2154,458.35 M2027.2154,439.35 L2053.2154,439.35 M2040.2154,458.35 L2027.2154,473.35 M2040.2154,458.35 L2053.2154,473.35" fill="none" style="stroke:#181818;stroke-width:0.5;"/><text fill="#000000" font-family="sans-serif" font-size="14" lengthAdjust="spacing" textLength="90.0908" x="1995.17" y="487.8451">Entwickler:in</text></g><!--entity log--><g class="entity" data-entity="log" data-source-line="5" data-uid="ent0004" id="entity_log"><ellipse cx="2040.214" cy="534.35" fill="#F1F1F1" rx="8" ry="8" style="stroke:#181818;stroke-width:0.5;"/><path d="M2040.214,542.35 L2040.214,569.35 M2027.214,550.35 L2053.214,550.35 M2040.214,569.35 L2027.214,584.35 M2040.214,569.35 L2053.214,584.35" fill="none" style="stroke:#181818;stroke-width:0.5;"/><text fill="#000000" font-family="sans-serif" font-size="14" lengthAdjust="spacing" textLength="55.7881" x="2012.32" y="598.8451">Logging</text></g><!--entity notif--><g class="entity" data-entity="notif" data-source-line="6" data-uid="ent0005" id="entity_notif"><ellipse cx="2613.4972" cy="473.35" fill="#F1F1F1" rx="8" ry="8" style="stroke:#181818;stroke-width:0.5;"/><path d="M2613.4972,481.35 L2613.4972,508.35 M2600.4972,489.35 L2626.4972,489.35 M2613.4972,508.35 L2600.4972,523.35 M2613.4972,508.35 L2626.4972,523.35" fill="none" style="stroke:#181818;stroke-width:0.5;"/><text fill="#000000" font-family="sans-serif" font-size="14" lengthAdjust="spacing" textLength="173.6943" x="2526.65" y="537.8451">Benachrichtigungsdienst</text></g><!--link stud to UC1--><g class="link" data-entity-1="stud" data-entity-2="UC1" data-source-line="25" data-uid="lnk21" id="link_stud_UC1"><path d="M70.53,207.81 C101.23,213.47 143.6595,221.2919 187.5295,229.3819" fill="none" id="stud-to-UC1" style="stroke:#181818;stroke-width:1;"/><polygon fill="#181818" points="193.43,230.47,185.3046,224.9042,188.5129,229.5632,183.8538,232.7715,193.43,230.47" style="stroke:#181818;stroke-width:1;"/></g><!--link stud to UC13--><g class="link" data-entity-1="stud" data-entity-2="UC13" data-source-line="26" data-uid="lnk22" id="link_stud_UC13"><path d="M57.21,163.83 C68.57,143.98 85.04,121 106.03,107 C131.34,90.12 156.5149,81.158 186.0349,75.038" fill="none" id="stud-to-UC13" style="stroke:#181818;stroke-width:1;"/><polygon fill="#181818" points="191.91,73.82,182.2854,71.7303,187.0141,74.835,183.9094,79.5637,191.91,73.82" style="stroke:#181818;stroke-width:1;"/></g><!--link stud to UC14--><g class="link" data-entity-1="stud" data-entity-2="UC14" data-source-line="27" data-uid="lnk23" id="link_stud_UC14"><path d="M70.53,196.19 C99.37,190.87 137.8596,183.7785 179.4896,176.0985" fill="none" id="stud-to-UC14" style="stroke:#181818;stroke-width:1;"/><polygon fill="#181818" points="185.39,175.01,175.8137,172.7092,180.473,175.9171,177.265,180.5764,185.39,175.01" style="stroke:#181818;stroke-width:1;"/></g><!--link UC1 to UC2--><g class="link" data-entity-1="UC1" data-entity-2="UC2" data-source-line="29" data-uid="lnk24" id="link_UC1_UC2"><path d="M426.31,249 C457.54,249 484.31,249 513.64,249" fill="none" id="UC1-to-UC2" style="stroke:#181818;stroke-width:1;"/><polygon fill="#181818" points="519.64,249,510.64,245,514.64,249,510.64,253,519.64,249" style="stroke:#181818;stroke-width:1;"/></g><!--link UC13 to UC2--><g class="link" data-entity-1="UC13" data-entity-2="UC2" data-source-line="30" data-uid="lnk25" id="link_UC13_UC2"><path d="M384.79,79.44 C409.99,85.71 436.8,94.57 459.8,107 C517.87,138.38 567.5128,191.521 594.0328,222.841" fill="none" id="UC13-to-UC2" style="stroke:#181818;stroke-width:1;"/><polygon fill="#181818" points="597.91,227.42,595.1468,217.9667,594.679,223.6042,589.0415,223.1363,597.91,227.42" style="stroke:#181818;stroke-width:1;"/></g><!--link UC2 to UC8--><g class="link" data-entity-1="UC2" data-entity-2="UC8" data-source-line="31" data-uid="lnk26" id="link_UC2_UC8"><path d="M713.16,250.09 C732.57,250.31 747.1004,250.4833 766.8904,250.7033" fill="none" id="UC2-to-UC8" style="stroke:#181818;stroke-width:1;"/><polygon fill="#181818" points="772.89,250.77,763.935,246.6702,767.8903,250.7144,763.8461,254.6697,772.89,250.77" style="stroke:#181818;stroke-width:1;"/></g><!--link UC8 to UC9--><g class="link" data-entity-1="UC8" data-entity-2="UC9" data-source-line="32" data-uid="lnk27" id="link_UC8_UC9"><path d="M990.09,254.32 C1009.95,254.75 1024.7114,255.0706 1044.6414,255.5006" fill="none" id="UC8-to-UC9" style="stroke:#181818;stroke-width:1;"/><polygon fill="#181818" points="1050.64,255.63,1041.7284,251.4368,1045.6412,255.5221,1041.5558,259.4349,1050.64,255.63" style="stroke:#181818;stroke-width:1;"/></g><!--link UC9 to UC6--><g class="link" data-entity-1="UC9" data-entity-2="UC6" data-source-line="33" data-uid="lnk28" id="link_UC9_UC6"><path d="M1232.84,238.65 C1263.49,230.31 1299.85,220.53 1332.74,212 C1362.11,204.39 1389.0836,197.6428 1416.0436,191.0128" fill="none" id="UC9-to-UC6" style="stroke:#181818;stroke-width:1;"/><polygon fill="#181818" points="1421.87,189.58,1412.1752,187.845,1417.0147,190.774,1414.0856,195.6135,1421.87,189.58" style="stroke:#181818;stroke-width:1;"/></g><!--link UC6 to UC7--><g class="link" data-entity-1="UC6" data-entity-2="UC7" data-source-line="34" data-uid="lnk29" id="link_UC6_UC7"><path d="M1546.13,186.54 C1595.42,194.36 1656.9043,204.1187 1709.0943,212.4087" fill="none" id="UC6-to-UC7" style="stroke:#181818;stroke-width:1;"/><polygon fill="#181818" points="1715.02,213.35,1706.7589,207.9876,1710.0819,212.5656,1705.5039,215.8886,1715.02,213.35" style="stroke:#181818;stroke-width:1;"/></g><!--link UC7 to UC15--><g class="link" data-entity-1="UC7" data-entity-2="UC15" data-source-line="35" data-uid="lnk30" id="link_UC7_UC15"><path d="M1880.53,237.06 C1911.74,241.18 1940.6716,244.9951 1969.7716,248.8351" fill="none" id="UC7-to-UC15" style="stroke:#181818;stroke-width:1;"/><polygon fill="#181818" points="1975.72,249.62,1967.3206,244.477,1970.763,248.9659,1966.2741,252.4082,1975.72,249.62" style="stroke:#181818;stroke-width:1;"/></g><!--link UC15 to UC16--><g class="link" data-entity-1="UC15" data-entity-2="UC16" data-source-line="37" data-uid="lnk31" id="link_UC15_UC16"><path d="M2107.07,265.35 C2131.71,268.09 2154.667,270.6551 2183.097,273.8251" fill="none" id="UC15-to-UC16" style="stroke:#181818;stroke-width:1;"/><polygon fill="#181818" points="2189.06,274.49,2180.5587,269.5173,2184.0908,273.9359,2179.6722,277.468,2189.06,274.49" style="stroke:#181818;stroke-width:1;"/></g><!--link UC16 to notif--><g class="link" data-entity-1="UC16" data-entity-2="notif" data-source-line="38" data-uid="lnk32" id="link_UC16_notif"><path d="M2362.87,319.66 C2414.79,357.8 2498.6542,419.3883 2555.1442,460.8783" fill="none" id="UC16-to-notif" style="stroke:#181818;stroke-width:1;"/><polygon fill="#181818" points="2559.98,464.43,2555.0941,455.8785,2555.9502,461.4702,2550.3584,462.3263,2559.98,464.43" style="stroke:#181818;stroke-width:1;"/></g><!--link notif to UC17--><g class="link" data-entity-1="notif" data-entity-2="UC17" data-source-line="39" data-uid="lnk33" id="link_notif_UC17"><path d="M2526.32,540.96 C2416.09,585.99 2218.25,655 2041.21,655 C880.65,655 880.65,655 880.65,655 C648.75,655 422.6944,467.4652 336.1444,387.0052" fill="none" id="notif-to-UC17" style="stroke:#181818;stroke-width:1;"/><polygon fill="#181818" points="331.75,382.92,335.6182,391.9774,335.412,386.3243,341.0651,386.1182,331.75,382.92" style="stroke:#181818;stroke-width:1;"/></g><!--link UC17 to stud--><g class="link" data-entity-1="UC17" data-entity-2="stud" data-source-line="40" data-uid="lnk34" id="link_UC17_stud"><path d="M167.83,325.12 C146.05,317.71 124.5,307.92 106.03,295 C86.14,281.08 73.0913,264.4363 61.6313,245.4563" fill="none" id="UC17-to-stud" style="stroke:#181818;stroke-width:1;"/><polygon fill="#181818" points="58.53,240.32,59.7577,250.092,61.1144,244.6003,66.6062,245.957,58.53,240.32" style="stroke:#181818;stroke-width:1;"/></g><!--link UC9 to UC10--><g class="link" data-entity-1="UC9" data-entity-2="UC10" data-source-line="41" data-uid="lnk35" id="link_UC9_UC10"><path d="M1272.77,259.05 C1292.12,259.23 1306.5203,259.3733 1326.6403,259.5633" fill="none" id="UC9-to-UC10" style="stroke:#181818;stroke-width:1;"/><polygon fill="#181818" points="1332.64,259.62,1323.6782,255.5352,1327.6402,259.5728,1323.6026,263.5348,1332.64,259.62" style="stroke:#181818;stroke-width:1;"/></g><!--link UC9 to UC11--><g class="link" data-entity-1="UC9" data-entity-2="UC11" data-source-line="42" data-uid="lnk36" id="link_UC9_UC11"><path d="M1227.85,278.1 C1279.14,293.89 1344.8455,314.105 1398.1955,330.525" fill="none" id="UC9-to-UC11" style="stroke:#181818;stroke-width:1;"/><polygon fill="#181818" points="1403.93,332.29,1396.5048,325.8195,1399.1512,330.8192,1394.1516,333.4656,1403.93,332.29" style="stroke:#181818;stroke-width:1;"/></g><!--link UC11 to UC12--><g class="link" data-entity-1="UC11" data-entity-2="UC12" data-source-line="43" data-uid="lnk37" id="link_UC11_UC12"><path d="M1605.12,356.19 C1631.29,356.44 1652.7003,356.6414 1678.2803,356.8914" fill="none" id="UC11-to-UC12" style="stroke:#181818;stroke-width:1;"/><polygon fill="#181818" points="1684.28,356.95,1675.3195,352.8622,1679.2802,356.9011,1675.2413,360.8619,1684.28,356.95" style="stroke:#181818;stroke-width:1;"/></g><!--link UC12 to log--><g class="link" data-entity-1="UC12" data-entity-2="log" data-source-line="44" data-uid="lnk38" id="link_UC12_log"><path d="M1822.73,382.17 C1855.63,412.54 1914.37,465.88 1966.85,509 C1981.48,521.02 1993.4808,530.2723 2007.2208,540.5223" fill="none" id="UC12-to-log" style="stroke:#181818;stroke-width:1;"/><polygon fill="#181818" points="2012.03,544.11,2007.2079,535.5223,2008.0223,541.1203,2002.4244,541.9346,2012.03,544.11" style="stroke:#181818;stroke-width:1;"/></g><!--link UC12 to dev--><g class="link" data-entity-1="UC12" data-entity-2="dev" data-source-line="45" data-uid="lnk39" id="link_UC12_dev"><path d="M1852.08,379.68 C1895.4,396.65 1949.2835,417.761 1989.4535,433.501" fill="none" id="UC12-to-dev" style="stroke:#181818;stroke-width:1;"/><polygon fill="#181818" points="1995.04,435.69,1988.1196,428.6823,1990.3846,433.8659,1985.201,436.1309,1995.04,435.69" style="stroke:#181818;stroke-width:1;"/></g><!--SRC=[XLIxRjmm4Epr5OihZAGm7DtvNYbInF010H8tHjBJqeeYZY85SdM9ByZV-1jIfRiVor8IJr9Ys0qnIyxCaYDI6Wi2ik2KB0bovJ0ZPKsIY8oiWzbTGqTqxvMPWV3WgSdZogsXxohRws4rnqDS_6obL4QsqzhAEFqHZSXAfxAIb6oCzBb2uwcb6KkgI99QP7iXCLXuWWlOsSRaSF_e2QiP_4m06e-PyCpuXautdYhKENk1CDOyLY2QGk83TblwUfEE5NVO8EpOSD1eb0DtCIP_CeLrbGXne07auunivsFcbzxDryX7GnT9g-T81tIdtqM1XdGWH-vwpBtbPeARmK5enHavXczkD8T5Rtl-vbN-FJhk5VdRVvBpT7eoURi5s679dt78v8Xg5CgxIQSV6TOX4X0FXU1837-ZIlXzspHA9g5txb0xItPljMwPLuBdQ51CylplcjJkz5G4sP7xUUGhUHPUJp8Mb9MS1JSx_Ia6ql8bT-13eEj2ks1tam_2rOj2hEfp1ieGEY4dCQoJNqaItWnSNdvex-AuM4ogwoJXiQ_c0Iz6nRp76yQR7cyPRtkyOhpgyPhnEjekMzjbB0ClxOZTUsl7k1gKQITjN_hWpvTWLAI15_UQjfljDXYU-hdWty5V]--></g></svg>