<svg xmlns="http://www.w3.org/2000/svg" xmlns:xlink="http://www.w3.org/1999/xlink" contentStyleType="text/css" data-diagram-type="DESCRIPTION" height="444px" preserveAspectRatio="none" style="width:2700px;height:444px;background:#FFFFFF;" version="1.1" viewBox="0 0 2700 444" width="2700px" zoomAndPan="magnify"><defs/><g><!--cluster Lost & Found System--><g class="cluster" data-entity="Lost . Found System" data-source-line="9" data-uid="ent0005" id="cluster_Lost . Found System"><rect fill="none" height="336" rx="2.5" ry="2.5" style="stroke:#181818;stroke-width:1;" width="2577.52" x="117.03" y="7"/><text fill="#000000" font-family="sans-serif" font-size="14" font-weight="bold" lengthAdjust="spacing" textLength="167.8496" x="1321.8652" y="21.9951">Lost &amp; Found System</text></g><!--entity UC_Lost--><g class="entity" data-entity="UC_Lost" data-source-line="12" data-uid="ent0006" id="entity_UC_Lost"><ellipse cx="251.9515" cy="64.0023" fill="#F1F1F1" rx="100.2615" ry="22.4523" style="stroke:#181818;stroke-width:0.5;"/><text fill="#000000" font-family="sans-serif" font-size="14" lengthAdjust="spacing" textLength="176.6338" x="163.6346" y="68.6507">Verlustmeldung erstellen</text></g><!--entity UC_Found--><g class="entity" data-entity="UC_Found" data-source-line="13" data-uid="ent0007" id="entity_UC_Found"><ellipse cx="251.9521" cy="142.9984" fill="#F1F1F1" rx="93.5921" ry="21.1184" style="stroke:#181818;stroke-width:0.5;"/><text fill="#000000" font-family="sans-serif" font-size="14" lengthAdjust="spacing" textLength="161.8271" x="171.0385" y="147.6469">Fundmeldung erstellen</text></g><!--entity UC_Info--><g class="entity" data-entity="UC_Info" data-source-line="14" data-uid="ent0008" id="entity_UC_Info"><ellipse cx="742.9071" cy="114.9994" fill="#F1F1F1" rx="162.0471" ry="34.8094" style="stroke:#181818;stroke-width:0.5;"/><text fill="#000000" font-family="sans-serif" font-size="14" lengthAdjust="spacing" textLength="168.4717" x="658.6713" y="103.351">Informationen eingeben</text><text fill="#000000" font-family="sans-serif" font-size="14" lengthAdjust="spacing" textLength="307.4805" x="589.1669" y="119.6479">(Titel, Beschreibung, Raum, Kategorie, Bild)</text></g><!--entity UC_Validate--><g class="entity" data-entity="UC_Validate" data-source-line="15" data-uid="ent0009" id="entity_UC_Validate"><ellipse cx="1280.2337" cy="115.0047" fill="#F1F1F1" rx="128.2737" ry="28.0547" style="stroke:#181818;stroke-width:0.5;"/><text fill="#000000" font-family="sans-serif" font-size="14" lengthAdjust="spacing" textLength="236.9268" x="1161.7703" y="119.6532">Eingaben validieren (serverseitig)</text></g><!--entity UC_ShowErrors--><g class="entity" data-entity="UC_ShowErrors" data-source-line="16" data-uid="ent0010" id="entity_UC_ShowErrors"><ellipse cx="1708.0187" cy="163.0017" fill="#F1F1F1" rx="119.5087" ry="26.3017" style="stroke:#181818;stroke-width:0.5;"/><text fill="#000000" font-family="sans-serif" font-size="14" lengthAdjust="spacing" textLength="218.3057" x="1598.8658" y="167.6502">Fehlerhafte Eingaben anzeigen</text></g><!--entity UC_DupCheck--><g class="entity" data-entity="UC_DupCheck" data-source-line="18" data-uid="ent0011" id="entity_UC_DupCheck"><ellipse cx="1708.0206" cy="77.0021" fill="#F1F1F1" rx="113.4606" ry="25.0921" style="stroke:#181818;stroke-width:0.5;"/><text fill="#000000" font-family="sans-serif" font-size="14" lengthAdjust="spacing" textLength="205.3447" x="1605.3482" y="81.6506">Eingabe auf Duplikate pr&#252;fen</text></g><!--entity UC_ShowDup--><g class="entity" data-entity="UC_ShowDup" data-source-line="19" data-uid="ent0012" id="entity_UC_ShowDup"><ellipse cx="2192.5212" cy="165.9982" fill="#F1F1F1" rx="111.9912" ry="24.7982" style="stroke:#181818;stroke-width:0.5;"/><text fill="#000000" font-family="sans-serif" font-size="14" lengthAdjust="spacing" textLength="202.1797" x="2091.4314" y="170.6467">M&#246;gliche Duplikate anzeigen</text></g><!--entity UC_Publish--><g class="entity" data-entity="UC_Publish" data-source-line="20" data-uid="ent0013" id="entity_UC_Publish"><ellipse cx="2583.0335" cy="81.0047" fill="#F1F1F1" rx="95.5235" ry="21.5047" style="stroke:#181818;stroke-width:0.5;"/><text fill="#000000" font-family="sans-serif" font-size="14" lengthAdjust="spacing" textLength="166.1406" x="2499.9632" y="85.6531">Anzeige ver&#246;ffentlichen</text></g><!--entity UC_Discard--><g class="entity" data-entity="UC_Discard" data-source-line="21" data-uid="ent0014" id="entity_UC_Discard"><ellipse cx="2583.0271" cy="165.9994" fill="#F1F1F1" rx="80.1971" ry="18.4394" style="stroke:#181818;stroke-width:0.5;"/><text fill="#000000" font-family="sans-serif" font-size="14" lengthAdjust="spacing" textLength="131.1406" x="2517.4568" y="170.6479">Anzeige verwerfen</text></g><!--entity UC_Pickup--><g class="entity" data-entity="UC_Pickup" data-source-line="23" data-uid="ent0015" id="entity_UC_Pickup"><ellipse cx="251.9465" cy="225.0033" fill="#F1F1F1" rx="118.9165" ry="26.1833" style="stroke:#181818;stroke-width:0.5;"/><text fill="#000000" font-family="sans-serif" font-size="14" lengthAdjust="spacing" textLength="217.041" x="143.426" y="229.6517">Eintrag als abgeholt markieren</text></g><!--entity UC_Delete--><g class="entity" data-entity="UC_Delete" data-source-line="24" data-uid="ent0016" id="entity_UC_Delete"><ellipse cx="742.9054" cy="309.9951" fill="#F1F1F1" rx="70.8754" ry="16.5751" style="stroke:#181818;stroke-width:0.5;"/><text fill="#000000" font-family="sans-serif" font-size="14" lengthAdjust="spacing" textLength="108.5752" x="688.6178" y="314.6435">Eintrag l&#246;schen</text></g><!--entity UC_Search--><g class="entity" data-entity="UC_Search" data-source-line="25" data-uid="ent0017" id="entity_UC_Search"><ellipse cx="251.9485" cy="306.9957" fill="#F1F1F1" rx="89.9785" ry="20.3957" style="stroke:#181818;stroke-width:0.5;"/><text fill="#000000" font-family="sans-serif" font-size="14" lengthAdjust="spacing" textLength="153.6924" x="175.1023" y="311.6441">Eintr&#228;ge durchsuchen</text></g><!--entity user--><g class="entity" data-entity="user" data-source-line="4" data-uid="ent0002" id="entity_user"><ellipse cx="38.0161" cy="165.35" fill="#F1F1F1" rx="8" ry="8" style="stroke:#181818;stroke-width:0.5;"/><path d="M38.0161,173.35 L38.0161,200.35 M25.0161,181.35 L51.0161,181.35 M38.0161,200.35 L25.0161,215.35 M38.0161,200.35 L51.0161,215.35" fill="none" style="stroke:#181818;stroke-width:0.5;"/><text fill="#000000" font-family="sans-serif" font-size="14" lengthAdjust="spacing" textLength="64.0322" x="6" y="229.8451">Nutzer:in</text></g><!--entity server--><g class="entity" data-entity="server" data-source-line="5" data-uid="ent0003" id="entity_server"><ellipse cx="251.9451" cy="371.35" fill="#F1F1F1" rx="8" ry="8" style="stroke:#181818;stroke-width:0.5;"/><path d="M251.9451,379.35 L251.9451,406.35 M238.9451,387.35 L264.9451,387.35 M251.9451,406.35 L238.9451,421.35 M251.9451,406.35 L264.9451,421.35" fill="none" style="stroke:#181818;stroke-width:0.5;"/><text fill="#000000" font-family="sans-serif" font-size="14" lengthAdjust="spacing" textLength="45.9102" x="228.99" y="435.8451">Server</text></g><!--entity log--><g class="entity" data-entity="log" data-source-line="6" data-uid="ent0004" id="entity_log"><ellipse cx="1280.234" cy="367.35" fill="#F1F1F1" rx="8" ry="8" style="stroke:#181818;stroke-width:0.5;"/><path d="M1280.234,375.35 L1280.234,402.35 M1267.234,383.35 L1293.234,383.35 M1280.234,402.35 L1267.234,417.35 M1280.234,402.35 L1293.234,417.35" fill="none" style="stroke:#181818;stroke-width:0.5;"/><text fill="#000000" font-family="sans-serif" font-size="14" lengthAdjust="spacing" textLength="55.7881" x="1252.34" y="431.8451">Logging</text></g><!--link user to UC_Lost--><g class="link" data-entity-1="user" data-entity-2="UC_Lost" data-source-line="30" data-uid="lnk18" id="link_user_UC_Lost"><path d="M60.53,156.59 C72.6,138.24 89.22,117.41 109.03,104 C127.16,91.74 143.2339,84.8237 164.2939,78.9037" fill="none" id="user-to-UC_Lost" style="stroke:#181818;stroke-width:1;"/><polygon fill="#181818" points="170.07,77.28,160.3234,75.8648,165.2566,78.6331,162.4883,83.5663,170.07,77.28" style="stroke:#181818;stroke-width:1;"/></g><!--link user to UC_Found--><g class="link" data-entity-1="user" data-entity-2="UC_Found" data-source-line="31" data-uid="lnk19" id="link_user_UC_Found"><path d="M70.3,186 C79.82,183.34 90.34,180.48 100.03,178 C127.4,171.02 151.8511,165.2179 178.0811,159.2179" fill="none" id="user-to-UC_Found" style="stroke:#181818;stroke-width:1;"/><polygon fill="#181818" points="183.93,157.88,174.2647,155.9876,179.0559,158.9949,176.0486,163.7862,183.93,157.88" style="stroke:#181818;stroke-width:1;"/></g><!--link UC_Lost to UC_Info--><g class="link" data-entity-1="UC_Lost" data-entity-2="UC_Info" data-source-line="33" data-uid="lnk20" id="link_UC_Lost_UC_Info"><path d="M343.49,73.44 C414.44,80.84 508.5723,90.6679 590.6923,99.2279" fill="none" id="UC_Lost-to-UC_Info" style="stroke:#181818;stroke-width:1;"/><polygon fill="#181818" points="596.66,99.85,588.1232,94.9385,591.6869,99.3316,587.2938,102.8954,596.66,99.85" style="stroke:#181818;stroke-width:1;"/></g><!--link UC_Found to UC_Info--><g class="link" data-entity-1="UC_Found" data-entity-2="UC_Info" data-source-line="34" data-uid="lnk21" id="link_UC_Found_UC_Info"><path d="M343.2,137.83 C411.08,133.95 499.7898,128.8626 579.8598,124.2826" fill="none" id="UC_Found-to-UC_Info" style="stroke:#181818;stroke-width:1;"/><polygon fill="#181818" points="585.85,123.94,576.6363,120.4605,580.8582,124.2255,577.0931,128.4474,585.85,123.94" style="stroke:#181818;stroke-width:1;"/></g><!--link UC_Info to UC_Validate--><g class="link" data-entity-1="UC_Info" data-entity-2="UC_Validate" data-source-line="36" data-uid="lnk22" id="link_UC_Info_UC_Validate"><path d="M905.25,115 C984.22,115 1071.92,115 1145.78,115" fill="none" id="UC_Info-to-UC_Validate" style="stroke:#181818;stroke-width:1;"/><polygon fill="#181818" points="1151.78,115,1142.78,111,1146.78,115,1142.78,119,1151.78,115" style="stroke:#181818;stroke-width:1;"/></g><!--link UC_Validate to UC_ShowErrors--><g class="link" data-entity-1="UC_Validate" data-entity-2="UC_ShowErrors" data-source-line="39" data-uid="lnk23" id="link_UC_Validate_UC_ShowErrors"><path d="M1395.06,127.83 C1458.98,135.04 1532.2777,143.308 1594.9177,150.368" fill="none" id="UC_Validate-to-UC_ShowErrors" style="stroke:#181818;stroke-width:1;"/><polygon fill="#181818" points="1600.88,151.04,1592.3846,146.0572,1595.9115,150.48,1591.4886,154.0068,1600.88,151.04" style="stroke:#181818;stroke-width:1;"/><text fill="#000000" font-family="sans-serif" font-size="13" lengthAdjust="spacing" textLength="118.2061" x="1439.51" y="130.0669">ung&#252;ltige Eingabe</text></g><!--link UC_Validate to UC_DupCheck--><g class="link" data-entity-1="UC_Validate" data-entity-2="UC_DupCheck" data-source-line="40" data-uid="lnk24" id="link_UC_Validate_UC_DupCheck"><path d="M1399.55,104.44 C1463.17,98.76 1534.9438,92.3634 1596.3438,86.8834" fill="none" id="UC_Validate-to-UC_DupCheck" style="stroke:#181818;stroke-width:1;"/><polygon fill="#181818" points="1602.32,86.35,1593,83.1659,1597.3398,86.7945,1593.7112,91.1342,1602.32,86.35" style="stroke:#181818;stroke-width:1;"/><text fill="#000000" font-family="sans-serif" font-size="13" lengthAdjust="spacing" textLength="101.7275" x="1448.01" y="87.0669">g&#252;ltige Eingabe</text></g><!--link UC_DupCheck to UC_Publish--><g class="link" data-entity-1="UC_DupCheck" data-entity-2="UC_Publish" data-source-line="43" data-uid="lnk25" id="link_UC_DupCheck_UC_Publish"><path d="M1821.81,77.52 C1995.47,78.31 2319.1801,79.7922 2481.2601,80.5422" fill="none" id="UC_DupCheck-to-UC_Publish" style="stroke:#181818;stroke-width:1;"/><polygon fill="#181818" points="2487.26,80.57,2478.2786,76.5284,2482.2601,80.5469,2478.2416,84.5283,2487.26,80.57" style="stroke:#181818;stroke-width:1;"/><text fill="#000000" font-family="sans-serif" font-size="13" lengthAdjust="spacing" textLength="167.7495" x="2109.02" y="75.0669">keine Duplikate gefunden</text></g><!--link UC_DupCheck to UC_ShowDup--><g class="link" data-entity-1="UC_DupCheck" data-entity-2="UC_ShowDup" data-source-line="44" data-uid="lnk26" id="link_UC_DupCheck_UC_ShowDup"><path d="M1796.39,93.12 C1883.97,109.27 2012.0896,132.9013 2099.2896,148.9913" fill="none" id="UC_DupCheck-to-UC_ShowDup" style="stroke:#181818;stroke-width:1;"/><polygon fill="#181818" points="2105.19,150.08,2097.0652,144.5133,2100.273,149.1727,2095.6136,152.3805,2105.19,150.08" style="stroke:#181818;stroke-width:1;"/><text fill="#000000" font-family="sans-serif" font-size="13" lengthAdjust="spacing" textLength="191.8516" x="1858.52" y="102.0669">m&#246;gliche Duplikate gefunden</text></g><!--link UC_ShowDup to UC_Discard--><g class="link" data-entity-1="UC_ShowDup" data-entity-2="UC_Discard" data-source-line="46" data-uid="lnk27" id="link_UC_ShowDup_UC_Discard"><path d="M2304.85,166 C2367.97,166 2439.47,166 2496.46,166" fill="none" id="UC_ShowDup-to-UC_Discard" style="stroke:#181818;stroke-width:1;"/><polygon fill="#181818" points="2502.46,166,2493.46,162,2497.46,166,2493.46,170,2502.46,166" style="stroke:#181818;stroke-width:1;"/><text fill="#000000" font-family="sans-serif" font-size="13" lengthAdjust="spacing" textLength="121.7734" x="2335.51" y="162.0669">Anzeige verwerfen</text></g><!--link UC_ShowDup to UC_Publish--><g class="link" data-entity-1="UC_ShowDup" data-entity-2="UC_Publish" data-source-line="47" data-uid="lnk28" id="link_UC_ShowDup_UC_Publish"><path d="M2273.54,148.49 C2344.18,133.04 2440.2188,112.0329 2507.2888,97.3529" fill="none" id="UC_ShowDup-to-UC_Publish" style="stroke:#181818;stroke-width:1;"/><polygon fill="#181818" points="2513.15,96.07,2503.5029,94.0868,2508.2656,97.1391,2505.2134,101.9018,2513.15,96.07" style="stroke:#181818;stroke-width:1;"/><text fill="#000000" font-family="sans-serif" font-size="13" lengthAdjust="spacing" textLength="86.6201" x="2353.01" y="105.0669">Force Publish</text></g><!--link user to UC_Pickup--><g class="link" data-entity-1="user" data-entity-2="UC_Pickup" data-source-line="50" data-uid="lnk29" id="link_user_UC_Pickup"><path d="M70.29,199.43 C91.82,202.48 115.7791,205.8703 145.0691,210.0103" fill="none" id="user-to-UC_Pickup" style="stroke:#181818;stroke-width:1;"/><polygon fill="#181818" points="151.01,210.85,142.6584,205.6298,146.0592,210.1502,141.5388,213.551,151.01,210.85" style="stroke:#181818;stroke-width:1;"/></g><!--link UC_Pickup to UC_Delete--><g class="link" data-entity-1="UC_Pickup" data-entity-2="UC_Delete" data-source-line="51" data-uid="lnk30" id="link_UC_Pickup_UC_Delete"><path d="M346.36,241.24 C446.43,258.64 596.1188,284.6517 679.1888,299.1017" fill="none" id="UC_Pickup-to-UC_Delete" style="stroke:#181818;stroke-width:1;"/><polygon fill="#181818" points="685.1,300.13,676.9187,294.6468,680.174,299.2731,675.5476,302.5284,685.1,300.13" style="stroke:#181818;stroke-width:1;"/></g><!--link UC_Delete to log--><g class="link" data-entity-1="UC_Delete" data-entity-2="log" data-source-line="52" data-uid="lnk31" id="link_UC_Delete_log"><path d="M802.22,319.48 C917.12,338.15 1162.9277,378.0976 1246.0677,391.6076" fill="none" id="UC_Delete-to-log" style="stroke:#181818;stroke-width:1;"/><polygon fill="#181818" points="1251.99,392.57,1243.7481,387.1782,1247.0547,391.768,1242.4649,395.0747,1251.99,392.57" style="stroke:#181818;stroke-width:1;"/><text fill="#000000" font-family="sans-serif" font-size="13" lengthAdjust="spacing" textLength="185.688" x="935.96" y="340.0669">L&#246;schvorgang protokollieren</text></g><!--link user to UC_Search--><g class="link" data-entity-1="user" data-entity-2="UC_Search" data-source-line="55" data-uid="lnk32" id="link_user_UC_Search"><path d="M68.06,233.48 C79.55,246.41 93.69,259.86 109.03,269 C129.63,281.27 148.4071,288.2132 171.3071,293.9032" fill="none" id="user-to-UC_Search" style="stroke:#181818;stroke-width:1;"/><polygon fill="#181818" points="177.13,295.35,169.3601,289.2978,172.2775,294.1443,167.431,297.0617,177.13,295.35" style="stroke:#181818;stroke-width:1;"/></g><!--link server to UC_Delete--><g class="link" data-entity-1="server" data-entity-2="UC_Delete" data-source-line="58" data-uid="lnk33" id="link_server_UC_Delete"><path d="M275.23,396.86 C347.81,383.35 573.0412,341.4275 680.3212,321.4675" fill="none" id="server-to-UC_Delete" style="stroke:#181818;stroke-width:1;"/><polygon fill="#181818" points="686.22,320.37,676.6402,318.0837,681.3044,321.2846,678.1035,325.9488,686.22,320.37" style="stroke:#181818;stroke-width:1;"/><text fill="#000000" font-family="sans-serif" font-size="13" lengthAdjust="spacing" textLength="148.7065" x="401.87" y="344.0669">wenn &#228;lter als 14 Tage</text></g><!--SRC=[TLHDJnin4BtxLunoA5I2GwMUE5IYGAIgjAeQu5IfShopNYkEZSRUH53rt_0RE77RFzQnzoDE2QSTpRptPiP-NejrXEY1Z6uYL8PGHUET44TmhgAd86JwmEnx6n-HpeoRWGpG1gInia3Q8ELqoE5OkFPQ6wTpnNgTD1SF8U8QbhvrbQG7aTf9foqcT8Zm3kQfDE1cy4S8W2Euy8If9oWPC72AunJ2x0x9jY6kqLQjqu34F6knd_BsudTIBV5pLdyJd7kNw2-kzhIMwKJG0V8ok4JtontV66QUm6SCgY4qIvOxWP-oNP_0LnbHUpB8PMEhzwDuqYgrhrXDiXfif3MLGUBmk3_0W2OQFJ7l4e1Lz_R0nY8rieu8av9qZsZqRfz5uxTNHEaM3tG6sTPmsTvRis9nkAVkfTvnkN3He5gLn6_TixP6DLZG3lNaQaaxxo70ctNFDVU8MMIY_6YNreJc3SeMgHpB12Mf-d-VI5A3j07aKcFZROIrf5K-rAcBKQlzkKQUxPv3ESybMjm_xOpiddYWgYNLXBQ4Br1oJeY_oU2tV8DGMxyD8hqHE3tzDDcmJFHM4qDfp6QFZDMzf1Y2CJbvWdiECPiK24DhOn05OcJip01dm7xjNcnCHpouuH1bz00JNi6vRpQ1IdX-tKQ9aZ4e35VB0Yj-FQLlDDQy8xf3hC53p5eVSDp450LqdBYt1pDVEUW0UZVTt9D268t8k_LkoJUvTs-3YwPeQjnxPefode-5jQ-plJQUDF_f-9dvw5VUscpE_4_i_LDs6IsLYkc7m4yrUluFOGNAedGyGV-ds6_FpRRe77HFDYOIluSF7-56Qlm7]--></g></svg>