<svg xmlns="http://www.w3.org/2000/svg" xmlns:xlink="http://www.w3.org/1999/xlink" contentStyleType="text/css" data-diagram-type="DESCRIPTION" height="771px" preserveAspectRatio="none" style="width:2247px;height:771px;background:#FFFFFF;" version="1.1" viewBox="0 0 2247 771" width="2247px" zoomAndPan="magnify"><defs/><g><!--cluster Lost & Found System--><g class="cluster" data-entity="Lost . Found System" data-source-line="8" data-uid="ent0006" id="cluster_Lost . Found System"><path d="M116.53,159.08 L285.3796,159.08 A3.75,3.75 0 0 1 287.8796,161.58 L294.8796,181.3769 L2020.27,181.3769 A2.5,2.5 0 0 1 2022.77,183.8769 L2022.77,580.58 A2.5,2.5 0 0 1 2020.27,583.08 L116.53,583.08 A2.5,2.5 0 0 1 114.03,580.58 L114.03,161.58 A2.5,2.5 0 0 1 116.53,159.08" fill="none" style="stroke:#000000;stroke-width:1.5;"/><line style="stroke:#000000;stroke-width:1.5;" x1="114.03" x2="294.8796" y1="181.3769" y2="181.3769"/><text fill="#000000" font-family="sans-serif" font-size="14" font-weight="bold" lengthAdjust="spacing" textLength="167.8496" x="118.03" y="174.0751">Lost &amp; Found System</text></g><!--entity UC11--><g class="entity" data-entity="UC11" data-source-line="9" data-uid="ent0007" id="entity_UC11"><ellipse cx="294.916" cy="252.0812" fill="#F1F1F1" rx="131.206" ry="28.6412" style="stroke:#181818;stroke-width:0.5;"/><text fill="#000000" font-family="sans-serif" font-size="14" lengthAdjust="spacing" textLength="243.1201" x="173.3559" y="256.7296">Verlustmeldung anonym aufgeben</text></g><!--entity UC12--><g class="entity" data-entity="UC12" data-source-line="10" data-uid="ent0008" id="entity_UC12"><ellipse cx="628.5107" cy="487.0761" fill="#F1F1F1" rx="62.9807" ry="14.9961" style="stroke:#181818;stroke-width:0.5;"/><text fill="#000000" font-family="sans-serif" font-size="14" lengthAdjust="spacing" textLength="88.04" x="584.4907" y="491.7246">Ort angeben</text></g><!--entity UC13--><g class="entity" data-entity="UC13" data-source-line="11" data-uid="ent0009" id="entity_UC13"><ellipse cx="628.5086" cy="552.0817" fill="#F1F1F1" rx="64.9586" ry="15.3917" style="stroke:#181818;stroke-width:0.5;"/><text fill="#000000" font-family="sans-serif" font-size="14" lengthAdjust="spacing" textLength="93.3584" x="581.8294" y="556.7302">Zeit angeben</text></g><!--entity UC14--><g class="entity" data-entity="UC14" data-source-line="12" data-uid="ent0010" id="entity_UC14"><ellipse cx="628.5067" cy="335.0813" fill="#F1F1F1" rx="93.5067" ry="21.1013" style="stroke:#181818;stroke-width:0.5;"/><text fill="#000000" font-family="sans-serif" font-size="14" lengthAdjust="spacing" textLength="161.6357" x="547.6888" y="339.7298">Beschreibung angeben</text></g><!--entity UC15--><g class="entity" data-entity="UC15" data-source-line="13" data-uid="ent0011" id="entity_UC15"><ellipse cx="628.5076" cy="414.0795" fill="#F1F1F1" rx="104.1976" ry="23.2395" style="stroke:#181818;stroke-width:0.5;"/><text fill="#000000" font-family="sans-serif" font-size="14" lengthAdjust="spacing" textLength="185.2676" x="535.8738" y="418.7279">Foto hinzufu&#776;gen (optional)</text></g><!--entity UC16--><g class="entity" data-entity="UC16" data-source-line="14" data-uid="ent0012" id="entity_UC16"><ellipse cx="1225.5587" cy="401.0817" fill="#F1F1F1" rx="81.0087" ry="18.6017" style="stroke:#181818;stroke-width:0.5;"/><text fill="#000000" font-family="sans-serif" font-size="14" lengthAdjust="spacing" textLength="133.0479" x="1159.0348" y="405.7302">Meldung speichern</text></g><!--entity UC17--><g class="entity" data-entity="UC17" data-source-line="15" data-uid="ent0013" id="entity_UC17"><ellipse cx="1860.2385" cy="422.0817" fill="#F1F1F1" rx="97.4585" ry="21.8917" style="stroke:#181818;stroke-width:0.5;"/><text fill="#000000" font-family="sans-serif" font-size="14" lengthAdjust="spacing" textLength="170.4404" x="1775.0183" y="426.7301">Meldung ver&#246;ffentlichen</text></g><!--entity UC21--><g class="entity" data-entity="UC21" data-source-line="17" data-uid="ent0014" id="entity_UC21"><ellipse cx="628.5057" cy="218.0811" fill="#F1F1F1" rx="108.7057" ry="24.1411" style="stroke:#181818;stroke-width:0.5;"/><text fill="#000000" font-family="sans-serif" font-size="14" lengthAdjust="spacing" textLength="195.0771" x="530.9671" y="222.7296">Eingaben validieren (Client)</text></g><!--entity UC22--><g class="entity" data-entity="UC22" data-source-line="18" data-uid="ent0015" id="entity_UC22"><ellipse cx="908.4028" cy="219.0786" fill="#F1F1F1" rx="111.1928" ry="24.6386" style="stroke:#181818;stroke-width:0.5;"/><text fill="#000000" font-family="sans-serif" font-size="14" lengthAdjust="spacing" textLength="200.457" x="808.1743" y="223.727">Eingaben validieren (Server)</text></g><!--entity UC23--><g class="entity" data-entity="UC23" data-source-line="19" data-uid="ent0016" id="entity_UC23"><ellipse cx="1225.5616" cy="226.0823" fill="#F1F1F1" rx="145.9616" ry="31.5923" style="stroke:#181818;stroke-width:0.5;"/><text fill="#000000" font-family="sans-serif" font-size="14" lengthAdjust="spacing" textLength="274.0664" x="1088.5284" y="230.7308">Verst&#228;ndliche Fehlermeldung anzeigen</text></g><!--entity UC24--><g class="entity" data-entity="UC24" data-source-line="20" data-uid="ent0017" id="entity_UC24"><ellipse cx="1225.5569" cy="320.0834" fill="#F1F1F1" rx="126.4169" ry="27.6834" style="stroke:#181818;stroke-width:0.5;"/><text fill="#000000" font-family="sans-serif" font-size="14" lengthAdjust="spacing" textLength="232.9961" x="1109.0588" y="324.7318">Exception abfangen &amp; maskieren</text></g><!--entity UC25--><g class="entity" data-entity="UC25" data-source-line="21" data-uid="ent0018" id="entity_UC25"><ellipse cx="1542.6115" cy="320.0783" fill="#F1F1F1" rx="111.0915" ry="24.6183" style="stroke:#181818;stroke-width:0.5;"/><text fill="#000000" font-family="sans-serif" font-size="14" lengthAdjust="spacing" textLength="200.2383" x="1442.4923" y="324.7267">Fehler protokollieren/alerten</text></g><!--entity UC31--><g class="entity" data-entity="UC31" data-source-line="23" data-uid="ent0019" id="entity_UC31"><ellipse cx="294.9234" cy="340.0847" fill="#F1F1F1" rx="110.1234" ry="24.4247" style="stroke:#181818;stroke-width:0.5;"/><text fill="#000000" font-family="sans-serif" font-size="14" lengthAdjust="spacing" textLength="198.1465" x="195.8502" y="344.7331">Neue Fundmeldung anlegen</text></g><!--entity UC32--><g class="entity" data-entity="UC32" data-source-line="24" data-uid="ent0020" id="entity_UC32"><ellipse cx="294.9221" cy="536.0764" fill="#F1F1F1" rx="142.1821" ry="30.8364" style="stroke:#181818;stroke-width:0.5;"/><text fill="#000000" font-family="sans-serif" font-size="14" lengthAdjust="spacing" textLength="266.1709" x="161.8367" y="540.7249">Benachrichtigungspr&#228;ferenzen setzen</text></g><!--entity UC34--><g class="entity" data-entity="UC34" data-source-line="25" data-uid="ent0021" id="entity_UC34"><ellipse cx="1542.6083" cy="422.0837" fill="#F1F1F1" rx="73.3683" ry="17.0737" style="stroke:#181818;stroke-width:0.5;"/><text fill="#000000" font-family="sans-serif" font-size="14" lengthAdjust="spacing" textLength="114.748" x="1485.2343" y="426.7321">Matching pr&#252;fen</text></g><!--entity UC35--><g class="entity" data-entity="UC35" data-source-line="26" data-uid="ent0022" id="entity_UC35"><ellipse cx="1860.2351" cy="521.077" fill="#F1F1F1" rx="146.5351" ry="31.707" style="stroke:#181818;stroke-width:0.5;"/><text fill="#000000" font-family="sans-serif" font-size="14" lengthAdjust="spacing" textLength="275.2627" x="1722.6037" y="525.7254">Benachrichtigung generieren &amp; senden</text></g><!--entity UC36--><g class="entity" data-entity="UC36" data-source-line="27" data-uid="ent0023" id="entity_UC36"><ellipse cx="294.9236" cy="435.0767" fill="#F1F1F1" rx="164.8836" ry="35.3767" style="stroke:#181818;stroke-width:0.5;"/><text fill="#000000" font-family="sans-serif" font-size="14" lengthAdjust="spacing" textLength="313.3457" x="138.2508" y="439.7252">Benachrichtigung empfangen &amp; interagieren</text></g><!--entity stud--><g class="entity" data-entity="stud" data-source-line="3" data-uid="ent0002" id="entity_stud"><ellipse cx="38.0161" cy="266.44" fill="#F1F1F1" rx="8" ry="8" style="stroke:#181818;stroke-width:0.5;"/><path d="M38.0161,274.44 L38.0161,301.44 M25.0161,282.44 L51.0161,282.44 M38.0161,301.44 L25.0161,316.44 M38.0161,301.44 L51.0161,316.44" fill="none" style="stroke:#181818;stroke-width:0.5;"/><text fill="#000000" font-family="sans-serif" font-size="14" lengthAdjust="spacing" textLength="64.0322" x="6" y="330.9351">Nutzer:in</text></g><!--entity dev--><g class="entity" data-entity="dev" data-source-line="4" data-uid="ent0003" id="entity_dev"><ellipse cx="1860.2354" cy="607.44" fill="#F1F1F1" rx="8" ry="8" style="stroke:#181818;stroke-width:0.5;"/><path d="M1860.2354,615.44 L1860.2354,642.44 M1847.2354,623.44 L1873.2354,623.44 M1860.2354,642.44 L1847.2354,657.44 M1860.2354,642.44 L1873.2354,657.44" fill="none" style="stroke:#181818;stroke-width:0.5;"/><text fill="#000000" font-family="sans-serif" font-size="14" lengthAdjust="spacing" textLength="90.0908" x="1815.19" y="671.9351">Entwickler:in</text></g><!--entity log--><g class="entity" data-entity="log" data-source-line="5" data-uid="ent0004" id="entity_log"><ellipse cx="1860.234" cy="75.44" fill="#F1F1F1" rx="8" ry="8" style="stroke:#181818;stroke-width:0.5;"/><path d="M1860.234,83.44 L1860.234,110.44 M1847.234,91.44 L1873.234,91.44 M1860.234,110.44 L1847.234,125.44 M1860.234,110.44 L1873.234,125.44" fill="none" style="stroke:#181818;stroke-width:0.5;"/><text fill="#000000" font-family="sans-serif" font-size="14" lengthAdjust="spacing" textLength="55.7881" x="1832.34" y="139.9351">Logging</text></g><!--entity notif--><g class="entity" data-entity="notif" data-source-line="6" data-uid="ent0005" id="entity_notif"><ellipse cx="2153.6172" cy="579.44" fill="#F1F1F1" rx="8" ry="8" style="stroke:#181818;stroke-width:0.5;"/><path d="M2153.6172,587.44 L2153.6172,614.44 M2140.6172,595.44 L2166.6172,595.44 M2153.6172,614.44 L2140.6172,629.44 M2153.6172,614.44 L2166.6172,629.44" fill="none" style="stroke:#181818;stroke-width:0.5;"/><text fill="#000000" font-family="sans-serif" font-size="14" lengthAdjust="spacing" textLength="173.6943" x="2066.77" y="643.9351">Benachrichtigungsdienst</text></g><!--link stud to UC11--><g class="link" data-entity-1="stud" data-entity-2="UC11" data-source-line="30" data-uid="lnk24" id="link_stud_UC11"><path d="M70.53,290.64 C100.63,285.45 141.7676,278.3515 184.9476,270.8915" fill="none" id="stud-to-UC11" style="stroke:#181818;stroke-width:1;"/><polygon fill="#181818" points="190.86,269.87,181.3104,267.4606,185.933,270.7212,182.6724,275.3438,190.86,269.87" style="stroke:#181818;stroke-width:1;"/></g><!--link UC11 to UC14--><g class="link" data-entity-1="UC11" data-entity-2="UC14" data-source-line="31" data-uid="lnk25" id="link_UC11_UC14"><path d="M382.6,273.78 C439.69,288.07 507.2997,304.9924 558.8097,317.8924" fill="none" id="UC11-to-UC14" style="stroke:#181818;stroke-width:1;"/><polygon fill="#181818" points="564.63,319.35,556.8714,313.2834,559.7798,318.1353,554.9279,321.0438,564.63,319.35" style="stroke:#181818;stroke-width:1;"/></g><!--link UC11 to UC15--><g class="link" data-entity-1="UC11" data-entity-2="UC15" data-source-line="32" data-uid="lnk26" id="link_UC11_UC15"><path d="M398.19,270.11 C419.66,276.75 441.36,285.79 459.8,298.08 C495.61,321.96 485,348.76 519.8,374.08 C532.22,383.12 541.3244,388.149 555.8044,393.829" fill="none" id="UC11-to-UC15" style="stroke:#181818;stroke-width:1;stroke-dasharray:7,7;"/><polygon fill="#181818" points="561.39,396.02,554.4722,389.0097,556.7353,394.1941,551.5509,396.4572,561.39,396.02" style="stroke:#181818;stroke-width:1;"/></g><!--link UC11 to UC16--><g class="link" data-entity-1="UC11" data-entity-2="UC16" data-source-line="33" data-uid="lnk27" id="link_UC11_UC16"><path d="M420.51,260.74 C509.16,267.81 630.92,279.39 737.21,296.08 C895.82,321 1074.6275,363.4914 1164.2975,385.8014" fill="none" id="UC11-to-UC16" style="stroke:#181818;stroke-width:1;"/><polygon fill="#181818" points="1170.12,387.25,1162.352,381.1954,1165.2679,386.0428,1160.4205,388.9587,1170.12,387.25" style="stroke:#181818;stroke-width:1;"/></g><!--link UC11 to UC21--><g class="link" data-entity-1="UC11" data-entity-2="UC21" data-source-line="34" data-uid="lnk28" id="link_UC11_UC21"><path d="M414.22,239.95 C451.79,236.1 486.9512,232.4915 522.9712,228.8015" fill="none" id="UC11-to-UC21" style="stroke:#181818;stroke-width:1;"/><polygon fill="#181818" points="528.94,228.19,519.5792,225.128,523.966,228.6995,520.3945,233.0864,528.94,228.19" style="stroke:#181818;stroke-width:1;"/></g><!--link UC21 to UC22--><g class="link" data-entity-1="UC21" data-entity-2="UC22" data-source-line="35" data-uid="lnk29" id="link_UC21_UC22"><path d="M722.43,230.53 C750.67,231.44 775.7815,231.7226 804.2915,231.0926" fill="none" id="UC21-to-UC22" style="stroke:#181818;stroke-width:1;"/><polygon fill="#181818" points="810.29,230.96,801.2038,227.1598,805.2912,231.0705,801.3806,235.1579,810.29,230.96" style="stroke:#181818;stroke-width:1;"/></g><!--link UC21 to UC22--><g class="link" data-entity-1="UC21" data-entity-2="UC22" data-source-line="46" data-uid="lnk39" id="link_UC21_UC22"><path d="M722.43,205.6 C751.78,204.81 778.2134,204.7081 807.6234,205.6981" fill="none" id="UC21-to-UC22-1" style="stroke:#181818;stroke-width:1;"/><polygon fill="#181818" points="813.62,205.9,804.7597,201.5995,808.6228,205.7318,804.4905,209.5949,813.62,205.9" style="stroke:#181818;stroke-width:1;"/></g><!--link UC22 to UC16--><g class="link" data-entity-1="UC22" data-entity-2="UC16" data-source-line="36" data-uid="lnk30" id="link_UC22_UC16"><path d="M941.59,242.89 C965.17,254.21 996.89,268.1 1019.6,288.08 C1056.8,320.83 1039.35,353.16 1079.6,382.08 C1101.39,397.75 1123.3291,405.7219 1148.7991,409.6219" fill="none" id="UC22-to-UC16" style="stroke:#181818;stroke-width:1;"/><polygon fill="#181818" points="1154.73,410.53,1146.4391,405.2139,1149.7876,409.7732,1145.2283,413.1217,1154.73,410.53" style="stroke:#181818;stroke-width:1;"/></g><!--link UC22 to UC16--><g class="link" data-entity-1="UC22" data-entity-2="UC16" data-source-line="47" data-uid="lnk40" id="link_UC22_UC16"><path d="M994.33,235.12 C1003.34,240.35 1011.97,246.38 1019.6,253.08 C1056.8,285.83 1039.35,318.16 1079.6,347.08 C1110.55,369.33 1147.8928,376.6445 1179.0628,383.3145" fill="none" id="UC22-to-UC16-1" style="stroke:#181818;stroke-width:1;"/><polygon fill="#181818" points="1184.93,384.57,1176.9662,378.7753,1180.0407,383.5237,1175.2922,386.5982,1184.93,384.57" style="stroke:#181818;stroke-width:1;"/></g><!--link UC16 to UC34--><g class="link" data-entity-1="UC16" data-entity-2="UC34" data-source-line="37" data-uid="lnk31" id="link_UC16_UC34"><path d="M1303.63,406.22 C1354.91,409.64 1415.7533,413.6907 1465.5333,417.0107" fill="none" id="UC16-to-UC34" style="stroke:#181818;stroke-width:1;"/><polygon fill="#181818" points="1471.52,417.41,1462.8061,412.82,1466.5311,417.0773,1462.2738,420.8022,1471.52,417.41" style="stroke:#181818;stroke-width:1;"/></g><!--link UC34 to UC17--><g class="link" data-entity-1="UC34" data-entity-2="UC17" data-source-line="38" data-uid="lnk32" id="link_UC34_UC17"><path d="M1616.42,422.08 C1659.84,422.08 1709.5,422.08 1756.57,422.08" fill="none" id="UC34-to-UC17" style="stroke:#181818;stroke-width:1;"/><polygon fill="#181818" points="1762.57,422.08,1753.57,418.08,1757.57,422.08,1753.57,426.08,1762.57,422.08" style="stroke:#181818;stroke-width:1;"/></g><!--link stud to UC31--><g class="link" data-entity-1="stud" data-entity-2="UC31" data-source-line="40" data-uid="lnk33" id="link_stud_UC31"><path d="M70.53,301.52 C104.43,307.38 153.9073,315.9203 201.0473,324.0503" fill="none" id="stud-to-UC31" style="stroke:#181818;stroke-width:1;"/><polygon fill="#181818" points="206.96,325.07,198.7708,319.5986,202.0327,324.2202,197.4111,327.4822,206.96,325.07" style="stroke:#181818;stroke-width:1;"/></g><!--link UC31 to UC12--><g class="link" data-entity-1="UC31" data-entity-2="UC12" data-source-line="41" data-uid="lnk34" id="link_UC31_UC12"><path d="M388.55,353.11 C413,359.33 438.49,368.52 459.8,382.08 C495.23,404.64 484.8,431.87 519.8,455.08 C536.62,466.25 551.6372,472.1229 570.4772,476.9429" fill="none" id="UC31-to-UC12" style="stroke:#181818;stroke-width:1;"/><polygon fill="#181818" points="576.29,478.43,568.5623,472.3241,571.446,477.1907,566.5794,480.0745,576.29,478.43" style="stroke:#181818;stroke-width:1;"/></g><!--link UC31 to UC13--><g class="link" data-entity-1="UC31" data-entity-2="UC13" data-source-line="42" data-uid="lnk35" id="link_UC31_UC13"><path d="M395.12,350.42 C418.32,356.69 441.56,366.58 459.8,382.08 C510.45,425.13 470.16,474.87 519.8,519.08 C534.11,531.83 547.449,538.1275 565.619,542.9275" fill="none" id="UC31-to-UC13" style="stroke:#181818;stroke-width:1;"/><polygon fill="#181818" points="571.42,544.46,563.7401,538.294,566.5858,543.183,561.6969,546.0286,571.42,544.46" style="stroke:#181818;stroke-width:1;"/></g><!--link UC31 to UC14--><g class="link" data-entity-1="UC31" data-entity-2="UC14" data-source-line="43" data-uid="lnk36" id="link_UC31_UC14"><path d="M404.95,338.44 C446.95,337.81 488.4807,337.1808 528.7907,336.5708" fill="none" id="UC31-to-UC14" style="stroke:#181818;stroke-width:1;"/><polygon fill="#181818" points="534.79,336.48,525.7305,332.6166,529.7906,336.5557,525.8516,340.6157,534.79,336.48" style="stroke:#181818;stroke-width:1;"/></g><!--link UC31 to UC15--><g class="link" data-entity-1="UC31" data-entity-2="UC15" data-source-line="44" data-uid="lnk37" id="link_UC31_UC15"><path d="M373.66,357.43 C428.02,369.57 494.3242,384.3626 547.8042,396.3026" fill="none" id="UC31-to-UC15" style="stroke:#181818;stroke-width:1;stroke-dasharray:7,7;"/><polygon fill="#181818" points="553.66,397.61,545.7478,391.745,548.7801,396.5205,544.0047,399.5528,553.66,397.61" style="stroke:#181818;stroke-width:1;"/></g><!--link UC31 to UC21--><g class="link" data-entity-1="UC31" data-entity-2="UC21" data-source-line="45" data-uid="lnk38" id="link_UC31_UC21"><path d="M375.22,323.05 C402.38,316.36 432.74,307.9 459.8,298.08 C504.23,281.97 547.4147,260.8835 580.7747,243.4135" fill="none" id="UC31-to-UC21" style="stroke:#181818;stroke-width:1;"/><polygon fill="#181818" points="586.09,240.63,576.2614,241.2617,581.6606,242.9496,579.9728,248.3488,586.09,240.63" style="stroke:#181818;stroke-width:1;"/></g><!--link stud to UC32--><g class="link" data-entity-1="stud" data-entity-2="UC32" data-source-line="49" data-uid="lnk41" id="link_stud_UC32"><path d="M41.89,334.72 C47.22,378.24 62.46,448.1 106.03,488.08 C123.39,504.02 139.5978,512.9939 162.2778,520.2839" fill="none" id="stud-to-UC32" style="stroke:#181818;stroke-width:1;"/><polygon fill="#181818" points="167.99,522.12,160.6458,515.5578,163.2299,520.59,158.1977,523.174,167.99,522.12" style="stroke:#181818;stroke-width:1;"/></g><!--link UC34 to UC35--><g class="link" data-entity-1="UC34" data-entity-2="UC35" data-source-line="50" data-uid="lnk42" id="link_UC34_UC35"><path d="M1587.83,435.95 C1636.35,451.17 1709.625,474.1543 1769.915,493.0643" fill="none" id="UC34-to-UC35" style="stroke:#181818;stroke-width:1;"/><polygon fill="#181818" points="1775.64,494.86,1768.2496,488.3499,1770.8692,493.3636,1765.8554,495.9832,1775.64,494.86" style="stroke:#181818;stroke-width:1;"/></g><!--link UC35 to notif--><g class="link" data-entity-1="UC35" data-entity-2="notif" data-source-line="51" data-uid="lnk43" id="link_UC35_notif"><path d="M1947.09,547.01 C1984.69,558.37 2022.9862,569.9354 2060.6362,581.3054" fill="none" id="UC35-to-notif" style="stroke:#181818;stroke-width:1;"/><polygon fill="#181818" points="2066.38,583.04,2058.9207,576.6089,2061.5935,581.5945,2056.6079,584.2673,2066.38,583.04" style="stroke:#181818;stroke-width:1;"/></g><!--link notif to UC36--><g class="link" data-entity-1="notif" data-entity-2="UC36" data-source-line="52" data-uid="lnk44" id="link_notif_UC36"><path d="M2108.95,647.68 C2087.03,664.72 2059.14,683.13 2030.77,693.08 C1825.95,764.99 1760.69,728.08 1543.61,728.08 C907.4,728.08 907.4,728.08 907.4,728.08 C723.79,728.08 661.98,701.28 519.8,585.08 C480.55,553.01 499.7,519.36 459.8,488.08 C445.21,476.65 433.636,469.8803 416.046,462.8003" fill="none" id="notif-to-UC36" style="stroke:#181818;stroke-width:1;"/><polygon fill="#181818" points="410.48,460.56,417.3355,467.6312,415.1184,462.427,420.3226,460.2098,410.48,460.56" style="stroke:#181818;stroke-width:1;"/></g><!--link UC36 to stud--><g class="link" data-entity-1="UC36" data-entity-2="stud" data-source-line="53" data-uid="lnk45" id="link_UC36_stud"><path d="M169.21,411.96 C147.05,404.57 125.02,394.85 106.03,382.08 C87.97,369.94 75.9885,356.3084 64.5485,339.5184" fill="none" id="UC36-to-stud" style="stroke:#181818;stroke-width:1;"/><polygon fill="#181818" points="61.17,334.56,62.9321,344.2499,63.9854,338.692,69.5433,339.7453,61.17,334.56" style="stroke:#181818;stroke-width:1;"/></g><!--link stud to UC21--><g class="link" data-entity-1="stud" data-entity-2="UC21" data-source-line="55" data-uid="lnk46" id="link_stud_UC21"><path d="M56.88,257.62 C68.05,238.38 84.44,216.92 106.03,206.08 C255.54,131.01 455.0589,168.9707 557.7589,196.8007" fill="none" id="stud-to-UC21" style="stroke:#181818;stroke-width:1;"/><polygon fill="#181818" points="563.55,198.37,555.9095,192.1553,558.7241,197.0622,553.8171,199.8768,563.55,198.37" style="stroke:#181818;stroke-width:1;"/></g><!--link stud to UC22--><g class="link" data-entity-1="stud" data-entity-2="UC22" data-source-line="56" data-uid="lnk47" id="link_stud_UC22"><path d="M46.22,257.49 C54.55,224.99 71.78,180.46 106.03,159.08 C351.33,6 719.1575,137.7643 852.4575,194.3843" fill="none" id="stud-to-UC22" style="stroke:#181818;stroke-width:1;"/><polygon fill="#181818" points="857.98,196.73,851.2601,189.5298,853.3779,194.7752,848.1325,196.8931,857.98,196.73" style="stroke:#181818;stroke-width:1;"/></g><!--link UC22 to UC23--><g class="link" data-entity-1="UC22" data-entity-2="UC23" data-source-line="57" data-uid="lnk48" id="link_UC22_UC23"><path d="M1019.19,221.52 C1038.82,221.96 1053.5415,222.2879 1073.9715,222.7379" fill="none" id="UC22-to-UC23" style="stroke:#181818;stroke-width:1;"/><polygon fill="#181818" points="1079.97,222.87,1071.0603,218.6728,1074.9712,222.7599,1070.8841,226.6708,1079.97,222.87" style="stroke:#181818;stroke-width:1;"/></g><!--link UC22 to UC24--><g class="link" data-entity-1="UC22" data-entity-2="UC24" data-source-line="58" data-uid="lnk49" id="link_UC22_UC24"><path d="M971.56,239.82 C1003.76,250.49 1043.75,263.62 1079.6,275.08 C1102.69,282.47 1122.1785,288.5851 1145.0085,295.6551" fill="none" id="UC22-to-UC24" style="stroke:#181818;stroke-width:1;"/><polygon fill="#181818" points="1150.74,297.43,1143.3261,290.9466,1145.9638,295.9509,1140.9595,298.5886,1150.74,297.43" style="stroke:#181818;stroke-width:1;"/></g><!--link UC24 to UC25--><g class="link" data-entity-1="UC24" data-entity-2="UC25" data-source-line="59" data-uid="lnk50" id="link_UC24_UC25"><path d="M1352.43,320.08 C1378.49,320.08 1399.74,320.08 1425.19,320.08" fill="none" id="UC24-to-UC25" style="stroke:#181818;stroke-width:1;"/><polygon fill="#181818" points="1431.19,320.08,1422.19,316.08,1426.19,320.08,1422.19,324.08,1431.19,320.08" style="stroke:#181818;stroke-width:1;"/></g><!--link UC25 to log--><g class="link" data-entity-1="UC25" data-entity-2="log" data-source-line="60" data-uid="lnk51" id="link_UC25_log"><path d="M1568.94,295.71 C1600.94,265.69 1658.53,214.25 1713.7,178.08 C1752.71,152.51 1796.3882,131.9738 1826.4282,118.9038" fill="none" id="UC25-to-log" style="stroke:#181818;stroke-width:1;"/><polygon fill="#181818" points="1831.93,116.51,1822.0814,116.4328,1827.3452,118.5048,1825.2731,123.7685,1831.93,116.51" style="stroke:#181818;stroke-width:1;"/></g><!--link UC25 to dev--><g class="link" data-entity-1="UC25" data-entity-2="dev" data-source-line="61" data-uid="lnk52" id="link_UC25_dev"><path d="M1596.3,342.09 C1616.76,352.96 1638.81,367.91 1653.7,387.08 C1709.6,459.02 1651.19,516.82 1713.7,583.08 C1740.24,611.21 1776.8776,623.5977 1809.1176,630.0777" fill="none" id="UC25-to-dev" style="stroke:#181818;stroke-width:1;"/><polygon fill="#181818" points="1815,631.26,1806.9647,625.565,1810.098,630.2747,1805.3883,633.4081,1815,631.26" style="stroke:#181818;stroke-width:1;"/></g><!--SRC=[ZLIxRjim5Dtr5OI7e1sImgJj01qo9B2d9Xs2TkX6IrSKOPeKICfjN7JlX-GREdNpse_g9HL9P5gaNGGStNFlEJnyAAWzyOPOAHfFAccXzDBeek2bDvRCxZf_1FjMwXdXZZZVLKDbhVrdMUxKLAtWC1JV6I6a5l6tCcBuVGsQbusLPUEbwBHmbGJjVAHfusLT52qlTrn06E4yEICRq-cAt3yu3_iP-LeGqZaekKF6Hx2gStuFgi9PX6kZ7_Q4TxM0BVIMFjpCvsdBU-kHbzLfMly4yWy2ImdNu7018BUzOaPSfCIDmLGRgOzTtVtwBa2JLwODqNBrUcXOfWstJyjmBM0-OCUngx-n3c1FF-eQj5U1FP8lYvIznZtWw90Sk9AOjGqsRXI6xWSJTFxFXdkmA3Ssq6TxuFpfKLVH1jb0WmTYsf4ZI36QercIwoybn408tzOXIOsxlUTk5rM7bZpJE9sq5hFT6QKYymt7VtxgM6O9t467hl08JPuKJ9ROFD_SPyUpjQV7EeWSqPq3l0fZOvR2BVSbxhL0QwUVzKHQl3ITe0smVSPdE5rNK-FonKROjsDYKdkmNAIXiLNnhIZ2NINdvrVz7GYV0IrwT75nrH_2jBPA4GrzT4Gq89enLq-8XPbiCTGkCtaMnh1HWcQ8PMZHeyGQ-qypcI1DtR0uPXbH_yZ4xr0Dws3zEkBpbWv2pHHbcfHbA3YdWoGDahIN3C_V2F29_0q0]--></g></svg>