<svg xmlns="http://www.w3.org/2000/svg" xmlns:xlink="http://www.w3.org/1999/xlink" contentStyleType="text/css" data-diagram-type="DESCRIPTION" height="693px" preserveAspectRatio="none" style="width:2454px;height:693px;background:#FFFFFF;" version="1.1" viewBox="0 0 2454 693" width="2454px" zoomAndPan="magnify"><defs/><g><!--cluster Lost & Found System--><g class="cluster" data-entity="Lost . Found System" data-source-line="8" data-uid="ent0006" id="cluster_Lost . Found System"><path d="M116.53,6 L285.3796,6 A3.75,3.75 0 0 1 287.8796,8.5 L294.8796,28.2969 L2227.01,28.2969 A2.5,2.5 0 0 1 2229.51,30.7969 L2229.51,427.5 A2.5,2.5 0 0 1 2227.01,430 L116.53,430 A2.5,2.5 0 0 1 114.03,427.5 L114.03,8.5 A2.5,2.5 0 0 1 116.53,6" fill="none" style="stroke:#000000;stroke-width:1.5;"/><line style="stroke:#000000;stroke-width:1.5;" x1="114.03" x2="294.8796" y1="28.2969" y2="28.2969"/><text fill="#000000" font-family="sans-serif" font-size="14" font-weight="bold" lengthAdjust="spacing" textLength="167.8496" x="118.03" y="20.9951">Lost &amp; Found System</text></g><!--entity UC1--><g class="entity" data-entity="UC1" data-source-line="9" data-uid="ent0007" id="entity_UC1"><ellipse cx="294.916" cy="280.0012" fill="#F1F1F1" rx="131.206" ry="28.6412" style="stroke:#181818;stroke-width:0.5;"/><text fill="#000000" font-family="sans-serif" font-size="14" lengthAdjust="spacing" textLength="243.1201" x="173.3559" y="284.6496">Verlustmeldung anonym aufgeben</text></g><!--entity UC2--><g class="entity" data-entity="UC2" data-source-line="10" data-uid="ent0008" id="entity_UC2"><ellipse cx="628.5107" cy="120.9961" fill="#F1F1F1" rx="62.9807" ry="14.9961" style="stroke:#181818;stroke-width:0.5;"/><text fill="#000000" font-family="sans-serif" font-size="14" lengthAdjust="spacing" textLength="88.04" x="584.4907" y="125.6446">Ort angeben</text></g><!--entity UC3--><g class="entity" data-entity="UC3" data-source-line="11" data-uid="ent0009" id="entity_UC3"><ellipse cx="628.5086" cy="56.0017" fill="#F1F1F1" rx="64.9586" ry="15.3917" style="stroke:#181818;stroke-width:0.5;"/><text fill="#000000" font-family="sans-serif" font-size="14" lengthAdjust="spacing" textLength="93.3584" x="581.8294" y="60.6502">Zeit angeben</text></g><!--entity UC4--><g class="entity" data-entity="UC4" data-source-line="12" data-uid="ent0010" id="entity_UC4"><ellipse cx="628.5067" cy="192.0013" fill="#F1F1F1" rx="93.5067" ry="21.1013" style="stroke:#181818;stroke-width:0.5;"/><text fill="#000000" font-family="sans-serif" font-size="14" lengthAdjust="spacing" textLength="161.6357" x="547.6888" y="196.6498">Beschreibung angeben</text></g><!--entity UC5--><g class="entity" data-entity="UC5" data-source-line="13" data-uid="ent0011" id="entity_UC5"><ellipse cx="628.5076" cy="353.9995" fill="#F1F1F1" rx="104.1976" ry="23.2395" style="stroke:#181818;stroke-width:0.5;"/><text fill="#000000" font-family="sans-serif" font-size="14" lengthAdjust="spacing" textLength="185.2676" x="535.8738" y="358.6479">Foto hinzufu&#776;gen (optional)</text></g><!--entity UC6--><g class="entity" data-entity="UC6" data-source-line="14" data-uid="ent0012" id="entity_UC6"><ellipse cx="1225.5587" cy="374.0017" fill="#F1F1F1" rx="81.0087" ry="18.6017" style="stroke:#181818;stroke-width:0.5;"/><text fill="#000000" font-family="sans-serif" font-size="14" lengthAdjust="spacing" textLength="133.0479" x="1159.0348" y="378.6502">Meldung speichern</text></g><!--entity UC7--><g class="entity" data-entity="UC7" data-source-line="15" data-uid="ent0013" id="entity_UC7"><ellipse cx="1542.6085" cy="307.0017" fill="#F1F1F1" rx="97.4585" ry="21.8917" style="stroke:#181818;stroke-width:0.5;"/><text fill="#000000" font-family="sans-serif" font-size="14" lengthAdjust="spacing" textLength="170.4404" x="1457.3883" y="311.6501">Meldung ver&#246;ffentlichen</text></g><!--entity UC8--><g class="entity" data-entity="UC8" data-source-line="16" data-uid="ent0014" id="entity_UC8"><ellipse cx="628.5057" cy="272.0011" fill="#F1F1F1" rx="108.7057" ry="24.1411" style="stroke:#181818;stroke-width:0.5;"/><text fill="#000000" font-family="sans-serif" font-size="14" lengthAdjust="spacing" textLength="195.0771" x="530.9671" y="276.6496">Eingaben validieren (Client)</text></g><!--entity UC9--><g class="entity" data-entity="UC9" data-source-line="17" data-uid="ent0015" id="entity_UC9"><ellipse cx="908.4028" cy="282.9986" fill="#F1F1F1" rx="111.1928" ry="24.6386" style="stroke:#181818;stroke-width:0.5;"/><text fill="#000000" font-family="sans-serif" font-size="14" lengthAdjust="spacing" textLength="200.457" x="808.1743" y="287.647">Eingaben validieren (Server)</text></g><!--entity UC10--><g class="entity" data-entity="UC10" data-source-line="18" data-uid="ent0016" id="entity_UC10"><ellipse cx="1225.5616" cy="199.0023" fill="#F1F1F1" rx="145.9616" ry="31.5923" style="stroke:#181818;stroke-width:0.5;"/><text fill="#000000" font-family="sans-serif" font-size="14" lengthAdjust="spacing" textLength="274.0664" x="1088.5284" y="203.6508">Verst&#228;ndliche Fehlermeldung anzeigen</text></g><!--entity UC11--><g class="entity" data-entity="UC11" data-source-line="19" data-uid="ent0017" id="entity_UC11"><ellipse cx="1225.5569" cy="293.0034" fill="#F1F1F1" rx="126.4169" ry="27.6834" style="stroke:#181818;stroke-width:0.5;"/><text fill="#000000" font-family="sans-serif" font-size="14" lengthAdjust="spacing" textLength="232.9961" x="1109.0588" y="297.6518">Exception abfangen &amp; maskieren</text></g><!--entity UC12--><g class="entity" data-entity="UC12" data-source-line="20" data-uid="ent0018" id="entity_UC12"><ellipse cx="1542.6115" cy="388.9983" fill="#F1F1F1" rx="111.0915" ry="24.6183" style="stroke:#181818;stroke-width:0.5;"/><text fill="#000000" font-family="sans-serif" font-size="14" lengthAdjust="spacing" textLength="200.2383" x="1442.4923" y="393.6467">Fehler protokollieren/alerten</text></g><!--entity UC13--><g class="entity" data-entity="UC13" data-source-line="21" data-uid="ent0019" id="entity_UC13"><ellipse cx="294.9234" cy="96.0047" fill="#F1F1F1" rx="110.1234" ry="24.4247" style="stroke:#181818;stroke-width:0.5;"/><text fill="#000000" font-family="sans-serif" font-size="14" lengthAdjust="spacing" textLength="198.1465" x="195.8502" y="100.6531">Neue Fundmeldung anlegen</text></g><!--entity UC14--><g class="entity" data-entity="UC14" data-source-line="22" data-uid="ent0020" id="entity_UC14"><ellipse cx="294.9221" cy="185.9964" fill="#F1F1F1" rx="142.1821" ry="30.8364" style="stroke:#181818;stroke-width:0.5;"/><text fill="#000000" font-family="sans-serif" font-size="14" lengthAdjust="spacing" textLength="266.1709" x="161.8367" y="190.6449">Benachrichtigungspr&#228;ferenzen setzen</text></g><!--entity UC15--><g class="entity" data-entity="UC15" data-source-line="23" data-uid="ent0021" id="entity_UC15"><ellipse cx="1787.0683" cy="326.0037" fill="#F1F1F1" rx="73.3683" ry="17.0737" style="stroke:#181818;stroke-width:0.5;"/><text fill="#000000" font-family="sans-serif" font-size="14" lengthAdjust="spacing" textLength="114.748" x="1729.6943" y="330.6521">Matching pr&#252;fen</text></g><!--entity UC16--><g class="entity" data-entity="UC16" data-source-line="24" data-uid="ent0022" id="entity_UC16"><ellipse cx="2066.9651" cy="344.997" fill="#F1F1F1" rx="146.5351" ry="31.707" style="stroke:#181818;stroke-width:0.5;"/><text fill="#000000" font-family="sans-serif" font-size="14" lengthAdjust="spacing" textLength="275.2627" x="1929.3337" y="349.6454">Benachrichtigung generieren &amp; senden</text></g><!--entity UC17--><g class="entity" data-entity="UC17" data-source-line="25" data-uid="ent0023" id="entity_UC17"><ellipse cx="294.9236" cy="378.9967" fill="#F1F1F1" rx="164.8836" ry="35.3767" style="stroke:#181818;stroke-width:0.5;"/><text fill="#000000" font-family="sans-serif" font-size="14" lengthAdjust="spacing" textLength="313.3457" x="138.2508" y="383.6452">Benachrichtigung empfangen &amp; interagieren</text></g><!--entity stud--><g class="entity" data-entity="stud" data-source-line="3" data-uid="ent0002" id="entity_stud"><ellipse cx="38.0161" cy="203.35" fill="#F1F1F1" rx="8" ry="8" style="stroke:#181818;stroke-width:0.5;"/><path d="M38.0161,211.35 L38.0161,238.35 M25.0161,219.35 L51.0161,219.35 M38.0161,238.35 L25.0161,253.35 M38.0161,238.35 L51.0161,253.35" fill="none" style="stroke:#181818;stroke-width:0.5;"/><text fill="#000000" font-family="sans-serif" font-size="14" lengthAdjust="spacing" textLength="64.0322" x="6" y="267.8451">Nutzer:in</text></g><!--entity dev--><g class="entity" data-entity="dev" data-source-line="4" data-uid="ent0003" id="entity_dev"><ellipse cx="1787.0754" cy="454.35" fill="#F1F1F1" rx="8" ry="8" style="stroke:#181818;stroke-width:0.5;"/><path d="M1787.0754,462.35 L1787.0754,489.35 M1774.0754,470.35 L1800.0754,470.35 M1787.0754,489.35 L1774.0754,504.35 M1787.0754,489.35 L1800.0754,504.35" fill="none" style="stroke:#181818;stroke-width:0.5;"/><text fill="#000000" font-family="sans-serif" font-size="14" lengthAdjust="spacing" textLength="90.0908" x="1742.03" y="518.8451">Entwickler:in</text></g><!--entity log--><g class="entity" data-entity="log" data-source-line="5" data-uid="ent0004" id="entity_log"><ellipse cx="1787.074" cy="565.35" fill="#F1F1F1" rx="8" ry="8" style="stroke:#181818;stroke-width:0.5;"/><path d="M1787.074,573.35 L1787.074,600.35 M1774.074,581.35 L1800.074,581.35 M1787.074,600.35 L1774.074,615.35 M1787.074,600.35 L1800.074,615.35" fill="none" style="stroke:#181818;stroke-width:0.5;"/><text fill="#000000" font-family="sans-serif" font-size="14" lengthAdjust="spacing" textLength="55.7881" x="1759.18" y="629.8451">Logging</text></g><!--entity notif--><g class="entity" data-entity="notif" data-source-line="6" data-uid="ent0005" id="entity_notif"><ellipse cx="2360.3572" cy="504.35" fill="#F1F1F1" rx="8" ry="8" style="stroke:#181818;stroke-width:0.5;"/><path d="M2360.3572,512.35 L2360.3572,539.35 M2347.3572,520.35 L2373.3572,520.35 M2360.3572,539.35 L2347.3572,554.35 M2360.3572,539.35 L2373.3572,554.35" fill="none" style="stroke:#181818;stroke-width:0.5;"/><text fill="#000000" font-family="sans-serif" font-size="14" lengthAdjust="spacing" textLength="173.6943" x="2273.51" y="568.8451">Benachrichtigungsdienst</text></g><!--link stud to UC1--><g class="link" data-entity-1="stud" data-entity-2="UC1" data-source-line="28" data-uid="lnk24" id="link_stud_UC1"><path d="M70.53,238.81 C101.23,244.47 143.6595,252.2919 187.5295,260.3819" fill="none" id="stud-to-UC1" style="stroke:#181818;stroke-width:1;"/><polygon fill="#181818" points="193.43,261.47,185.3046,255.9042,188.5129,260.5632,183.8538,263.7715,193.43,261.47" style="stroke:#181818;stroke-width:1;"/></g><!--link UC1 to UC4--><g class="link" data-entity-1="UC1" data-entity-2="UC4" data-source-line="29" data-uid="lnk25" id="link_UC1_UC4"><path d="M379.59,257.79 C437.82,242.34 508.3307,223.629 560.8207,209.699" fill="none" id="UC1-to-UC4" style="stroke:#181818;stroke-width:1;"/><polygon fill="#181818" points="566.62,208.16,556.8951,206.6024,561.7873,209.4425,558.9471,214.3347,566.62,208.16" style="stroke:#181818;stroke-width:1;"/></g><!--link UC1 to UC5--><g class="link" data-entity-1="UC1" data-entity-2="UC5" data-source-line="30" data-uid="lnk26" id="link_UC1_UC5"><path d="M387.84,300.51 C440.07,312.17 498.734,325.2633 547.674,336.1833" fill="none" id="UC1-to-UC5" style="stroke:#181818;stroke-width:1;stroke-dasharray:7,7;"/><polygon fill="#181818" points="553.53,337.49,545.6171,331.626,548.65,336.4011,543.8749,339.434,553.53,337.49" style="stroke:#181818;stroke-width:1;"/></g><!--link UC1 to UC6--><g class="link" data-entity-1="UC1" data-entity-2="UC6" data-source-line="31" data-uid="lnk27" id="link_UC1_UC6"><path d="M396.9,298.43 C418.67,305.05 440.82,313.99 459.8,326 C494.14,347.74 482.82,378.15 519.8,395 C746.76,498.41 1053.1242,425.6043 1171.0742,390.8843" fill="none" id="UC1-to-UC6" style="stroke:#181818;stroke-width:1;"/><polygon fill="#181818" points="1176.83,389.19,1167.0668,387.8942,1172.0335,390.6019,1169.3258,395.5686,1176.83,389.19" style="stroke:#181818;stroke-width:1;"/></g><!--link UC1 to UC8--><g class="link" data-entity-1="UC1" data-entity-2="UC8" data-source-line="32" data-uid="lnk28" id="link_UC1_UC8"><path d="M425.54,276.87 C456.78,276.12 483.8317,275.4634 513.9417,274.7434" fill="none" id="UC1-to-UC8" style="stroke:#181818;stroke-width:1;"/><polygon fill="#181818" points="519.94,274.6,510.847,270.8163,514.9414,274.7195,511.0382,278.814,519.94,274.6" style="stroke:#181818;stroke-width:1;"/></g><!--link UC8 to UC9--><g class="link" data-entity-1="UC8" data-entity-2="UC9" data-source-line="33" data-uid="lnk29" id="link_UC8_UC9"><path d="M735.76,276.21 C756.29,277.02 771.8347,277.6316 792.4547,278.4516" fill="none" id="UC8-to-UC9" style="stroke:#181818;stroke-width:1;"/><polygon fill="#181818" points="798.45,278.69,789.6161,274.3355,793.4539,278.4913,789.2982,282.3292,798.45,278.69" style="stroke:#181818;stroke-width:1;"/></g><!--link UC9 to UC6--><g class="link" data-entity-1="UC9" data-entity-2="UC6" data-source-line="34" data-uid="lnk30" id="link_UC9_UC6"><path d="M970.54,303.89 C1002.81,314.63 1043.17,327.6 1079.6,338 C1108.27,346.18 1134.6069,352.8746 1161.3369,359.3146" fill="none" id="UC9-to-UC6" style="stroke:#181818;stroke-width:1;"/><polygon fill="#181818" points="1167.17,360.72,1159.3573,354.7232,1162.3091,359.5489,1157.4835,362.5007,1167.17,360.72" style="stroke:#181818;stroke-width:1;"/></g><!--link UC6 to UC7--><g class="link" data-entity-1="UC6" data-entity-2="UC7" data-source-line="35" data-uid="lnk31" id="link_UC6_UC7"><path d="M1286.19,361.32 C1338.64,350.17 1409.2012,335.1581 1464.7812,323.3381" fill="none" id="UC6-to-UC7" style="stroke:#181818;stroke-width:1;"/><polygon fill="#181818" points="1470.65,322.09,1461.0148,320.0496,1465.7594,323.1301,1462.6789,327.8746,1470.65,322.09" style="stroke:#181818;stroke-width:1;"/></g><!--link UC7 to UC15--><g class="link" data-entity-1="UC7" data-entity-2="UC15" data-source-line="36" data-uid="lnk32" id="link_UC7_UC15"><path d="M1635.27,314.18 C1662.36,316.31 1685.5683,318.1215 1710.9783,320.1115" fill="none" id="UC7-to-UC15" style="stroke:#181818;stroke-width:1;"/><polygon fill="#181818" points="1716.96,320.58,1708.2998,315.8895,1711.9753,320.1896,1707.6752,323.8651,1716.96,320.58" style="stroke:#181818;stroke-width:1;"/></g><!--link stud to UC13--><g class="link" data-entity-1="stud" data-entity-2="UC13" data-source-line="38" data-uid="lnk33" id="link_stud_UC13"><path d="M57.21,194.83 C68.57,174.98 85.04,152 106.03,138 C131.34,121.12 156.5149,112.158 186.0349,106.038" fill="none" id="stud-to-UC13" style="stroke:#181818;stroke-width:1;"/><polygon fill="#181818" points="191.91,104.82,182.2854,102.7303,187.0141,105.835,183.9094,110.5637,191.91,104.82" style="stroke:#181818;stroke-width:1;"/></g><!--link UC13 to UC2--><g class="link" data-entity-1="UC13" data-entity-2="UC2" data-source-line="39" data-uid="lnk34" id="link_UC13_UC2"><path d="M399.47,103.81 C454.96,107.99 515.337,112.5386 562.127,116.0686" fill="none" id="UC13-to-UC2" style="stroke:#181818;stroke-width:1;"/><polygon fill="#181818" points="568.11,116.52,559.4364,111.8543,563.1242,116.1439,558.8346,119.8316,568.11,116.52" style="stroke:#181818;stroke-width:1;"/></g><!--link UC13 to UC3--><g class="link" data-entity-1="UC13" data-entity-2="UC3" data-source-line="40" data-uid="lnk35" id="link_UC13_UC3"><path d="M392.27,84.38 C449.83,77.43 515.0532,69.5687 563.9532,63.6687" fill="none" id="UC13-to-UC3" style="stroke:#181818;stroke-width:1;"/><polygon fill="#181818" points="569.91,62.95,560.4957,60.0569,564.946,63.5489,561.4539,67.9993,569.91,62.95" style="stroke:#181818;stroke-width:1;"/></g><!--link UC13 to UC4--><g class="link" data-entity-1="UC13" data-entity-2="UC4" data-source-line="41" data-uid="lnk36" id="link_UC13_UC4"><path d="M370.41,114.08 C398.53,121.17 430.73,129.6 459.8,138 C498.74,149.25 536.5963,161.4273 569.5663,172.3873" fill="none" id="UC13-to-UC4" style="stroke:#181818;stroke-width:1;"/><polygon fill="#181818" points="575.26,174.28,567.9813,167.6452,570.5153,172.7027,565.4577,175.2367,575.26,174.28" style="stroke:#181818;stroke-width:1;"/></g><!--link UC13 to UC5--><g class="link" data-entity-1="UC13" data-entity-2="UC5" data-source-line="42" data-uid="lnk37" id="link_UC13_UC5"><path d="M396.91,105.51 C419.8,111.83 442.44,121.94 459.8,138 C520.46,194.12 462.16,254.78 519.8,314 C529.54,324.01 536.4986,329.1353 549.4786,334.7853" fill="none" id="UC13-to-UC5" style="stroke:#181818;stroke-width:1;stroke-dasharray:7,7;"/><polygon fill="#181818" points="554.98,337.18,548.3243,329.9204,550.3955,335.1844,545.1314,337.2556,554.98,337.18" style="stroke:#181818;stroke-width:1;"/></g><!--link UC13 to UC8--><g class="link" data-entity-1="UC13" data-entity-2="UC8" data-source-line="43" data-uid="lnk38" id="link_UC13_UC8"><path d="M391.76,107.98 C415.55,114.21 439.9,123.66 459.8,138 C499.71,166.75 481.58,200.04 519.8,231 C531.15,240.19 539.2418,245.1717 552.9418,250.8817" fill="none" id="UC13-to-UC8" style="stroke:#181818;stroke-width:1;"/><polygon fill="#181818" points="558.48,253.19,551.7115,246.0355,553.8648,251.2664,548.6338,253.4197,558.48,253.19" style="stroke:#181818;stroke-width:1;"/></g><!--link stud to UC14--><g class="link" data-entity-1="stud" data-entity-2="UC14" data-source-line="45" data-uid="lnk39" id="link_stud_UC14"><path d="M70.53,227.19 C99.37,221.87 137.8596,214.7785 179.4896,207.0985" fill="none" id="stud-to-UC14" style="stroke:#181818;stroke-width:1;"/><polygon fill="#181818" points="185.39,206.01,175.8137,203.7092,180.473,206.9171,177.265,211.5764,185.39,206.01" style="stroke:#181818;stroke-width:1;"/></g><!--link UC15 to UC16--><g class="link" data-entity-1="UC15" data-entity-2="UC16" data-source-line="46" data-uid="lnk40" id="link_UC15_UC16"><path d="M1857.84,330.77 C1878.9,332.21 1896.8241,333.4296 1920.7441,335.0696" fill="none" id="UC15-to-UC16" style="stroke:#181818;stroke-width:1;"/><polygon fill="#181818" points="1926.73,335.48,1918.0247,330.8738,1921.7417,335.138,1917.4775,338.855,1926.73,335.48" style="stroke:#181818;stroke-width:1;"/></g><!--link UC16 to notif--><g class="link" data-entity-1="UC16" data-entity-2="notif" data-source-line="47" data-uid="lnk41" id="link_UC16_notif"><path d="M2114.79,375.37 C2165.06,407.97 2240.0465,456.6045 2294.7665,492.1045" fill="none" id="UC16-to-notif" style="stroke:#181818;stroke-width:1;"/><polygon fill="#181818" points="2299.8,495.37,2294.4267,487.116,2295.6054,492.6487,2290.0727,493.8274,2299.8,495.37" style="stroke:#181818;stroke-width:1;"/></g><!--link notif to UC17--><g class="link" data-entity-1="notif" data-entity-2="UC17" data-source-line="48" data-uid="lnk42" id="link_notif_UC17"><path d="M2273.18,571.96 C2162.95,616.99 1965.11,686 1788.07,686 C907.4,686 907.4,686 907.4,686 C666.86,686 428.7467,497.8823 337.8567,417.5923" fill="none" id="notif-to-UC17" style="stroke:#181818;stroke-width:1;"/><polygon fill="#181818" points="333.36,413.62,337.4569,422.5763,337.1073,416.9303,342.7533,416.5806,333.36,413.62" style="stroke:#181818;stroke-width:1;"/></g><!--link UC17 to stud--><g class="link" data-entity-1="UC17" data-entity-2="stud" data-source-line="49" data-uid="lnk43" id="link_UC17_stud"><path d="M167.83,356.12 C146.05,348.71 124.5,338.92 106.03,326 C86.14,312.08 73.0913,295.4363 61.6313,276.4563" fill="none" id="UC17-to-stud" style="stroke:#181818;stroke-width:1;"/><polygon fill="#181818" points="58.53,271.32,59.7577,281.092,61.1144,275.6003,66.6062,276.957,58.53,271.32" style="stroke:#181818;stroke-width:1;"/></g><!--link UC9 to UC10--><g class="link" data-entity-1="UC9" data-entity-2="UC10" data-source-line="50" data-uid="lnk44" id="link_UC9_UC10"><path d="M980.92,263.94 C1025.68,252.01 1078.0224,238.0552 1126.2724,225.1952" fill="none" id="UC9-to-UC10" style="stroke:#181818;stroke-width:1;"/><polygon fill="#181818" points="1132.07,223.65,1122.3434,222.1028,1127.2387,224.9377,1124.4037,229.8329,1132.07,223.65" style="stroke:#181818;stroke-width:1;"/></g><!--link UC9 to UC11--><g class="link" data-entity-1="UC9" data-entity-2="UC11" data-source-line="51" data-uid="lnk45" id="link_UC9_UC11"><path d="M1018.74,286.47 C1044.97,287.3 1067.163,288.0102 1094.023,288.8602" fill="none" id="UC9-to-UC11" style="stroke:#181818;stroke-width:1;"/><polygon fill="#181818" points="1100.02,289.05,1091.151,284.7673,1095.0225,288.8919,1090.898,292.7633,1100.02,289.05" style="stroke:#181818;stroke-width:1;"/></g><!--link UC11 to UC12--><g class="link" data-entity-1="UC11" data-entity-2="UC12" data-source-line="52" data-uid="lnk46" id="link_UC11_UC12"><path d="M1300.82,315.63 C1353.94,331.82 1419.0507,351.6506 1470.1307,367.2206" fill="none" id="UC11-to-UC12" style="stroke:#181818;stroke-width:1;"/><polygon fill="#181818" points="1475.87,368.97,1468.4273,362.5197,1471.0873,367.5121,1466.0948,370.1721,1475.87,368.97" style="stroke:#181818;stroke-width:1;"/></g><!--link UC12 to log--><g class="link" data-entity-1="UC12" data-entity-2="log" data-source-line="53" data-uid="lnk47" id="link_UC12_log"><path d="M1569.58,413.17 C1602.49,443.54 1661.23,496.88 1713.7,540 C1728.33,552.02 1740.3408,561.2723 1754.0808,571.5223" fill="none" id="UC12-to-log" style="stroke:#181818;stroke-width:1;"/><polygon fill="#181818" points="1758.89,575.11,1754.0679,566.5223,1754.8823,572.1203,1749.2844,572.9346,1758.89,575.11" style="stroke:#181818;stroke-width:1;"/></g><!--link UC12 to dev--><g class="link" data-entity-1="UC12" data-entity-2="dev" data-source-line="54" data-uid="lnk48" id="link_UC12_dev"><path d="M1598.93,410.68 C1642.26,427.65 1696.1334,448.7615 1736.3134,464.5015" fill="none" id="UC12-to-dev" style="stroke:#181818;stroke-width:1;"/><polygon fill="#181818" points="1741.9,466.69,1734.979,459.6828,1737.2445,464.8663,1732.0611,467.1317,1741.9,466.69" style="stroke:#181818;stroke-width:1;"/></g><!--SRC=[XLIzSjim3Dxr53mFkNP8Ml_R7J8a5qzDEkJQeHijGHJF5AaZ8RTnhtiV9C_GgPlNF5GXIhGeNoyTf0E83y2d3n0LvCZGC2j5WIoJ5bAKHYS9Jz5ODdgeyG3sWzGZnXrpM6SXSgVncqntgezci0_1ZqO8gOK_LaQ4unlGF2siJ0kKejR2PHAqGm_J1cMU91LFTrn0Ky8Xks0RK-kCFJuvX7B4VYICrGvIxWZn1Qog7PQWCgh5k3RwgMIypWLieQNq-NOSPtooIB0uF8d3Nq6UnwTn_0OSiGUvRTl5k5cCsnXIj93wKEVrooy1chqnLIChLsyx_3p6ttTVu2eWQS26eej_WVPWZx_p73Ig1XomonXxHzfp8iVsN4dIs3OKRXM9ZO70wh_uHx3KA-3NPyexF3xhp5DW6oXe3Vev742AVW3l1vs-f-2bO7oRDn9gcd79tSut3Ic3eRNLMML9rPrHoYFVSJh3FcCmnmUeYHJjJKz9GSJeRAXdErdPutFUz3WGEGUq_wV4mPJlEQOqP47CZd_o7ZH_hJeZ6c1RXI-ekixwnCMhYL1M9y6aHh1S33HR9Z-JfFb1sUNbjLzyUZfxvkshgsk_UVtv8h9NPAywUqtsEi8iEdj9zZBKdm_RJPjQqywRnCuWCckTYClqH61GpmFdmVDCMnhjHU7V8Thm6hV4_1NLiwVjYnolIVZWiISvyLvpHvqSkiV-0W00]--></g></svg>