<svg xmlns="http://www.w3.org/2000/svg" xmlns:xlink="http://www.w3.org/1999/xlink" contentStyleType="text/css" data-diagram-type="DESCRIPTION" height="400px" preserveAspectRatio="none" style="width:1102px;height:400px;background:#FFFFFF;" version="1.1" viewBox="0 0 1102 400" width="1102px" zoomAndPan="magnify"><defs/><g><!--cluster Lost & Found System--><g class="cluster" data-entity="Lost . Found System" data-source-line="4" data-uid="ent0003" id="cluster_Lost . Found System"><path d="M8.5,97.65 L177.3496,97.65 A3.75,3.75 0 0 1 179.8496,100.15 L186.8496,119.9469 L1092.93,119.9469 A2.5,2.5 0 0 1 1095.43,122.4469 L1095.43,391.15 A2.5,2.5 0 0 1 1092.93,393.65 L8.5,393.65 A2.5,2.5 0 0 1 6,391.15 L6,100.15 A2.5,2.5 0 0 1 8.5,97.65" fill="none" style="stroke:#000000;stroke-width:1.5;"/><line style="stroke:#000000;stroke-width:1.5;" x1="6" x2="186.8496" y1="119.9469" y2="119.9469"/><text fill="#000000" font-family="sans-serif" font-size="14" font-weight="bold" lengthAdjust="spacing" textLength="167.8496" x="10" y="112.6451">Lost &amp; Found System</text></g><!--entity UC1--><g class="entity" data-entity="UC1" data-source-line="5" data-uid="ent0004" id="entity_UC1"><ellipse cx="421.596" cy="226.6512" fill="#F1F1F1" rx="131.206" ry="28.6412" style="stroke:#181818;stroke-width:0.5;"/><text fill="#000000" font-family="sans-serif" font-size="14" lengthAdjust="spacing" textLength="243.1201" x="300.0359" y="231.2996">Verlustmeldung anonym aufgeben</text></g><!--entity UC2--><g class="entity" data-entity="UC2" data-source-line="6" data-uid="ent0005" id="entity_UC2"><ellipse cx="706.3107" cy="362.6461" fill="#F1F1F1" rx="62.9807" ry="14.9961" style="stroke:#181818;stroke-width:0.5;"/><text fill="#000000" font-family="sans-serif" font-size="14" lengthAdjust="spacing" textLength="88.04" x="662.2907" y="367.2946">Ort angeben</text></g><!--entity UC3--><g class="entity" data-entity="UC3" data-source-line="7" data-uid="ent0006" id="entity_UC3"><ellipse cx="706.3086" cy="297.6517" fill="#F1F1F1" rx="64.9586" ry="15.3917" style="stroke:#181818;stroke-width:0.5;"/><text fill="#000000" font-family="sans-serif" font-size="14" lengthAdjust="spacing" textLength="93.3584" x="659.6294" y="302.3002">Zeit angeben</text></g><!--entity UC4--><g class="entity" data-entity="UC4" data-source-line="8" data-uid="ent0007" id="entity_UC4"><ellipse cx="706.3067" cy="226.6513" fill="#F1F1F1" rx="93.5067" ry="21.1013" style="stroke:#181818;stroke-width:0.5;"/><text fill="#000000" font-family="sans-serif" font-size="14" lengthAdjust="spacing" textLength="161.6357" x="625.4888" y="231.2998">Beschreibung angeben</text></g><!--entity UC5--><g class="entity" data-entity="UC5" data-source-line="9" data-uid="ent0008" id="entity_UC5"><ellipse cx="126.1976" cy="226.6495" fill="#F1F1F1" rx="104.1976" ry="23.2395" style="stroke:#181818;stroke-width:0.5;"/><text fill="#000000" font-family="sans-serif" font-size="14" lengthAdjust="spacing" textLength="185.2676" x="33.5638" y="231.2979">Foto hinzufu&#776;gen (optional)</text></g><!--entity UC6--><g class="entity" data-entity="UC6" data-source-line="10" data-uid="ent0009" id="entity_UC6"><ellipse cx="706.3087" cy="151.6517" fill="#F1F1F1" rx="81.0087" ry="18.6017" style="stroke:#181818;stroke-width:0.5;"/><text fill="#000000" font-family="sans-serif" font-size="14" lengthAdjust="spacing" textLength="133.0479" x="639.7848" y="156.3002">Meldung speichern</text></g><!--entity UC7--><g class="entity" data-entity="UC7" data-source-line="11" data-uid="ent0010" id="entity_UC7"><ellipse cx="969.6243" cy="156.6509" fill="#F1F1F1" rx="109.8043" ry="24.3609" style="stroke:#181818;stroke-width:0.5;"/><text fill="#000000" font-family="sans-serif" font-size="14" lengthAdjust="spacing" textLength="197.4561" x="870.8962" y="161.2993">Meldung auffindbar machen</text></g><!--entity s--><g class="entity" data-entity="s" data-source-line="2" data-uid="ent0002" id="entity_s"><ellipse cx="126.1957" cy="14" fill="#F1F1F1" rx="8" ry="8" style="stroke:#181818;stroke-width:0.5;"/><path d="M126.1957,22 L126.1957,49 M113.1957,30 L139.1957,30 M126.1957,49 L113.1957,64 M126.1957,49 L139.1957,64" fill="none" style="stroke:#181818;stroke-width:0.5;"/><text fill="#000000" font-family="sans-serif" font-size="14" lengthAdjust="spacing" textLength="55.1113" x="98.64" y="78.4951">Student</text></g><!--link s to UC1--><g class="link" data-entity-1="s" data-entity-2="UC1" data-source-line="14" data-uid="lnk11" id="link_s_UC1"><path d="M154.01,60.38 C204.73,92.01 310.0292,157.6845 371.6692,196.1345" fill="none" id="s-to-UC1" style="stroke:#181818;stroke-width:1;"/><polygon fill="#181818" points="376.76,199.31,371.2409,191.1528,372.5177,196.6637,367.0068,197.9405,376.76,199.31" style="stroke:#181818;stroke-width:1;"/></g><!--link UC1 to UC2--><g class="link" data-entity-1="UC1" data-entity-2="UC2" data-source-line="16" data-uid="lnk12" id="link_UC1_UC2"><path d="M467.25,253.85 C505.13,276.23 561.36,307.88 612.81,330.65 C629.9,338.22 643.6811,343.3132 660.3511,348.8032" fill="none" id="UC1-to-UC2" style="stroke:#181818;stroke-width:1;"/><polygon fill="#181818" points="666.05,350.68,658.7529,344.0655,661.3009,349.116,656.2504,351.664,666.05,350.68" style="stroke:#181818;stroke-width:1;"/></g><!--link UC1 to UC3--><g class="link" data-entity-1="UC1" data-entity-2="UC3" data-source-line="17" data-uid="lnk13" id="link_UC1_UC3"><path d="M508.96,248.34 C558.97,260.9 614.0509,274.7277 654.6409,284.9277" fill="none" id="UC1-to-UC3" style="stroke:#181818;stroke-width:1;"/><polygon fill="#181818" points="660.46,286.39,652.7062,280.3172,655.6108,285.1714,650.7565,288.0759,660.46,286.39" style="stroke:#181818;stroke-width:1;"/></g><!--link UC1 to UC4--><g class="link" data-entity-1="UC1" data-entity-2="UC4" data-source-line="18" data-uid="lnk14" id="link_UC1_UC4"><path d="M553.2,226.65 C573.17,226.65 587.42,226.65 606.35,226.65" fill="none" id="UC1-to-UC4" style="stroke:#181818;stroke-width:1;"/><polygon fill="#181818" points="612.35,226.65,603.35,222.65,607.35,226.65,603.35,230.65,612.35,226.65" style="stroke:#181818;stroke-width:1;"/></g><!--link UC5 to UC1--><g class="link" data-entity-1="UC5" data-entity-2="UC1" data-source-line="19" data-uid="lnk15" id="link_UC5_UC1"><path d="M230.64,226.65 C249.86,226.65 264.17,226.65 284.08,226.65" fill="none" id="UC5-to-UC1" style="stroke:#181818;stroke-width:1;stroke-dasharray:7,7;"/><polygon fill="#181818" points="290.08,226.65,281.08,222.65,285.08,226.65,281.08,230.65,290.08,226.65" style="stroke:#181818;stroke-width:1;"/></g><!--link UC1 to UC6--><g class="link" data-entity-1="UC1" data-entity-2="UC6" data-source-line="20" data-uid="lnk16" id="link_UC1_UC6"><path d="M506.28,204.45 C553.5,191.93 605.2805,178.1882 646.3405,167.2982" fill="none" id="UC1-to-UC6" style="stroke:#181818;stroke-width:1;"/><polygon fill="#181818" points="652.14,165.76,642.4153,164.2009,647.3071,167.0418,644.4662,171.9336,652.14,165.76" style="stroke:#181818;stroke-width:1;"/></g><!--link UC6 to UC7--><g class="link" data-entity-1="UC6" data-entity-2="UC7" data-source-line="21" data-uid="lnk17" id="link_UC6_UC7"><path d="M787.49,153.18 C810.3,153.62 829.5211,153.9835 853.7311,154.4535" fill="none" id="UC6-to-UC7" style="stroke:#181818;stroke-width:1;"/><polygon fill="#181818" points="859.73,154.57,850.8093,150.3961,854.7309,154.473,850.6541,158.3946,859.73,154.57" style="stroke:#181818;stroke-width:1;"/></g><!--SRC=[ROyzJyCm48Pt_ufJXWg6LkfNkZ60r0d4KC70Th4lZaLoZkppK10xFuuVXMbJOI4Mwx7VvyvwUse5n4DmjXCmBf0MvrcX5X-WEaWon581HeXAZQXVqH9KzpuAp63l4niu7AFGKC6x0aYHDCPiF5FeKvI1UfFO0hBdum2OMaiDyMdXqzsod7WCahKoNfNn2xc_-RhCRodgBf1hpj-LtgRqzZxNxHo_fJPzVLfYkFBZJsVihoT_M_eFKuCuajCTXSlI-ZyfzsiTcmO339ZjYxnJ7qf5cCzlJgrLFgRBgk1rmPlCMrWipWE_xtNcUkBTDm00]--></g></svg>