<svg xmlns="http://www.w3.org/2000/svg" xmlns:xlink="http://www.w3.org/1999/xlink" contentStyleType="text/css" data-diagram-type="DESCRIPTION" height="771px" preserveAspectRatio="none" style="width:2247px;height:771px;background:#FFFFFF;" version="1.1" viewBox="0 0 2247 771" width="2247px" zoomAndPan="magnify"><defs/><g><!--cluster Lost & Found System--><g class="cluster" data-entity="Lost . Found System" data-source-line="8" data-uid="ent0006" id="cluster_Lost . Found System"><path d="M116.53,159.08 L285.3796,159.08 A3.75,3.75 0 0 1 287.8796,161.58 L294.8796,181.3769 L2020.27,181.3769 A2.5,2.5 0 0 1 2022.77,183.8769 L2022.77,580.58 A2.5,2.5 0 0 1 2020.27,583.08 L116.53,583.08 A2.5,2.5 0 0 1 114.03,580.58 L114.03,161.58 A2.5,2.5 0 0 1 116.53,159.08" fill="none" style="stroke:#000000;stroke-width:1.5;"/><line style="stroke:#000000;stroke-width:1.5;" x1="114.03" x2="294.8796" y1="181.3769" y2="181.3769"/><text fill="#000000" font-family="sans-serif" font-size="14" font-weight="bold" lengthAdjust="spacing" textLength="167.8496" x="118.03" y="174.0751">Lost &amp; Found System</text></g><!--entity UC11--><g class="entity" data-entity="UC11" data-source-line="9" data-uid="ent0007" id="entity_UC11"><ellipse cx="294.916" cy="252.0812" fill="#F1F1F1" rx="131.206" ry="28.6412" style="stroke:#181818;stroke-width:0.5;"/><text fill="#000000" font-family="sans-serif" font-size="14" lengthAdjust="spacing" textLength="243.1201" x="173.3559" y="256.7296">Verlustmeldung anonym aufgeben</text></g><!--entity UC12--><g class="entity" data-entity="UC12" data-source-line="10" data-uid="ent0008" id="entity_UC12"><ellipse cx="628.5107" cy="552.0761" fill="#F1F1F1" rx="62.9807" ry="14.9961" style="stroke:#181818;stroke-width:0.5;"/><text fill="#000000" font-family="sans-serif" font-size="14" lengthAdjust="spacing" textLength="88.04" x="584.4907" y="556.7246">Ort angeben</text></g><!--entity UC13--><g class="entity" data-entity="UC13" data-source-line="11" data-uid="ent0009" id="entity_UC13"><ellipse cx="628.5086" cy="487.0817" fill="#F1F1F1" rx="64.9586" ry="15.3917" style="stroke:#181818;stroke-width:0.5;"/><text fill="#000000" font-family="sans-serif" font-size="14" lengthAdjust="spacing" textLength="93.3584" x="581.8294" y="491.7302">Zeit angeben</text></g><!--entity UC14--><g class="entity" data-entity="UC14" data-source-line="12" data-uid="ent0010" id="entity_UC14"><ellipse cx="628.5067" cy="416.0813" fill="#F1F1F1" rx="93.5067" ry="21.1013" style="stroke:#181818;stroke-width:0.5;"/><text fill="#000000" font-family="sans-serif" font-size="14" lengthAdjust="spacing" textLength="161.6357" x="547.6888" y="420.7298">Beschreibung angeben</text></g><!--entity UC15--><g class="entity" data-entity="UC15" data-source-line="13" data-uid="ent0011" id="entity_UC15"><ellipse cx="628.5076" cy="337.0795" fill="#F1F1F1" rx="104.1976" ry="23.2395" style="stroke:#181818;stroke-width:0.5;"/><text fill="#000000" font-family="sans-serif" font-size="14" lengthAdjust="spacing" textLength="185.2676" x="535.8738" y="341.7279">Foto hinzufu&#776;gen (optional)</text></g><!--entity UC16--><g class="entity" data-entity="UC16" data-source-line="14" data-uid="ent0012" id="entity_UC16"><ellipse cx="1225.5587" cy="401.0817" fill="#F1F1F1" rx="81.0087" ry="18.6017" style="stroke:#181818;stroke-width:0.5;"/><text fill="#000000" font-family="sans-serif" font-size="14" lengthAdjust="spacing" textLength="133.0479" x="1159.0348" y="405.7302">Meldung speichern</text></g><!--entity UC17--><g class="entity" data-entity="UC17" data-source-line="15" data-uid="ent0013" id="entity_UC17"><ellipse cx="1860.2385" cy="411.0817" fill="#F1F1F1" rx="97.4585" ry="21.8917" style="stroke:#181818;stroke-width:0.5;"/><text fill="#000000" font-family="sans-serif" font-size="14" lengthAdjust="spacing" textLength="170.4404" x="1775.0183" y="415.7301">Meldung ver&#246;ffentlichen</text></g><!--entity UC21--><g class="entity" data-entity="UC21" data-source-line="17" data-uid="ent0014" id="entity_UC21"><ellipse cx="628.5057" cy="218.0811" fill="#F1F1F1" rx="108.7057" ry="24.1411" style="stroke:#181818;stroke-width:0.5;"/><text fill="#000000" font-family="sans-serif" font-size="14" lengthAdjust="spacing" textLength="195.0771" x="530.9671" y="222.7296">Eingaben validieren (Client)</text></g><!--entity UC22--><g class="entity" data-entity="UC22" data-source-line="18" data-uid="ent0015" id="entity_UC22"><ellipse cx="908.4028" cy="219.0786" fill="#F1F1F1" rx="111.1928" ry="24.6386" style="stroke:#181818;stroke-width:0.5;"/><text fill="#000000" font-family="sans-serif" font-size="14" lengthAdjust="spacing" textLength="200.457" x="808.1743" y="223.727">Eingaben validieren (Server)</text></g><!--entity UC23--><g class="entity" data-entity="UC23" data-source-line="19" data-uid="ent0016" id="entity_UC23"><ellipse cx="1225.5616" cy="316.0823" fill="#F1F1F1" rx="145.9616" ry="31.5923" style="stroke:#181818;stroke-width:0.5;"/><text fill="#000000" font-family="sans-serif" font-size="14" lengthAdjust="spacing" textLength="274.0664" x="1088.5284" y="320.7308">Verst&#228;ndliche Fehlermeldung anzeigen</text></g><!--entity UC24--><g class="entity" data-entity="UC24" data-source-line="20" data-uid="ent0017" id="entity_UC24"><ellipse cx="1225.5569" cy="222.0834" fill="#F1F1F1" rx="126.4169" ry="27.6834" style="stroke:#181818;stroke-width:0.5;"/><text fill="#000000" font-family="sans-serif" font-size="14" lengthAdjust="spacing" textLength="232.9961" x="1109.0588" y="226.7318">Exception abfangen &amp; maskieren</text></g><!--entity UC25--><g class="entity" data-entity="UC25" data-source-line="21" data-uid="ent0018" id="entity_UC25"><ellipse cx="1542.6115" cy="222.0783" fill="#F1F1F1" rx="111.0915" ry="24.6183" style="stroke:#181818;stroke-width:0.5;"/><text fill="#000000" font-family="sans-serif" font-size="14" lengthAdjust="spacing" textLength="200.2383" x="1442.4923" y="226.7267">Fehler protokollieren/alerten</text></g><!--entity UC31--><g class="entity" data-entity="UC31" data-source-line="23" data-uid="ent0019" id="entity_UC31"><ellipse cx="294.9234" cy="340.0847" fill="#F1F1F1" rx="110.1234" ry="24.4247" style="stroke:#181818;stroke-width:0.5;"/><text fill="#000000" font-family="sans-serif" font-size="14" lengthAdjust="spacing" textLength="198.1465" x="195.8502" y="344.7331">Neue Fundmeldung anlegen</text></g><!--entity UC32--><g class="entity" data-entity="UC32" data-source-line="24" data-uid="ent0020" id="entity_UC32"><ellipse cx="294.9221" cy="536.0764" fill="#F1F1F1" rx="142.1821" ry="30.8364" style="stroke:#181818;stroke-width:0.5;"/><text fill="#000000" font-family="sans-serif" font-size="14" lengthAdjust="spacing" textLength="266.1709" x="161.8367" y="540.7249">Benachrichtigungspr&#228;ferenzen setzen</text></g><!--entity UC34--><g class="entity" data-entity="UC34" data-source-line="25" data-uid="ent0021" id="entity_UC34"><ellipse cx="1542.6083" cy="454.0837" fill="#F1F1F1" rx="73.3683" ry="17.0737" style="stroke:#181818;stroke-width:0.5;"/><text fill="#000000" font-family="sans-serif" font-size="14" lengthAdjust="spacing" textLength="114.748" x="1485.2343" y="458.7321">Matching pr&#252;fen</text></g><!--entity UC35--><g class="entity" data-entity="UC35" data-source-line="26" data-uid="ent0022" id="entity_UC35"><ellipse cx="1860.2351" cy="521.077" fill="#F1F1F1" rx="146.5351" ry="31.707" style="stroke:#181818;stroke-width:0.5;"/><text fill="#000000" font-family="sans-serif" font-size="14" lengthAdjust="spacing" textLength="275.2627" x="1722.6037" y="525.7254">Benachrichtigung generieren &amp; senden</text></g><!--entity UC36--><g class="entity" data-entity="UC36" data-source-line="27" data-uid="ent0023" id="entity_UC36"><ellipse cx="294.9236" cy="435.0767" fill="#F1F1F1" rx="164.8836" ry="35.3767" style="stroke:#181818;stroke-width:0.5;"/><text fill="#000000" font-family="sans-serif" font-size="14" lengthAdjust="spacing" textLength="313.3457" x="138.2508" y="439.7252">Benachrichtigung empfangen &amp; interagieren</text></g><!--entity stud--><g class="entity" data-entity="stud" data-source-line="3" data-uid="ent0002" id="entity_stud"><ellipse cx="38.0161" cy="266.44" fill="#F1F1F1" rx="8" ry="8" style="stroke:#181818;stroke-width:0.5;"/><path d="M38.0161,274.44 L38.0161,301.44 M25.0161,282.44 L51.0161,282.44 M38.0161,301.44 L25.0161,316.44 M38.0161,301.44 L51.0161,316.44" fill="none" style="stroke:#181818;stroke-width:0.5;"/><text fill="#000000" font-family="sans-serif" font-size="14" lengthAdjust="spacing" textLength="64.0322" x="6" y="330.9351">Nutzer:in</text></g><!--entity dev--><g class="entity" data-entity="dev" data-source-line="4" data-uid="ent0003" id="entity_dev"><ellipse cx="1860.2354" cy="607.44" fill="#F1F1F1" rx="8" ry="8" style="stroke:#181818;stroke-width:0.5;"/><path d="M1860.2354,615.44 L1860.2354,642.44 M1847.2354,623.44 L1873.2354,623.44 M1860.2354,642.44 L1847.2354,657.44 M1860.2354,642.44 L1873.2354,657.44" fill="none" style="stroke:#181818;stroke-width:0.5;"/><text fill="#000000" font-family="sans-serif" font-size="14" lengthAdjust="spacing" textLength="90.0908" x="1815.19" y="671.9351">Entwickler:in</text></g><!--entity log--><g class="entity" data-entity="log" data-source-line="5" data-uid="ent0004" id="entity_log"><ellipse cx="1860.234" cy="75.44" fill="#F1F1F1" rx="8" ry="8" style="stroke:#181818;stroke-width:0.5;"/><path d="M1860.234,83.44 L1860.234,110.44 M1847.234,91.44 L1873.234,91.44 M1860.234,110.44 L1847.234,125.44 M1860.234,110.44 L1873.234,125.44" fill="none" style="stroke:#181818;stroke-width:0.5;"/><text fill="#000000" font-family="sans-serif" font-size="14" lengthAdjust="spacing" textLength="55.7881" x="1832.34" y="139.9351">Logging</text></g><!--entity notif--><g class="entity" data-entity="notif" data-source-line="6" data-uid="ent0005" id="entity_notif"><ellipse cx="2153.6172" cy="579.44" fill="#F1F1F1" rx="8" ry="8" style="stroke:#181818;stroke-width:0.5;"/><path d="M2153.6172,587.44 L2153.6172,614.44 M2140.6172,595.44 L2166.6172,595.44 M2153.6172,614.44 L2140.6172,629.44 M2153.6172,614.44 L2166.6172,629.44" fill="none" style="stroke:#181818;stroke-width:0.5;"/><text fill="#000000" font-family="sans-serif" font-size="14" lengthAdjust="spacing" textLength="173.6943" x="2066.77" y="643.9351">Benachrichtigungsdienst</text></g><!--link stud to UC11--><g class="link" data-entity-1="stud" data-entity-2="UC11" data-source-line="30" data-uid="lnk24" id="link_stud_UC11"><path d="M70.53,290.64 C100.63,285.45 141.7676,278.3515 184.9476,270.8915" fill="none" id="stud-to-UC11" style="stroke:#181818;stroke-width:1;"/><polygon fill="#181818" points="190.86,269.87,181.3104,267.4606,185.933,270.7212,182.6724,275.3438,190.86,269.87" style="stroke:#181818;stroke-width:1;"/></g><!--link UC11 to UC14--><g class="link" data-entity-1="UC11" data-entity-2="UC14" data-source-line="31" data-uid="lnk25" id="link_UC11_UC14"><path d="M398.85,269.91 C420.16,276.55 441.63,285.64 459.8,298.08 C496.47,323.2 483.97,351.78 519.8,378.08 C532.83,387.65 542.8405,392.9216 558.1205,398.4716" fill="none" id="UC11-to-UC14" style="stroke:#181818;stroke-width:1;"/><polygon fill="#181818" points="563.76,400.52,556.6663,393.6877,559.0604,398.813,553.9351,401.2071,563.76,400.52" style="stroke:#181818;stroke-width:1;"/></g><!--link UC11 to UC15--><g class="link" data-entity-1="UC11" data-entity-2="UC15" data-source-line="32" data-uid="lnk26" id="link_UC11_UC15"><path d="M381.31,273.97 C436.48,288.12 501.5081,304.7795 553.0181,317.9895" fill="none" id="UC11-to-UC15" style="stroke:#181818;stroke-width:1;stroke-dasharray:7,7;"/><polygon fill="#181818" points="558.83,319.48,551.1058,313.3696,553.9867,318.2379,549.1185,321.1189,558.83,319.48" style="stroke:#181818;stroke-width:1;"/></g><!--link UC11 to UC16--><g class="link" data-entity-1="UC11" data-entity-2="UC16" data-source-line="33" data-uid="lnk27" id="link_UC11_UC16"><path d="M420.51,260.74 C509.16,267.81 630.92,279.39 737.21,296.08 C895.82,321 1074.6275,363.4914 1164.2975,385.8014" fill="none" id="UC11-to-UC16" style="stroke:#181818;stroke-width:1;"/><polygon fill="#181818" points="1170.12,387.25,1162.352,381.1954,1165.2679,386.0428,1160.4205,388.9587,1170.12,387.25" style="stroke:#181818;stroke-width:1;"/></g><!--link UC11 to UC21--><g class="link" data-entity-1="UC11" data-entity-2="UC21" data-source-line="34" data-uid="lnk28" id="link_UC11_UC21"><path d="M414.22,239.95 C451.79,236.1 486.9512,232.4915 522.9712,228.8015" fill="none" id="UC11-to-UC21" style="stroke:#181818;stroke-width:1;"/><polygon fill="#181818" points="528.94,228.19,519.5792,225.128,523.966,228.6995,520.3945,233.0864,528.94,228.19" style="stroke:#181818;stroke-width:1;"/></g><!--link UC21 to UC22--><g class="link" data-entity-1="UC21" data-entity-2="UC22" data-source-line="35" data-uid="lnk29" id="link_UC21_UC22"><path d="M722.43,230.53 C750.67,231.44 775.7815,231.7226 804.2915,231.0926" fill="none" id="UC21-to-UC22" style="stroke:#181818;stroke-width:1;"/><polygon fill="#181818" points="810.29,230.96,801.2038,227.1598,805.2912,231.0705,801.3806,235.1579,810.29,230.96" style="stroke:#181818;stroke-width:1;"/></g><!--link UC21 to UC22--><g class="link" data-entity-1="UC21" data-entity-2="UC22" data-source-line="45" data-uid="lnk38" id="link_UC21_UC22"><path d="M722.43,205.6 C751.78,204.81 778.2134,204.7081 807.6234,205.6981" fill="none" id="UC21-to-UC22-1" style="stroke:#181818;stroke-width:1;"/><polygon fill="#181818" points="813.62,205.9,804.7597,201.5995,808.6228,205.7318,804.4905,209.5949,813.62,205.9" style="stroke:#181818;stroke-width:1;"/></g><!--link UC22 to UC16--><g class="link" data-entity-1="UC22" data-entity-2="UC16" data-source-line="36" data-uid="lnk30" id="link_UC22_UC16"><path d="M941.59,242.89 C965.17,254.21 996.89,268.1 1019.6,288.08 C1056.8,320.83 1039.35,353.16 1079.6,382.08 C1101.39,397.75 1123.3291,405.7219 1148.7991,409.6219" fill="none" id="UC22-to-UC16" style="stroke:#181818;stroke-width:1;"/><polygon fill="#181818" points="1154.73,410.53,1146.4391,405.2139,1149.7876,409.7732,1145.2283,413.1217,1154.73,410.53" style="stroke:#181818;stroke-width:1;"/></g><!--link UC22 to UC16--><g class="link" data-entity-1="UC22" data-entity-2="UC16" data-source-line="46" data-uid="lnk39" id="link_UC22_UC16"><path d="M994.33,235.12 C1003.34,240.35 1011.97,246.38 1019.6,253.08 C1056.8,285.83 1039.35,318.16 1079.6,347.08 C1110.55,369.33 1147.8928,376.6445 1179.0628,383.3145" fill="none" id="UC22-to-UC16-1" style="stroke:#181818;stroke-width:1;"/><polygon fill="#181818" points="1184.93,384.57,1176.9662,378.7753,1180.0407,383.5237,1175.2922,386.5982,1184.93,384.57" style="stroke:#181818;stroke-width:1;"/></g><!--link UC16 to UC17--><g class="link" data-entity-1="UC16" data-entity-2="UC17" data-source-line="37" data-uid="lnk31" id="link_UC16_UC17"><path d="M1306.69,402.35 C1422.9,404.19 1631.9207,407.4953 1756.7107,409.4653" fill="none" id="UC16-to-UC17" style="stroke:#181818;stroke-width:1;"/><polygon fill="#181818" points="1762.71,409.56,1753.7743,405.4184,1757.7106,409.4811,1753.648,413.4174,1762.71,409.56" style="stroke:#181818;stroke-width:1;"/></g><!--link stud to UC31--><g class="link" data-entity-1="stud" data-entity-2="UC31" data-source-line="39" data-uid="lnk32" id="link_stud_UC31"><path d="M70.53,301.52 C104.43,307.38 153.9073,315.9203 201.0473,324.0503" fill="none" id="stud-to-UC31" style="stroke:#181818;stroke-width:1;"/><polygon fill="#181818" points="206.96,325.07,198.7708,319.5986,202.0327,324.2202,197.4111,327.4822,206.96,325.07" style="stroke:#181818;stroke-width:1;"/></g><!--link UC31 to UC12--><g class="link" data-entity-1="UC31" data-entity-2="UC12" data-source-line="40" data-uid="lnk33" id="link_UC31_UC12"><path d="M395.15,350.38 C418.35,356.66 441.58,366.56 459.8,382.08 C510.7,425.46 469.73,475.75 519.8,520.08 C534.26,532.89 547.8218,539.1043 566.1618,543.7243" fill="none" id="UC31-to-UC12" style="stroke:#181818;stroke-width:1;"/><polygon fill="#181818" points="571.98,545.19,564.2298,539.1127,567.1315,543.9686,562.2755,546.8703,571.98,545.19" style="stroke:#181818;stroke-width:1;"/></g><!--link UC31 to UC13--><g class="link" data-entity-1="UC31" data-entity-2="UC13" data-source-line="41" data-uid="lnk34" id="link_UC31_UC13"><path d="M388.55,353.11 C413,359.33 438.49,368.52 459.8,382.08 C495.23,404.64 484.8,431.87 519.8,455.08 C536.22,465.98 550.6342,471.7457 569.1142,476.5657" fill="none" id="UC31-to-UC13" style="stroke:#181818;stroke-width:1;"/><polygon fill="#181818" points="574.92,478.08,567.2209,471.9381,570.0819,476.8181,565.2018,479.6791,574.92,478.08" style="stroke:#181818;stroke-width:1;"/></g><!--link UC31 to UC14--><g class="link" data-entity-1="UC31" data-entity-2="UC14" data-source-line="42" data-uid="lnk35" id="link_UC31_UC14"><path d="M372.82,357.71 C430.03,370.82 501.4216,387.19 555.8016,399.65" fill="none" id="UC31-to-UC14" style="stroke:#181818;stroke-width:1;"/><polygon fill="#181818" points="561.65,400.99,553.7707,395.081,556.7763,399.8733,551.984,402.8789,561.65,400.99" style="stroke:#181818;stroke-width:1;"/></g><!--link UC31 to UC15--><g class="link" data-entity-1="UC31" data-entity-2="UC15" data-source-line="43" data-uid="lnk36" id="link_UC31_UC15"><path d="M405.41,339.09 C443.61,338.75 480.3302,338.4141 518.0302,338.0741" fill="none" id="UC31-to-UC15" style="stroke:#181818;stroke-width:1;stroke-dasharray:7,7;"/><polygon fill="#181818" points="524.03,338.02,514.9943,334.1013,519.0302,338.0651,515.0664,342.101,524.03,338.02" style="stroke:#181818;stroke-width:1;"/></g><!--link UC31 to UC21--><g class="link" data-entity-1="UC31" data-entity-2="UC21" data-source-line="44" data-uid="lnk37" id="link_UC31_UC21"><path d="M375.22,323.05 C402.38,316.36 432.74,307.9 459.8,298.08 C504.23,281.97 547.4147,260.8835 580.7747,243.4135" fill="none" id="UC31-to-UC21" style="stroke:#181818;stroke-width:1;"/><polygon fill="#181818" points="586.09,240.63,576.2614,241.2617,581.6606,242.9496,579.9728,248.3488,586.09,240.63" style="stroke:#181818;stroke-width:1;"/></g><!--link stud to UC32--><g class="link" data-entity-1="stud" data-entity-2="UC32" data-source-line="48" data-uid="lnk40" id="link_stud_UC32"><path d="M41.89,334.72 C47.22,378.24 62.46,448.1 106.03,488.08 C123.39,504.02 139.5978,512.9939 162.2778,520.2839" fill="none" id="stud-to-UC32" style="stroke:#181818;stroke-width:1;"/><polygon fill="#181818" points="167.99,522.12,160.6458,515.5578,163.2299,520.59,158.1977,523.174,167.99,522.12" style="stroke:#181818;stroke-width:1;"/></g><!--link UC34 to UC35--><g class="link" data-entity-1="UC34" data-entity-2="UC35" data-source-line="49" data-uid="lnk41" id="link_UC34_UC35"><path d="M1597.87,465.6 C1640.79,474.71 1696.1307,486.4645 1748.5307,497.5845" fill="none" id="UC34-to-UC35" style="stroke:#181818;stroke-width:1;"/><polygon fill="#181818" points="1754.4,498.83,1746.4264,493.0488,1749.5089,497.792,1744.7657,500.8745,1754.4,498.83" style="stroke:#181818;stroke-width:1;"/></g><!--link UC35 to notif--><g class="link" data-entity-1="UC35" data-entity-2="notif" data-source-line="50" data-uid="lnk42" id="link_UC35_notif"><path d="M1947.09,547.01 C1984.69,558.37 2022.9862,569.9354 2060.6362,581.3054" fill="none" id="UC35-to-notif" style="stroke:#181818;stroke-width:1;"/><polygon fill="#181818" points="2066.38,583.04,2058.9207,576.6089,2061.5935,581.5945,2056.6079,584.2673,2066.38,583.04" style="stroke:#181818;stroke-width:1;"/></g><!--link notif to UC36--><g class="link" data-entity-1="notif" data-entity-2="UC36" data-source-line="51" data-uid="lnk43" id="link_notif_UC36"><path d="M2108.95,647.68 C2087.03,664.72 2059.14,683.13 2030.77,693.08 C1825.95,764.99 1760.69,728.08 1543.61,728.08 C907.4,728.08 907.4,728.08 907.4,728.08 C723.63,728.08 662.24,700.2 519.8,584.08 C480.8,552.29 499.47,519.03 459.8,488.08 C445.18,476.68 433.5976,469.9265 415.9976,462.8565" fill="none" id="notif-to-UC36" style="stroke:#181818;stroke-width:1;"/><polygon fill="#181818" points="410.43,460.62,417.2904,467.6865,415.0697,462.4838,420.2724,460.2631,410.43,460.62" style="stroke:#181818;stroke-width:1;"/></g><!--link UC36 to stud--><g class="link" data-entity-1="UC36" data-entity-2="stud" data-source-line="52" data-uid="lnk44" id="link_UC36_stud"><path d="M169.21,411.96 C147.05,404.57 125.02,394.85 106.03,382.08 C87.97,369.94 75.9885,356.3084 64.5485,339.5184" fill="none" id="UC36-to-stud" style="stroke:#181818;stroke-width:1;"/><polygon fill="#181818" points="61.17,334.56,62.9321,344.2499,63.9854,338.692,69.5433,339.7453,61.17,334.56" style="stroke:#181818;stroke-width:1;"/></g><!--link UC16 to UC34--><g class="link" data-entity-1="UC16" data-entity-2="UC34" data-source-line="54" data-uid="lnk45" id="link_UC16_UC34"><path d="M1291.84,412.07 C1347.8,421.48 1421.8332,433.9344 1476.0932,443.0644" fill="none" id="UC16-to-UC34" style="stroke:#181818;stroke-width:1;"/><polygon fill="#181818" points="1482.01,444.06,1473.7985,438.6221,1477.0793,443.2303,1472.471,446.5112,1482.01,444.06" style="stroke:#181818;stroke-width:1;"/></g><!--link UC34 to UC17--><g class="link" data-entity-1="UC34" data-entity-2="UC17" data-source-line="55" data-uid="lnk46" id="link_UC34_UC17"><path d="M1606.72,445.49 C1655.3,438.87 1716.9149,430.4696 1769.9349,423.2496" fill="none" id="UC34-to-UC17" style="stroke:#181818;stroke-width:1;"/><polygon fill="#181818" points="1775.88,422.44,1766.4226,419.6909,1770.9257,423.1146,1767.502,427.6178,1775.88,422.44" style="stroke:#181818;stroke-width:1;"/></g><!--link stud to UC21--><g class="link" data-entity-1="stud" data-entity-2="UC21" data-source-line="57" data-uid="lnk47" id="link_stud_UC21"><path d="M56.88,257.62 C68.05,238.38 84.44,216.92 106.03,206.08 C255.54,131.01 455.0589,168.9707 557.7589,196.8007" fill="none" id="stud-to-UC21" style="stroke:#181818;stroke-width:1;"/><polygon fill="#181818" points="563.55,198.37,555.9095,192.1553,558.7241,197.0622,553.8171,199.8768,563.55,198.37" style="stroke:#181818;stroke-width:1;"/></g><!--link stud to UC22--><g class="link" data-entity-1="stud" data-entity-2="UC22" data-source-line="58" data-uid="lnk48" id="link_stud_UC22"><path d="M46.22,257.49 C54.55,224.99 71.78,180.46 106.03,159.08 C351.33,6 719.1575,137.7643 852.4575,194.3843" fill="none" id="stud-to-UC22" style="stroke:#181818;stroke-width:1;"/><polygon fill="#181818" points="857.98,196.73,851.2601,189.5298,853.3779,194.7752,848.1325,196.8931,857.98,196.73" style="stroke:#181818;stroke-width:1;"/></g><!--link UC22 to UC23--><g class="link" data-entity-1="UC22" data-entity-2="UC23" data-source-line="59" data-uid="lnk49" id="link_UC22_UC23"><path d="M974.7,239.18 C1022.66,253.94 1082.4957,272.3543 1134.4257,288.3443" fill="none" id="UC22-to-UC23" style="stroke:#181818;stroke-width:1;"/><polygon fill="#181818" points="1140.16,290.11,1132.7356,283.6386,1135.3814,288.6386,1130.3814,291.2844,1140.16,290.11" style="stroke:#181818;stroke-width:1;"/></g><!--link UC22 to UC24--><g class="link" data-entity-1="UC22" data-entity-2="UC24" data-source-line="60" data-uid="lnk50" id="link_UC22_UC24"><path d="M1019.63,220.13 C1045.28,220.38 1066.7703,220.5829 1093.0303,220.8329" fill="none" id="UC22-to-UC24" style="stroke:#181818;stroke-width:1;"/><polygon fill="#181818" points="1099.03,220.89,1090.0685,216.8045,1094.0302,220.8424,1089.9923,224.8041,1099.03,220.89" style="stroke:#181818;stroke-width:1;"/></g><!--link UC24 to UC25--><g class="link" data-entity-1="UC24" data-entity-2="UC25" data-source-line="61" data-uid="lnk51" id="link_UC24_UC25"><path d="M1352.43,222.08 C1378.49,222.08 1399.74,222.08 1425.19,222.08" fill="none" id="UC24-to-UC25" style="stroke:#181818;stroke-width:1;"/><polygon fill="#181818" points="1431.19,222.08,1422.19,218.08,1426.19,222.08,1422.19,226.08,1431.19,222.08" style="stroke:#181818;stroke-width:1;"/></g><!--link UC25 to log--><g class="link" data-entity-1="UC25" data-entity-2="log" data-source-line="62" data-uid="lnk52" id="link_UC25_log"><path d="M1601.13,200.76 C1669.59,175.38 1775.4141,136.1554 1826.4841,117.2254" fill="none" id="UC25-to-log" style="stroke:#181818;stroke-width:1;"/><polygon fill="#181818" points="1832.11,115.14,1822.2808,114.5174,1827.4217,116.8778,1825.0613,122.0187,1832.11,115.14" style="stroke:#181818;stroke-width:1;"/></g><!--link UC25 to dev--><g class="link" data-entity-1="UC25" data-entity-2="dev" data-source-line="63" data-uid="lnk53" id="link_UC25_dev"><path d="M1559.18,246.92 C1581.81,283.63 1624.29,354.99 1653.7,419.08 C1686.07,489.63 1658.95,528.08 1713.7,583.08 C1740.8,610.3 1776.9497,622.7094 1808.8897,629.4594" fill="none" id="UC25-to-dev" style="stroke:#181818;stroke-width:1;"/><polygon fill="#181818" points="1814.76,630.7,1806.7816,624.9255,1809.868,629.6662,1805.1274,632.7527,1814.76,630.7" style="stroke:#181818;stroke-width:1;"/></g><!--SRC=[ZLIxRjim5Dtr5KI6e1sImfJi01qo9B2d9Xs2TkX6IrSqOPeKICfjN7JlX-GREdNpse_g9HLAf5kaNGGStNFkFJnyI6WTSPeOmJUEDC90xOHMHS5gfmqvk-_T0SnReSu8iyIwlecLfNAVHRsLKxM1VIo-qvmBnSDlgNdyVGEArHiZweqJl5VSDWAKTO6cj1DjKNIitZ8EleLrv9oiTAyQyl1e7UpEoDU2aDv2pImoFeAHlNKxa0ts8anfzRWZh6yvh66mzE5sDaibxur3NbQdQVqJY3y8PKgu0OiB0B4U9cR4AYMkDAQw4UhGj_slxnmKUQKx7osJhwDWdWhkdfTXEy1ym8nj5tzZxS4SVxGjA2SzUoHV5IbxYNl0q27PCoamQ-Djt4eCtKKJTFPFmGCO73SAwCaUM7TyKasmGLQmmGCnxSW111_DqIp9vPSQGY24hLkVfCBTtZ6x3LEZ9CyqT2UTmMotMih0VCFmdviKyoo1U-ZH5HwXoPE4oL8vopVtv7XsvlZK-Y47T6S1hy8ep5AuOwx6lUPexVYpdKZLIzq9sW0pP7oEtLKp2USl2c7NZOa9vS0mdePMBeflHU7lAhcuk1xkWFz4L0teyl9wE8HfRP4YwdLqHDGZcZ4N4Lrb0qilBCUcD4DbXge19MRA_noV3GmZgeX2ctb0mxCIlh7gdPU3y_2WfGifgxJHoRBGK8eoGxJCa6z3Onlg_T31ZtyDHu0lvcy0]--></g></svg>