<svg xmlns="http://www.w3.org/2000/svg" xmlns:xlink="http://www.w3.org/1999/xlink" contentStyleType="text/css" data-diagram-type="DESCRIPTION" height="390px" preserveAspectRatio="none" style="width:929px;height:390px;background:#FFFFFF;" version="1.1" viewBox="0 0 929 390" width="929px" zoomAndPan="magnify"><defs/><g><!--cluster Lost & Found System--><g class="cluster" data-entity="Lost . Found System" data-source-line="4" data-uid="ent0003" id="cluster_Lost . Found System"><path d="M107.61,6 L276.4596,6 A3.75,3.75 0 0 1 278.9596,8.5 L285.9596,28.2969 L920.34,28.2969 A2.5,2.5 0 0 1 922.84,30.7969 L922.84,380.5 A2.5,2.5 0 0 1 920.34,383 L107.61,383 A2.5,2.5 0 0 1 105.11,380.5 L105.11,8.5 A2.5,2.5 0 0 1 107.61,6" fill="none" style="stroke:#000000;stroke-width:1.5;"/><line style="stroke:#000000;stroke-width:1.5;" x1="105.11" x2="285.9596" y1="28.2969" y2="28.2969"/><text fill="#000000" font-family="sans-serif" font-size="14" font-weight="bold" lengthAdjust="spacing" textLength="167.8496" x="109.11" y="20.9951">Lost &amp; Found System</text></g><!--entity UC1--><g class="entity" data-entity="UC1" data-source-line="5" data-uid="ent0004" id="entity_UC1"><ellipse cx="252.316" cy="216.0012" fill="#F1F1F1" rx="131.206" ry="28.6412" style="stroke:#181818;stroke-width:0.5;"/><text fill="#000000" font-family="sans-serif" font-size="14" lengthAdjust="spacing" textLength="243.1201" x="130.7559" y="220.6496">Verlustmeldung anonym aufgeben</text></g><!--entity UC2--><g class="entity" data-entity="UC2" data-source-line="6" data-uid="ent0005" id="entity_UC2"><ellipse cx="547.7207" cy="351.9961" fill="#F1F1F1" rx="62.9807" ry="14.9961" style="stroke:#181818;stroke-width:0.5;"/><text fill="#000000" font-family="sans-serif" font-size="14" lengthAdjust="spacing" textLength="88.04" x="503.7007" y="356.6446">Ort angeben</text></g><!--entity UC3--><g class="entity" data-entity="UC3" data-source-line="7" data-uid="ent0006" id="entity_UC3"><ellipse cx="547.7186" cy="287.0017" fill="#F1F1F1" rx="64.9586" ry="15.3917" style="stroke:#181818;stroke-width:0.5;"/><text fill="#000000" font-family="sans-serif" font-size="14" lengthAdjust="spacing" textLength="93.3584" x="501.0394" y="291.6502">Zeit angeben</text></g><!--entity UC4--><g class="entity" data-entity="UC4" data-source-line="8" data-uid="ent0007" id="entity_UC4"><ellipse cx="547.7167" cy="216.0013" fill="#F1F1F1" rx="93.5067" ry="21.1013" style="stroke:#181818;stroke-width:0.5;"/><text fill="#000000" font-family="sans-serif" font-size="14" lengthAdjust="spacing" textLength="161.6357" x="466.8988" y="220.6498">Beschreibung angeben</text></g><!--entity UC5--><g class="entity" data-entity="UC5" data-source-line="9" data-uid="ent0008" id="entity_UC5"><ellipse cx="547.7176" cy="136.9995" fill="#F1F1F1" rx="104.1976" ry="23.2395" style="stroke:#181818;stroke-width:0.5;"/><text fill="#000000" font-family="sans-serif" font-size="14" lengthAdjust="spacing" textLength="185.2676" x="455.0838" y="141.6479">Foto hinzufu&#776;gen (optional)</text></g><!--entity UC6--><g class="entity" data-entity="UC6" data-source-line="10" data-uid="ent0009" id="entity_UC6"><ellipse cx="547.7187" cy="60.0017" fill="#F1F1F1" rx="81.0087" ry="18.6017" style="stroke:#181818;stroke-width:0.5;"/><text fill="#000000" font-family="sans-serif" font-size="14" lengthAdjust="spacing" textLength="133.0479" x="481.1948" y="64.6502">Meldung speichern</text></g><!--entity UC7--><g class="entity" data-entity="UC7" data-source-line="11" data-uid="ent0010" id="entity_UC7"><ellipse cx="809.3785" cy="63.0017" fill="#F1F1F1" rx="97.4585" ry="21.8917" style="stroke:#181818;stroke-width:0.5;"/><text fill="#000000" font-family="sans-serif" font-size="14" lengthAdjust="spacing" textLength="170.4404" x="724.1583" y="67.6501">Meldung ver&#246;ffentlichen</text></g><!--entity s--><g class="entity" data-entity="s" data-source-line="2" data-uid="ent0002" id="entity_s"><ellipse cx="33.5557" cy="186.35" fill="#F1F1F1" rx="8" ry="8" style="stroke:#181818;stroke-width:0.5;"/><path d="M33.5557,194.35 L33.5557,221.35 M20.5557,202.35 L46.5557,202.35 M33.5557,221.35 L20.5557,236.35 M33.5557,221.35 L46.5557,236.35" fill="none" style="stroke:#181818;stroke-width:0.5;"/><text fill="#000000" font-family="sans-serif" font-size="14" lengthAdjust="spacing" textLength="55.1113" x="6" y="250.8451">Student</text></g><!--link s to UC1--><g class="link" data-entity-1="s" data-entity-2="UC1" data-source-line="14" data-uid="lnk11" id="link_s_UC1"><path d="M61.57,216 C77.35,216 92.54,216 115.05,216" fill="none" id="s-to-UC1" style="stroke:#181818;stroke-width:1;"/><polygon fill="#181818" points="121.05,216,112.05,212,116.05,216,112.05,220,121.05,216" style="stroke:#181818;stroke-width:1;"/></g><!--link UC1 to UC2--><g class="link" data-entity-1="UC1" data-entity-2="UC2" data-source-line="16" data-uid="lnk12" id="link_UC1_UC2"><path d="M297.03,243.18 C334.79,265.85 391.36,297.92 443.52,320 C462.96,328.23 479.4764,333.7323 498.3464,339.1923" fill="none" id="UC1-to-UC2" style="stroke:#181818;stroke-width:1;"/><polygon fill="#181818" points="504.11,340.86,496.5764,334.5161,499.307,339.4703,494.3528,342.2009,504.11,340.86" style="stroke:#181818;stroke-width:1;"/></g><!--link UC1 to UC3--><g class="link" data-entity-1="UC1" data-entity-2="UC3" data-source-line="17" data-uid="lnk13" id="link_UC1_UC3"><path d="M341.35,237.3 C393.84,250.01 452.5084,264.1984 495.0584,274.4984" fill="none" id="UC1-to-UC3" style="stroke:#181818;stroke-width:1;"/><polygon fill="#181818" points="500.89,275.91,493.0837,269.9048,496.0304,274.7336,491.2015,277.6803,500.89,275.91" style="stroke:#181818;stroke-width:1;"/></g><!--link UC1 to UC4--><g class="link" data-entity-1="UC1" data-entity-2="UC4" data-source-line="18" data-uid="lnk14" id="link_UC1_UC4"><path d="M383.72,216 C407.44,216 425.74,216 448.09,216" fill="none" id="UC1-to-UC4" style="stroke:#181818;stroke-width:1;"/><polygon fill="#181818" points="454.09,216,445.09,212,449.09,216,445.09,220,454.09,216" style="stroke:#181818;stroke-width:1;"/></g><!--link UC1 to UC5--><g class="link" data-entity-1="UC1" data-entity-2="UC5" data-source-line="19" data-uid="lnk15" id="link_UC1_UC5"><path d="M336.22,193.68 C381.63,181.45 431.3861,168.0489 474.0161,156.5789" fill="none" id="UC1-to-UC5" style="stroke:#181818;stroke-width:1;stroke-dasharray:7,7;"/><polygon fill="#181818" points="479.81,155.02,470.0798,153.4957,474.9817,156.3191,472.1584,161.221,479.81,155.02" style="stroke:#181818;stroke-width:1;"/></g><!--link UC1 to UC6--><g class="link" data-entity-1="UC1" data-entity-2="UC6" data-source-line="20" data-uid="lnk16" id="link_UC1_UC6"><path d="M291.52,188.24 C328.9,161.97 388.13,122.71 443.52,96 C460.36,87.88 473.8325,82.5912 491.0325,76.8112" fill="none" id="UC1-to-UC6" style="stroke:#181818;stroke-width:1;"/><polygon fill="#181818" points="496.72,74.9,486.9147,73.9752,491.9805,76.4927,489.463,81.5585,496.72,74.9" style="stroke:#181818;stroke-width:1;"/></g><!--link UC6 to UC7--><g class="link" data-entity-1="UC6" data-entity-2="UC7" data-source-line="21" data-uid="lnk17" id="link_UC6_UC7"><path d="M629.1,60.93 C655.31,61.23 678.6904,61.4996 705.9604,61.8196" fill="none" id="UC6-to-UC7" style="stroke:#181818;stroke-width:1;"/><polygon fill="#181818" points="711.96,61.89,703.0076,57.7847,706.9603,61.8313,702.9137,65.7841,711.96,61.89" style="stroke:#181818;stroke-width:1;"/></g><!--SRC=[RP0zJWCn48LxdsAqHGH58kM7JPS2f5GWYWWAEiSxzbfuxPLdZ1GGFIVY0hGS2cVP22kYiPxdVPwPPuUQWGD4Qrg6naPKR8CNKd68KEquDUYv0ab0GlHIFKk3KDq6OfZ0DYJVmEv0Z5q5Rm8W4If9cNZ4w19nXwv9te3qmHywa4aRtACV6ZxSpCiNzv4pLjgBqdv2U-ulI_yQIRKHxVvtNCcjIcuRSjpM-jUaq_U7GGyNeJzcbkvovAzA_cvCG3rQrM8yDQt_WrumVdrgdR_C7U4JknRlGX1CfviXjCZ7U5aKUbderQ1diysmpb-zpheUzVe7]--></g></svg>