<svg xmlns="http://www.w3.org/2000/svg" xmlns:xlink="http://www.w3.org/1999/xlink" contentStyleType="text/css" data-diagram-type="DESCRIPTION" height="1088px" preserveAspectRatio="none" style="width:1511px;height:1088px;background:#FFFFFF;" version="1.1" viewBox="0 0 1511 1088" width="1511px" zoomAndPan="magnify"><defs/><g><!--cluster Lost & Found System--><g class="cluster" data-entity="Lost . Found System" data-source-line="8" data-uid="ent0006" id="cluster_Lost . Found System"><path d="M222.93,6 L391.7796,6 A3.75,3.75 0 0 1 394.2796,8.5 L401.2796,28.2969 L1284.69,28.2969 A2.5,2.5 0 0 1 1287.19,30.7969 L1287.19,1078.5 A2.5,2.5 0 0 1 1284.69,1081 L222.93,1081 A2.5,2.5 0 0 1 220.43,1078.5 L220.43,8.5 A2.5,2.5 0 0 1 222.93,6" fill="none" style="stroke:#000000;stroke-width:1.5;"/><line style="stroke:#000000;stroke-width:1.5;" x1="220.43" x2="401.2796" y1="28.2969" y2="28.2969"/><text fill="#000000" font-family="sans-serif" font-size="14" font-weight="bold" lengthAdjust="spacing" textLength="167.8496" x="224.43" y="20.9951">Lost &amp; Found System</text></g><!--entity UC1--><g class="entity" data-entity="UC1" data-source-line="9" data-uid="ent0007" id="entity_UC1"><ellipse cx="401.306" cy="1036.0012" fill="#F1F1F1" rx="131.206" ry="28.6412" style="stroke:#181818;stroke-width:0.5;"/><text fill="#000000" font-family="sans-serif" font-size="14" lengthAdjust="spacing" textLength="243.1201" x="279.7459" y="1040.6496">Verlustmeldung anonym aufgeben</text></g><!--entity UC12--><g class="entity" data-entity="UC12" data-source-line="10" data-uid="ent0008" id="entity_UC12"><ellipse cx="401.3107" cy="197.9961" fill="#F1F1F1" rx="62.9807" ry="14.9961" style="stroke:#181818;stroke-width:0.5;"/><text fill="#000000" font-family="sans-serif" font-size="14" lengthAdjust="spacing" textLength="88.04" x="357.2907" y="202.6446">Ort angeben</text></g><!--entity UC13--><g class="entity" data-entity="UC13" data-source-line="11" data-uid="ent0009" id="entity_UC13"><ellipse cx="401.3086" cy="133.0017" fill="#F1F1F1" rx="64.9586" ry="15.3917" style="stroke:#181818;stroke-width:0.5;"/><text fill="#000000" font-family="sans-serif" font-size="14" lengthAdjust="spacing" textLength="93.3584" x="354.6294" y="137.6502">Zeit angeben</text></g><!--entity UC14--><g class="entity" data-entity="UC14" data-source-line="12" data-uid="ent0010" id="entity_UC14"><ellipse cx="401.3067" cy="62.0013" fill="#F1F1F1" rx="93.5067" ry="21.1013" style="stroke:#181818;stroke-width:0.5;"/><text fill="#000000" font-family="sans-serif" font-size="14" lengthAdjust="spacing" textLength="161.6357" x="320.4888" y="66.6498">Beschreibung angeben</text></g><!--entity UC15--><g class="entity" data-entity="UC15" data-source-line="13" data-uid="ent0011" id="entity_UC15"><ellipse cx="401.3076" cy="343.9995" fill="#F1F1F1" rx="104.1976" ry="23.2395" style="stroke:#181818;stroke-width:0.5;"/><text fill="#000000" font-family="sans-serif" font-size="14" lengthAdjust="spacing" textLength="185.2676" x="308.6738" y="348.6479">Foto hinzufu&#776;gen (optional)</text></g><!--entity UC16--><g class="entity" data-entity="UC16" data-source-line="14" data-uid="ent0012" id="entity_UC16"><ellipse cx="401.3087" cy="267.0017" fill="#F1F1F1" rx="81.0087" ry="18.6017" style="stroke:#181818;stroke-width:0.5;"/><text fill="#000000" font-family="sans-serif" font-size="14" lengthAdjust="spacing" textLength="133.0479" x="334.7848" y="271.6502">Meldung speichern</text></g><!--entity UC17--><g class="entity" data-entity="UC17" data-source-line="15" data-uid="ent0013" id="entity_UC17"><ellipse cx="772.1585" cy="267.0017" fill="#F1F1F1" rx="97.4585" ry="21.8917" style="stroke:#181818;stroke-width:0.5;"/><text fill="#000000" font-family="sans-serif" font-size="14" lengthAdjust="spacing" textLength="170.4404" x="686.9383" y="271.6501">Meldung ver&#246;ffentlichen</text></g><!--entity UC21--><g class="entity" data-entity="UC21" data-source-line="17" data-uid="ent0014" id="entity_UC21"><ellipse cx="401.3057" cy="503.0011" fill="#F1F1F1" rx="108.7057" ry="24.1411" style="stroke:#181818;stroke-width:0.5;"/><text fill="#000000" font-family="sans-serif" font-size="14" lengthAdjust="spacing" textLength="195.0771" x="303.7671" y="507.6496">Eingaben validieren (Client)</text></g><!--entity UC22--><g class="entity" data-entity="UC22" data-source-line="18" data-uid="ent0015" id="entity_UC22"><ellipse cx="401.3128" cy="586.9986" fill="#F1F1F1" rx="111.1928" ry="24.6386" style="stroke:#181818;stroke-width:0.5;"/><text fill="#000000" font-family="sans-serif" font-size="14" lengthAdjust="spacing" textLength="200.457" x="301.0843" y="591.647">Eingaben validieren (Server)</text></g><!--entity UC23--><g class="entity" data-entity="UC23" data-source-line="19" data-uid="ent0016" id="entity_UC23"><ellipse cx="772.1616" cy="458.0023" fill="#F1F1F1" rx="145.9616" ry="31.5923" style="stroke:#181818;stroke-width:0.5;"/><text fill="#000000" font-family="sans-serif" font-size="14" lengthAdjust="spacing" textLength="274.0664" x="635.1284" y="462.6508">Verst&#228;ndliche Fehlermeldung anzeigen</text></g><!--entity UC24--><g class="entity" data-entity="UC24" data-source-line="20" data-uid="ent0017" id="entity_UC24"><ellipse cx="772.1569" cy="587.0034" fill="#F1F1F1" rx="126.4169" ry="27.6834" style="stroke:#181818;stroke-width:0.5;"/><text fill="#000000" font-family="sans-serif" font-size="14" lengthAdjust="spacing" textLength="232.9961" x="655.6588" y="591.6518">Exception abfangen &amp; maskieren</text></g><!--entity UC25--><g class="entity" data-entity="UC25" data-source-line="21" data-uid="ent0018" id="entity_UC25"><ellipse cx="1124.6515" cy="586.9983" fill="#F1F1F1" rx="111.0915" ry="24.6183" style="stroke:#181818;stroke-width:0.5;"/><text fill="#000000" font-family="sans-serif" font-size="14" lengthAdjust="spacing" textLength="200.2383" x="1024.5323" y="591.6467">Fehler protokollieren/alerten</text></g><!--entity UC26--><g class="entity" data-entity="UC26" data-source-line="22" data-uid="ent0019" id="entity_UC26"><ellipse cx="401.3124" cy="423.0005" fill="#F1F1F1" rx="91.0524" ry="20.6105" style="stroke:#181818;stroke-width:0.5;"/><text fill="#000000" font-family="sans-serif" font-size="14" lengthAdjust="spacing" textLength="156.1191" x="323.2528" y="427.6489">Fehler-ID bereitstellen</text></g><!--entity UC31--><g class="entity" data-entity="UC31" data-source-line="24" data-uid="ent0020" id="entity_UC31"><ellipse cx="401.3072" cy="749.9974" fill="#F1F1F1" rx="86.6872" ry="19.7374" style="stroke:#181818;stroke-width:0.5;"/><text fill="#000000" font-family="sans-serif" font-size="14" lengthAdjust="spacing" textLength="146.2002" x="328.2071" y="754.6459">Suchauftrag anlegen</text></g><!--entity UC32--><g class="entity" data-entity="UC32" data-source-line="25" data-uid="ent0021" id="entity_UC32"><ellipse cx="401.3121" cy="835.9964" fill="#F1F1F1" rx="142.1821" ry="30.8364" style="stroke:#181818;stroke-width:0.5;"/><text fill="#000000" font-family="sans-serif" font-size="14" lengthAdjust="spacing" textLength="266.1709" x="268.2267" y="840.6449">Benachrichtigungspr&#228;ferenzen setzen</text></g><!--entity UC33--><g class="entity" data-entity="UC33" data-source-line="26" data-uid="ent0022" id="entity_UC33"><ellipse cx="401.3134" cy="671.0047" fill="#F1F1F1" rx="110.1234" ry="24.4247" style="stroke:#181818;stroke-width:0.5;"/><text fill="#000000" font-family="sans-serif" font-size="14" lengthAdjust="spacing" textLength="198.1465" x="302.2402" y="675.6531">Neue Fundmeldung anlegen</text></g><!--entity UC34--><g class="entity" data-entity="UC34" data-source-line="27" data-uid="ent0023" id="entity_UC34"><ellipse cx="772.1583" cy="686.0037" fill="#F1F1F1" rx="73.3683" ry="17.0737" style="stroke:#181818;stroke-width:0.5;"/><text fill="#000000" font-family="sans-serif" font-size="14" lengthAdjust="spacing" textLength="114.748" x="714.7843" y="690.6521">Matching pr&#252;fen</text></g><!--entity UC35--><g class="entity" data-entity="UC35" data-source-line="28" data-uid="ent0024" id="entity_UC35"><ellipse cx="1124.6451" cy="700.997" fill="#F1F1F1" rx="146.5351" ry="31.707" style="stroke:#181818;stroke-width:0.5;"/><text fill="#000000" font-family="sans-serif" font-size="14" lengthAdjust="spacing" textLength="275.2627" x="987.0137" y="705.6454">Benachrichtigung generieren &amp; senden</text></g><!--entity UC36--><g class="entity" data-entity="UC36" data-source-line="29" data-uid="ent0025" id="entity_UC36"><ellipse cx="401.3136" cy="936.9967" fill="#F1F1F1" rx="164.8836" ry="35.3767" style="stroke:#181818;stroke-width:0.5;"/><text fill="#000000" font-family="sans-serif" font-size="14" lengthAdjust="spacing" textLength="313.3457" x="244.6408" y="941.6452">Benachrichtigung empfangen &amp; interagieren</text></g><!--entity stud--><g class="entity" data-entity="stud" data-source-line="3" data-uid="ent0002" id="entity_stud"><ellipse cx="42.2954" cy="619.35" fill="#F1F1F1" rx="8" ry="8" style="stroke:#181818;stroke-width:0.5;"/><path d="M42.2954,627.35 L42.2954,654.35 M29.2954,635.35 L55.2954,635.35 M42.2954,654.35 L29.2954,669.35 M42.2954,654.35 L55.2954,669.35" fill="none" style="stroke:#181818;stroke-width:0.5;"/><text fill="#000000" font-family="sans-serif" font-size="14" lengthAdjust="spacing" textLength="72.5908" x="6" y="683.8451">Student:in</text></g><!--entity dev--><g class="entity" data-entity="dev" data-source-line="4" data-uid="ent0003" id="entity_dev"><ellipse cx="1418.0354" cy="533.35" fill="#F1F1F1" rx="8" ry="8" style="stroke:#181818;stroke-width:0.5;"/><path d="M1418.0354,541.35 L1418.0354,568.35 M1405.0354,549.35 L1431.0354,549.35 M1418.0354,568.35 L1405.0354,583.35 M1418.0354,568.35 L1431.0354,583.35" fill="none" style="stroke:#181818;stroke-width:0.5;"/><text fill="#000000" font-family="sans-serif" font-size="14" lengthAdjust="spacing" textLength="90.0908" x="1372.99" y="597.8451">Entwickler:in</text></g><!--entity log--><g class="entity" data-entity="log" data-source-line="5" data-uid="ent0004" id="entity_log"><ellipse cx="1418.034" cy="644.35" fill="#F1F1F1" rx="8" ry="8" style="stroke:#181818;stroke-width:0.5;"/><path d="M1418.034,652.35 L1418.034,679.35 M1405.034,660.35 L1431.034,660.35 M1418.034,679.35 L1405.034,694.35 M1418.034,679.35 L1431.034,694.35" fill="none" style="stroke:#181818;stroke-width:0.5;"/><text fill="#000000" font-family="sans-serif" font-size="14" lengthAdjust="spacing" textLength="55.7881" x="1390.14" y="708.8451">Logging</text></g><!--entity notif--><g class="entity" data-entity="notif" data-source-line="6" data-uid="ent0005" id="entity_notif"><ellipse cx="1418.0372" cy="771.35" fill="#F1F1F1" rx="8" ry="8" style="stroke:#181818;stroke-width:0.5;"/><path d="M1418.0372,779.35 L1418.0372,806.35 M1405.0372,787.35 L1431.0372,787.35 M1418.0372,806.35 L1405.0372,821.35 M1418.0372,806.35 L1431.0372,821.35" fill="none" style="stroke:#181818;stroke-width:0.5;"/><text fill="#000000" font-family="sans-serif" font-size="14" lengthAdjust="spacing" textLength="173.6943" x="1331.19" y="835.8451">Benachrichtigungsdienst</text></g><!--entity UC11--><g class="entity" data-entity="UC11" data-source-line="32" data-uid="ent0026" id="entity_UC11"><ellipse cx="157.5085" cy="203.35" fill="#F1F1F1" rx="8" ry="8" style="stroke:#181818;stroke-width:0.5;"/><path d="M157.5085,211.35 L157.5085,238.35 M144.5085,219.35 L170.5085,219.35 M157.5085,238.35 L144.5085,253.35 M157.5085,238.35 L170.5085,253.35" fill="none" style="stroke:#181818;stroke-width:0.5;"/><text fill="#000000" font-family="sans-serif" font-size="14" lengthAdjust="spacing" textLength="37.8369" x="138.59" y="267.8451">UC11</text></g><!--link stud to UC11--><g class="link" data-entity-1="stud" data-entity-2="UC11" data-source-line="32" data-uid="lnk27" id="link_stud_UC11"><path d="M53.74,610.61 C75.28,531.46 122.8451,356.7196 144.4251,277.3896" fill="none" id="stud-to-UC11" style="stroke:#181818;stroke-width:1;"/><polygon fill="#181818" points="146,271.6,139.7779,279.2345,144.6876,276.4247,147.4973,281.3344,146,271.6" style="stroke:#181818;stroke-width:1;"/></g><!--link UC11 to UC12--><g class="link" data-entity-1="UC11" data-entity-2="UC12" data-source-line="33" data-uid="lnk28" id="link_UC11_UC12"><path d="M176.68,230.37 C212.38,225.2 286.9219,214.4095 340.9519,206.5895" fill="none" id="UC11-to-UC12" style="stroke:#181818;stroke-width:1;"/><polygon fill="#181818" points="346.89,205.73,337.4098,203.0604,341.9416,206.4462,338.5558,210.9779,346.89,205.73" style="stroke:#181818;stroke-width:1;"/></g><!--link UC11 to UC13--><g class="link" data-entity-1="UC11" data-entity-2="UC13" data-source-line="34" data-uid="lnk29" id="link_UC11_UC13"><path d="M176.83,201.32 C185.91,188.39 198.03,174.5 212.43,166 C249.64,144.02 291.7549,136.2929 329.9649,133.5929" fill="none" id="UC11-to-UC13" style="stroke:#181818;stroke-width:1;"/><polygon fill="#181818" points="335.95,133.17,326.6904,129.8143,330.9624,133.5224,327.2543,137.7944,335.95,133.17" style="stroke:#181818;stroke-width:1;"/></g><!--link UC11 to UC14--><g class="link" data-entity-1="UC11" data-entity-2="UC14" data-source-line="35" data-uid="lnk30" id="link_UC11_UC14"><path d="M164.05,194.53 C170.46,164.32 184.05,123.55 212.43,100 C238.81,78.11 268.4283,68.5247 301.5283,63.8747" fill="none" id="UC11-to-UC14" style="stroke:#181818;stroke-width:1;"/><polygon fill="#181818" points="307.47,63.04,298.001,60.331,302.5186,63.7356,299.114,68.2532,307.47,63.04" style="stroke:#181818;stroke-width:1;"/></g><!--link UC11 to UC15--><g class="link" data-entity-1="UC11" data-entity-2="UC15" data-source-line="36" data-uid="lnk31" id="link_UC11_UC15"><path d="M176.72,265.8 C185.78,279.26 197.91,293.81 212.43,303 C239.36,320.06 266.4566,328.9738 297.2266,334.8538" fill="none" id="UC11-to-UC15" style="stroke:#181818;stroke-width:1;stroke-dasharray:7,7;"/><polygon fill="#181818" points="303.12,335.98,295.0308,330.3618,298.2089,335.0415,293.5292,338.2196,303.12,335.98" style="stroke:#181818;stroke-width:1;"/></g><!--link UC11 to UC16--><g class="link" data-entity-1="UC11" data-entity-2="UC16" data-source-line="37" data-uid="lnk32" id="link_UC11_UC16"><path d="M176.68,235.56 C209.08,240.11 272.4484,249.0247 325.3684,256.4647" fill="none" id="UC11-to-UC16" style="stroke:#181818;stroke-width:1;"/><polygon fill="#181818" points="331.31,257.3,322.9545,252.086,326.3587,256.6039,321.8408,260.0081,331.31,257.3" style="stroke:#181818;stroke-width:1;"/></g><!--link UC16 to UC17--><g class="link" data-entity-1="UC16" data-entity-2="UC17" data-source-line="38" data-uid="lnk33" id="link_UC16_UC17"><path d="M482.8,267 C539.18,267 608.81,267 668.47,267" fill="none" id="UC16-to-UC17" style="stroke:#181818;stroke-width:1;"/><polygon fill="#181818" points="674.47,267,665.47,263,669.47,267,665.47,271,674.47,267" style="stroke:#181818;stroke-width:1;"/></g><!--link stud to UC21--><g class="link" data-entity-1="stud" data-entity-2="UC21" data-source-line="40" data-uid="lnk34" id="link_stud_UC21"><path d="M79.02,622.14 C112.03,598.55 163.24,564.97 212.43,545 C243.55,532.37 273.3114,524.3808 305.1314,517.8808" fill="none" id="stud-to-UC21" style="stroke:#181818;stroke-width:1;"/><polygon fill="#181818" points="311.01,516.68,301.3915,514.5622,306.1112,517.6807,302.9927,522.4003,311.01,516.68" style="stroke:#181818;stroke-width:1;"/></g><!--link stud to UC22--><g class="link" data-entity-1="stud" data-entity-2="UC22" data-source-line="41" data-uid="lnk35" id="link_stud_UC22"><path d="M78.83,642.83 C132.89,633.44 231.5186,616.3173 306.7286,603.2473" fill="none" id="stud-to-UC22" style="stroke:#181818;stroke-width:1;"/><polygon fill="#181818" points="312.64,602.22,303.088,599.82,307.7138,603.0761,304.4578,607.7019,312.64,602.22" style="stroke:#181818;stroke-width:1;"/></g><!--link UC22 to UC23--><g class="link" data-entity-1="UC22" data-entity-2="UC23" data-source-line="42" data-uid="lnk36" id="link_UC22_UC23"><path d="M480.96,569.39 C508.21,562.62 538.79,554.27 566.2,545 C615.45,528.34 664.0552,507.6471 704.2952,489.4071" fill="none" id="UC22-to-UC23" style="stroke:#181818;stroke-width:1;"/><polygon fill="#181818" points="709.76,486.93,699.9114,487.0024,705.206,488.9942,703.2142,494.2888,709.76,486.93" style="stroke:#181818;stroke-width:1;"/></g><!--link UC22 to UC24--><g class="link" data-entity-1="UC22" data-entity-2="UC24" data-source-line="43" data-uid="lnk37" id="link_UC22_UC24"><path d="M512.98,587 C554.67,587 596.39,587 639.37,587" fill="none" id="UC22-to-UC24" style="stroke:#181818;stroke-width:1;"/><polygon fill="#181818" points="645.37,587,636.37,583,640.37,587,636.37,591,645.37,587" style="stroke:#181818;stroke-width:1;"/></g><!--link UC24 to UC25--><g class="link" data-entity-1="UC24" data-entity-2="UC25" data-source-line="44" data-uid="lnk38" id="link_UC24_UC25"><path d="M898.7,587 C936.12,587 970.84,587 1007.22,587" fill="none" id="UC24-to-UC25" style="stroke:#181818;stroke-width:1;"/><polygon fill="#181818" points="1013.22,587,1004.22,583,1008.22,587,1004.22,591,1013.22,587" style="stroke:#181818;stroke-width:1;"/></g><!--link UC25 to log--><g class="link" data-entity-1="UC25" data-entity-2="log" data-source-line="45" data-uid="lnk39" id="link_UC25_log"><path d="M1192.14,606.85 C1254.62,625.51 1339.2809,650.7831 1384.0509,664.1531" fill="none" id="UC25-to-log" style="stroke:#181818;stroke-width:1;"/><polygon fill="#181818" points="1389.8,665.87,1382.3209,659.4619,1385.0091,664.4393,1380.0317,667.1274,1389.8,665.87" style="stroke:#181818;stroke-width:1;"/></g><!--link UC26 to UC23--><g class="link" data-entity-1="UC26" data-entity-2="UC23" data-source-line="46" data-uid="lnk40" id="link_UC26_UC23"><path d="M486.01,430.94 C530.86,435.2 581.1968,439.9734 631.9068,444.7834" fill="none" id="UC26-to-UC23" style="stroke:#181818;stroke-width:1;stroke-dasharray:7,7;"/><polygon fill="#181818" points="637.88,445.35,629.2979,440.518,632.9023,444.8779,628.5425,448.4823,637.88,445.35" style="stroke:#181818;stroke-width:1;"/></g><!--link UC25 to dev--><g class="link" data-entity-1="UC25" data-entity-2="dev" data-source-line="47" data-uid="lnk41" id="link_UC25_dev"><path d="M1229.2,578.47 C1278.44,574.42 1328.7202,570.2724 1366.7302,567.1424" fill="none" id="UC25-to-dev" style="stroke:#181818;stroke-width:1;"/><polygon fill="#181818" points="1372.71,566.65,1363.4121,563.4021,1367.7269,567.0603,1364.0686,571.3751,1372.71,566.65" style="stroke:#181818;stroke-width:1;"/></g><!--link stud to UC31--><g class="link" data-entity-1="stud" data-entity-2="UC31" data-source-line="49" data-uid="lnk42" id="link_stud_UC31"><path d="M79,664.51 C112.83,678.73 165.33,699.55 212.43,713 C250.31,723.82 287.4717,731.5051 322.8117,737.7551" fill="none" id="stud-to-UC31" style="stroke:#181818;stroke-width:1;"/><polygon fill="#181818" points="328.72,738.8,320.5541,733.2938,323.7964,737.9292,319.1609,741.1715,328.72,738.8" style="stroke:#181818;stroke-width:1;"/></g><!--link stud to UC32--><g class="link" data-entity-1="stud" data-entity-2="UC32" data-source-line="50" data-uid="lnk43" id="link_stud_UC32"><path d="M78.92,685.91 C111.07,717.16 161.06,760.92 212.43,787 C236.93,799.44 259.0741,807.3685 285.7841,814.5185" fill="none" id="stud-to-UC32" style="stroke:#181818;stroke-width:1;"/><polygon fill="#181818" points="291.58,816.07,283.9204,809.8788,286.7501,814.7771,281.8518,817.6067,291.58,816.07" style="stroke:#181818;stroke-width:1;"/></g><!--link UC33 to UC34--><g class="link" data-entity-1="UC33" data-entity-2="UC34" data-source-line="51" data-uid="lnk44" id="link_UC33_UC34"><path d="M509.99,675.38 C571.01,677.86 639.695,680.6561 693.535,682.8461" fill="none" id="UC33-to-UC34" style="stroke:#181818;stroke-width:1;"/><polygon fill="#181818" points="699.53,683.09,690.7,678.7275,694.5341,682.8868,690.3749,686.7209,699.53,683.09" style="stroke:#181818;stroke-width:1;"/></g><!--link UC34 to UC35--><g class="link" data-entity-1="UC34" data-entity-2="UC35" data-source-line="52" data-uid="lnk45" id="link_UC34_UC35"><path d="M844.51,689.05 C883.64,690.73 927.5855,692.6138 974.3855,694.6138" fill="none" id="UC34-to-UC35" style="stroke:#181818;stroke-width:1;"/><polygon fill="#181818" points="980.38,694.87,971.559,690.4894,975.3846,694.6565,971.2174,698.4821,980.38,694.87" style="stroke:#181818;stroke-width:1;"/></g><!--link UC35 to notif--><g class="link" data-entity-1="UC35" data-entity-2="notif" data-source-line="53" data-uid="lnk46" id="link_UC35_notif"><path d="M1204.12,727.93 C1243.23,741.35 1284.9348,755.6626 1325.0648,769.4326" fill="none" id="UC35-to-notif" style="stroke:#181818;stroke-width:1;"/><polygon fill="#181818" points="1330.74,771.38,1323.5254,764.6755,1326.0107,769.7572,1320.929,772.2424,1330.74,771.38" style="stroke:#181818;stroke-width:1;"/></g><!--link notif to UC36--><g class="link" data-entity-1="notif" data-entity-2="UC36" data-source-line="54" data-uid="lnk47" id="link_notif_UC36"><path d="M1330.82,812.56 C1155.33,836.08 761.1968,888.903 548.0168,917.473" fill="none" id="notif-to-UC36" style="stroke:#181818;stroke-width:1;"/><polygon fill="#181818" points="542.07,918.27,551.5216,921.0391,547.0257,917.6058,550.4589,913.11,542.07,918.27" style="stroke:#181818;stroke-width:1;"/></g><!--link UC36 to stud--><g class="link" data-entity-1="UC36" data-entity-2="stud" data-source-line="55" data-uid="lnk48" id="link_UC36_stud"><path d="M274.22,914.12 C252.44,906.72 230.89,896.93 212.43,884 C139.34,832.82 88.9416,745.0172 63.2816,692.6872" fill="none" id="UC36-to-stud" style="stroke:#181818;stroke-width:1;"/><polygon fill="#181818" points="60.64,687.3,61.011,697.1419,62.8413,691.7893,68.1939,693.6197,60.64,687.3" style="stroke:#181818;stroke-width:1;"/></g><!--SRC=[XLInRjim4Dtr5OI7e1sImgBj01qo9BM10aqx6EtGZPPE566Q5CYJsxZetW_9DtJgvZKVrQCKMc9If8k0ntjtx_ZkH0qLChJCALaZAvM30fKrMIOAj8vDrjYMOF2jCXCcFFC4OsXfy9igjXfSZ9QmZy4FLafbP7UihOp7rs14KJjLrAXaQwGl5HYF7SrOL5MMDQBO2WcXX4TsnbQsDILRttc4tOJzo1XhFHJ24-CBEDrwt84kgHOJnfgx7HDj9M43VKkVRwRZZ4yEYPQ4yt7yAwXd13ucN8Ed_a5jUi64E1iJLvPShPKvj5Nxy4k2OQzi4wmL-dLCc8yJRXzluHiWUy2ToYx-nTg3E_wkAXgD3kmJ-J8RivSq0a4TihtGYgnseOqRJPvZR2AV_ZTX3OxaJWdvan5uFDwRick3hQ2cVHW6SW0bJytbYPFBxmLqXZ2ngOAJXeQz4txRgSQKrDEkEciSURkrMdVCDuBESCYOFyyuV_-EROYha9P8wu6xIDnQjqLDouDEXDOr39tpQRe3JvQuSSVxAlHoe4jumCEGc9Zr4LgoYDPvC2XHIVov5LZG_aYwxl5FDP1cBxN2g1guVcvdr8efXyJvYucmQqvJK0Q1J1WFWY-odraMVdzsVduLDcsQXKz4UO9uWcOzkhYuwfT-75i4j8ZeCf6WrHoZ897d4V441Oby5b6GoEST2czF6FIZUf_MXy9hDHRWYHmFSfn750Hu5E11WFTL-bUh-yPek1FlxnGA_WK0]--></g></svg>