<svg xmlns="http://www.w3.org/2000/svg" xmlns:xlink="http://www.w3.org/1999/xlink" contentStyleType="text/css" data-diagram-type="DESCRIPTION" height="1044px" preserveAspectRatio="none" style="width:1451px;height:1044px;background:#FFFFFF;" version="1.1" viewBox="0 0 1451 1044" width="1451px" zoomAndPan="magnify"><defs/><g><!--cluster Lost & Found System--><g class="cluster" data-entity="Lost . Found System" data-source-line="8" data-uid="ent0006" id="cluster_Lost . Found System"><path d="M125.09,6 L293.9396,6 A3.75,3.75 0 0 1 296.4396,8.5 L303.4396,28.2969 L1441.77,28.2969 A2.5,2.5 0 0 1 1444.27,30.7969 L1444.27,722.5 A2.5,2.5 0 0 1 1441.77,725 L125.09,725 A2.5,2.5 0 0 1 122.59,722.5 L122.59,8.5 A2.5,2.5 0 0 1 125.09,6" fill="none" style="stroke:#000000;stroke-width:1.5;"/><line style="stroke:#000000;stroke-width:1.5;" x1="122.59" x2="303.4396" y1="28.2969" y2="28.2969"/><text fill="#000000" font-family="sans-serif" font-size="14" font-weight="bold" lengthAdjust="spacing" textLength="167.8496" x="126.59" y="20.9951">Lost &amp; Found System</text></g><!--entity UC11--><g class="entity" data-entity="UC11" data-source-line="9" data-uid="ent0007" id="entity_UC11"><ellipse cx="303.466" cy="184.0012" fill="#F1F1F1" rx="131.206" ry="28.6412" style="stroke:#181818;stroke-width:0.5;"/><text fill="#000000" font-family="sans-serif" font-size="14" lengthAdjust="spacing" textLength="243.1201" x="181.9059" y="188.6496">Verlustmeldung anonym aufgeben</text></g><!--entity UC12--><g class="entity" data-entity="UC12" data-source-line="10" data-uid="ent0008" id="entity_UC12"><ellipse cx="674.3207" cy="370.9961" fill="#F1F1F1" rx="62.9807" ry="14.9961" style="stroke:#181818;stroke-width:0.5;"/><text fill="#000000" font-family="sans-serif" font-size="14" lengthAdjust="spacing" textLength="88.04" x="630.3007" y="375.6446">Ort angeben</text></g><!--entity UC13--><g class="entity" data-entity="UC13" data-source-line="11" data-uid="ent0009" id="entity_UC13"><ellipse cx="674.3186" cy="436.0017" fill="#F1F1F1" rx="64.9586" ry="15.3917" style="stroke:#181818;stroke-width:0.5;"/><text fill="#000000" font-family="sans-serif" font-size="14" lengthAdjust="spacing" textLength="93.3584" x="627.6394" y="440.6502">Zeit angeben</text></g><!--entity UC14--><g class="entity" data-entity="UC14" data-source-line="12" data-uid="ent0010" id="entity_UC14"><ellipse cx="674.3167" cy="263.0013" fill="#F1F1F1" rx="93.5067" ry="21.1013" style="stroke:#181818;stroke-width:0.5;"/><text fill="#000000" font-family="sans-serif" font-size="14" lengthAdjust="spacing" textLength="161.6357" x="593.4988" y="267.6498">Beschreibung angeben</text></g><!--entity UC15--><g class="entity" data-entity="UC15" data-source-line="13" data-uid="ent0011" id="entity_UC15"><ellipse cx="674.3176" cy="183.9995" fill="#F1F1F1" rx="104.1976" ry="23.2395" style="stroke:#181818;stroke-width:0.5;"/><text fill="#000000" font-family="sans-serif" font-size="14" lengthAdjust="spacing" textLength="185.2676" x="581.6838" y="188.6479">Foto hinzufu&#776;gen (optional)</text></g><!--entity UC16--><g class="entity" data-entity="UC16" data-source-line="14" data-uid="ent0012" id="entity_UC16"><ellipse cx="1026.8187" cy="102.0017" fill="#F1F1F1" rx="81.0087" ry="18.6017" style="stroke:#181818;stroke-width:0.5;"/><text fill="#000000" font-family="sans-serif" font-size="14" lengthAdjust="spacing" textLength="133.0479" x="960.2948" y="106.6502">Meldung speichern</text></g><!--entity UC17--><g class="entity" data-entity="UC17" data-source-line="15" data-uid="ent0013" id="entity_UC17"><ellipse cx="1330.8085" cy="102.0017" fill="#F1F1F1" rx="97.4585" ry="21.8917" style="stroke:#181818;stroke-width:0.5;"/><text fill="#000000" font-family="sans-serif" font-size="14" lengthAdjust="spacing" textLength="170.4404" x="1245.5883" y="106.6501">Meldung ver&#246;ffentlichen</text></g><!--entity UC21--><g class="entity" data-entity="UC21" data-source-line="17" data-uid="ent0014" id="entity_UC21"><ellipse cx="674.3157" cy="102.0011" fill="#F1F1F1" rx="108.7057" ry="24.1411" style="stroke:#181818;stroke-width:0.5;"/><text fill="#000000" font-family="sans-serif" font-size="14" lengthAdjust="spacing" textLength="195.0771" x="576.7771" y="106.6496">Eingaben validieren (Client)</text></g><!--entity UC22--><g class="entity" data-entity="UC22" data-source-line="18" data-uid="ent0015" id="entity_UC22"><ellipse cx="303.4728" cy="494.9986" fill="#F1F1F1" rx="111.1928" ry="24.6386" style="stroke:#181818;stroke-width:0.5;"/><text fill="#000000" font-family="sans-serif" font-size="14" lengthAdjust="spacing" textLength="200.457" x="203.2443" y="499.647">Eingaben validieren (Server)</text></g><!--entity UC23--><g class="entity" data-entity="UC23" data-source-line="19" data-uid="ent0016" id="entity_UC23"><ellipse cx="674.3216" cy="608.0023" fill="#F1F1F1" rx="145.9616" ry="31.5923" style="stroke:#181818;stroke-width:0.5;"/><text fill="#000000" font-family="sans-serif" font-size="14" lengthAdjust="spacing" textLength="274.0664" x="537.2884" y="612.6508">Verst&#228;ndliche Fehlermeldung anzeigen</text></g><!--entity UC24--><g class="entity" data-entity="UC24" data-source-line="20" data-uid="ent0017" id="entity_UC24"><ellipse cx="674.3169" cy="514.0034" fill="#F1F1F1" rx="126.4169" ry="27.6834" style="stroke:#181818;stroke-width:0.5;"/><text fill="#000000" font-family="sans-serif" font-size="14" lengthAdjust="spacing" textLength="232.9961" x="557.8188" y="518.6518">Exception abfangen &amp; maskieren</text></g><!--entity UC25--><g class="entity" data-entity="UC25" data-source-line="21" data-uid="ent0018" id="entity_UC25"><ellipse cx="1026.8215" cy="585.9983" fill="#F1F1F1" rx="111.0915" ry="24.6183" style="stroke:#181818;stroke-width:0.5;"/><text fill="#000000" font-family="sans-serif" font-size="14" lengthAdjust="spacing" textLength="200.2383" x="926.7023" y="590.6467">Fehler protokollieren/alerten</text></g><!--entity UC31--><g class="entity" data-entity="UC31" data-source-line="23" data-uid="ent0019" id="entity_UC31"><ellipse cx="303.4672" cy="318.9974" fill="#F1F1F1" rx="86.6872" ry="19.7374" style="stroke:#181818;stroke-width:0.5;"/><text fill="#000000" font-family="sans-serif" font-size="14" lengthAdjust="spacing" textLength="146.2002" x="230.3671" y="323.6459">Suchauftrag anlegen</text></g><!--entity UC32--><g class="entity" data-entity="UC32" data-source-line="24" data-uid="ent0020" id="entity_UC32"><ellipse cx="303.4721" cy="404.9964" fill="#F1F1F1" rx="142.1821" ry="30.8364" style="stroke:#181818;stroke-width:0.5;"/><text fill="#000000" font-family="sans-serif" font-size="14" lengthAdjust="spacing" textLength="266.1709" x="170.3867" y="409.6449">Benachrichtigungspr&#228;ferenzen setzen</text></g><!--entity UC33--><g class="entity" data-entity="UC33" data-source-line="25" data-uid="ent0021" id="entity_UC33"><ellipse cx="303.4734" cy="579.0047" fill="#F1F1F1" rx="110.1234" ry="24.4247" style="stroke:#181818;stroke-width:0.5;"/><text fill="#000000" font-family="sans-serif" font-size="14" lengthAdjust="spacing" textLength="198.1465" x="204.4002" y="583.6531">Neue Fundmeldung anlegen</text></g><!--entity UC34--><g class="entity" data-entity="UC34" data-source-line="26" data-uid="ent0022" id="entity_UC34"><ellipse cx="674.3183" cy="692.0037" fill="#F1F1F1" rx="73.3683" ry="17.0737" style="stroke:#181818;stroke-width:0.5;"/><text fill="#000000" font-family="sans-serif" font-size="14" lengthAdjust="spacing" textLength="114.748" x="616.9443" y="696.6521">Matching pr&#252;fen</text></g><!--entity UC35--><g class="entity" data-entity="UC35" data-source-line="27" data-uid="ent0023" id="entity_UC35"><ellipse cx="1026.8151" cy="676.997" fill="#F1F1F1" rx="146.5351" ry="31.707" style="stroke:#181818;stroke-width:0.5;"/><text fill="#000000" font-family="sans-serif" font-size="14" lengthAdjust="spacing" textLength="275.2627" x="889.1837" y="681.6454">Benachrichtigung generieren &amp; senden</text></g><!--entity UC36--><g class="entity" data-entity="UC36" data-source-line="28" data-uid="ent0024" id="entity_UC36"><ellipse cx="303.4736" cy="673.9967" fill="#F1F1F1" rx="164.8836" ry="35.3767" style="stroke:#181818;stroke-width:0.5;"/><text fill="#000000" font-family="sans-serif" font-size="14" lengthAdjust="spacing" textLength="313.3457" x="146.8008" y="678.6452">Benachrichtigung empfangen &amp; interagieren</text></g><!--entity stud--><g class="entity" data-entity="stud" data-source-line="3" data-uid="ent0002" id="entity_stud"><ellipse cx="42.2954" cy="375.35" fill="#F1F1F1" rx="8" ry="8" style="stroke:#181818;stroke-width:0.5;"/><path d="M42.2954,383.35 L42.2954,410.35 M29.2954,391.35 L55.2954,391.35 M42.2954,410.35 L29.2954,425.35 M42.2954,410.35 L55.2954,425.35" fill="none" style="stroke:#181818;stroke-width:0.5;"/><text fill="#000000" font-family="sans-serif" font-size="14" lengthAdjust="spacing" textLength="72.5908" x="6" y="439.8451">Student:in</text></g><!--entity dev--><g class="entity" data-entity="dev" data-source-line="4" data-uid="ent0003" id="entity_dev"><ellipse cx="1330.8054" cy="749.35" fill="#F1F1F1" rx="8" ry="8" style="stroke:#181818;stroke-width:0.5;"/><path d="M1330.8054,757.35 L1330.8054,784.35 M1317.8054,765.35 L1343.8054,765.35 M1330.8054,784.35 L1317.8054,799.35 M1330.8054,784.35 L1343.8054,799.35" fill="none" style="stroke:#181818;stroke-width:0.5;"/><text fill="#000000" font-family="sans-serif" font-size="14" lengthAdjust="spacing" textLength="90.0908" x="1285.76" y="813.8451">Entwickler:in</text></g><!--entity log--><g class="entity" data-entity="log" data-source-line="5" data-uid="ent0004" id="entity_log"><ellipse cx="1330.814" cy="860.35" fill="#F1F1F1" rx="8" ry="8" style="stroke:#181818;stroke-width:0.5;"/><path d="M1330.814,868.35 L1330.814,895.35 M1317.814,876.35 L1343.814,876.35 M1330.814,895.35 L1317.814,910.35 M1330.814,895.35 L1343.814,910.35" fill="none" style="stroke:#181818;stroke-width:0.5;"/><text fill="#000000" font-family="sans-serif" font-size="14" lengthAdjust="spacing" textLength="55.7881" x="1302.92" y="924.8451">Logging</text></g><!--entity notif--><g class="entity" data-entity="notif" data-source-line="6" data-uid="ent0005" id="entity_notif"><ellipse cx="1330.8072" cy="971.35" fill="#F1F1F1" rx="8" ry="8" style="stroke:#181818;stroke-width:0.5;"/><path d="M1330.8072,979.35 L1330.8072,1006.35 M1317.8072,987.35 L1343.8072,987.35 M1330.8072,1006.35 L1317.8072,1021.35 M1330.8072,1006.35 L1343.8072,1021.35" fill="none" style="stroke:#181818;stroke-width:0.5;"/><text fill="#000000" font-family="sans-serif" font-size="14" lengthAdjust="spacing" textLength="173.6943" x="1243.96" y="1035.8451">Benachrichtigungsdienst</text></g><!--link stud to UC11--><g class="link" data-entity-1="stud" data-entity-2="UC11" data-source-line="31" data-uid="lnk25" id="link_stud_UC11"><path d="M58.69,366.55 C70.77,340.19 89.71,305.8 114.59,282 C148.62,249.45 190.0685,227.2981 228.5385,210.9381" fill="none" id="stud-to-UC11" style="stroke:#181818;stroke-width:1;"/><polygon fill="#181818" points="234.06,208.59,224.2124,208.4312,229.4588,210.5467,227.3432,215.7931,234.06,208.59" style="stroke:#181818;stroke-width:1;"/></g><!--link UC11 to UC14--><g class="link" data-entity-1="UC11" data-entity-2="UC14" data-source-line="32" data-uid="lnk26" id="link_UC11_UC14"><path d="M398.5,204.14 C463.07,217.97 541.4032,234.7428 599.5032,247.1928" fill="none" id="UC11-to-UC14" style="stroke:#181818;stroke-width:1;"/><polygon fill="#181818" points="605.37,248.45,597.4079,242.653,600.481,247.4024,595.7317,250.4754,605.37,248.45" style="stroke:#181818;stroke-width:1;"/></g><!--link UC11 to UC15--><g class="link" data-entity-1="UC11" data-entity-2="UC15" data-source-line="33" data-uid="lnk27" id="link_UC11_UC15"><path d="M435.03,184 C479.28,184 522.06,184 563.9,184" fill="none" id="UC11-to-UC15" style="stroke:#181818;stroke-width:1;stroke-dasharray:7,7;"/><polygon fill="#181818" points="569.9,184,560.9,180,564.9,184,560.9,188,569.9,184" style="stroke:#181818;stroke-width:1;"/></g><!--link UC11 to UC16--><g class="link" data-entity-1="UC11" data-entity-2="UC16" data-source-line="34" data-uid="lnk28" id="link_UC11_UC16"><path d="M340.79,156.19 C383.13,125.68 456.52,78.57 528.36,60 C688.22,18.69 879.8452,60.5274 970.3952,85.4574" fill="none" id="UC11-to-UC16" style="stroke:#181818;stroke-width:1;"/><polygon fill="#181818" points="976.18,87.05,968.5646,80.8045,971.3594,85.7228,966.4411,88.5175,976.18,87.05" style="stroke:#181818;stroke-width:1;"/></g><!--link UC11 to UC21--><g class="link" data-entity-1="UC11" data-entity-2="UC21" data-source-line="35" data-uid="lnk29" id="link_UC11_UC21"><path d="M396.6,163.52 C458.05,149.86 532.073,133.402 590.193,120.482" fill="none" id="UC11-to-UC21" style="stroke:#181818;stroke-width:1;"/><polygon fill="#181818" points="596.05,119.18,586.3965,117.2283,591.1691,120.265,588.1325,125.0377,596.05,119.18" style="stroke:#181818;stroke-width:1;"/></g><!--link UC21 to UC16--><g class="link" data-entity-1="UC21" data-entity-2="UC16" data-source-line="36" data-uid="lnk30" id="link_UC21_UC16"><path d="M783.34,102 C835.64,102 891.35,102 939.43,102" fill="none" id="UC21-to-UC16" style="stroke:#181818;stroke-width:1;"/><polygon fill="#181818" points="945.43,102,936.43,98,940.43,102,936.43,106,945.43,102" style="stroke:#181818;stroke-width:1;"/></g><!--link UC16 to UC17--><g class="link" data-entity-1="UC16" data-entity-2="UC17" data-source-line="37" data-uid="lnk31" id="link_UC16_UC17"><path d="M1107.95,102 C1146.31,102 1186.55,102 1226.87,102" fill="none" id="UC16-to-UC17" style="stroke:#181818;stroke-width:1;"/><polygon fill="#181818" points="1232.87,102,1223.87,98,1227.87,102,1223.87,106,1232.87,102" style="stroke:#181818;stroke-width:1;"/></g><!--link stud to UC31--><g class="link" data-entity-1="stud" data-entity-2="UC31" data-source-line="39" data-uid="lnk32" id="link_stud_UC31"><path d="M79.09,376.91 C89.99,369.49 102.34,362.12 114.59,357 C149.44,342.43 184.3977,334.2723 219.1077,328.6323" fill="none" id="stud-to-UC31" style="stroke:#181818;stroke-width:1;"/><polygon fill="#181818" points="225.03,327.67,215.505,325.1653,220.0947,328.4719,216.7881,333.0617,225.03,327.67" style="stroke:#181818;stroke-width:1;"/></g><!--link UC31 to UC12--><g class="link" data-entity-1="UC31" data-entity-2="UC12" data-source-line="40" data-uid="lnk33" id="link_UC31_UC12"><path d="M378.23,329.4 C449.39,339.43 549.4987,353.5424 613.1987,362.5224" fill="none" id="UC31-to-UC12" style="stroke:#181818;stroke-width:1;"/><polygon fill="#181818" points="619.14,363.36,610.7865,358.1428,614.189,362.662,609.6697,366.0645,619.14,363.36" style="stroke:#181818;stroke-width:1;"/></g><!--link UC31 to UC13--><g class="link" data-entity-1="UC31" data-entity-2="UC13" data-source-line="41" data-uid="lnk34" id="link_UC31_UC13"><path d="M378.5,329.24 C407.45,335 440.36,343.79 468.36,357 C498.75,371.34 497.94,388.72 528.36,403 C555.81,415.89 582.693,422.8477 610.143,427.7377" fill="none" id="UC31-to-UC13" style="stroke:#181818;stroke-width:1;"/><polygon fill="#181818" points="616.05,428.79,607.891,423.2736,611.1275,427.9131,606.488,431.1496,616.05,428.79" style="stroke:#181818;stroke-width:1;"/></g><!--link UC31 to UC14--><g class="link" data-entity-1="UC31" data-entity-2="UC14" data-source-line="42" data-uid="lnk35" id="link_UC31_UC14"><path d="M376.47,308.07 C439.57,298.49 525.1481,285.5012 589.8481,275.6712" fill="none" id="UC31-to-UC14" style="stroke:#181818;stroke-width:1;"/><polygon fill="#181818" points="595.78,274.77,586.2813,272.1673,590.8367,275.521,587.4829,280.0765,595.78,274.77" style="stroke:#181818;stroke-width:1;"/></g><!--link UC31 to UC15--><g class="link" data-entity-1="UC31" data-entity-2="UC15" data-source-line="43" data-uid="lnk36" id="link_UC31_UC15"><path d="M342.69,300.95 C386.79,280.56 461.77,247.2 528.36,224 C552.4,215.63 573.3569,209.3921 597.2769,202.9421" fill="none" id="UC31-to-UC15" style="stroke:#181818;stroke-width:1;stroke-dasharray:7,7;"/><polygon fill="#181818" points="603.07,201.38,593.339,199.8611,598.2424,202.6817,595.4218,207.5852,603.07,201.38" style="stroke:#181818;stroke-width:1;"/></g><!--link UC31 to UC16--><g class="link" data-entity-1="UC31" data-entity-2="UC16" data-source-line="44" data-uid="lnk37" id="link_UC31_UC16"><path d="M388.24,323.49 C514,329 744.9,334.08 820.28,302 C912.14,262.91 982.8659,167.3651 1010.6559,125.6051" fill="none" id="UC31-to-UC16" style="stroke:#181818;stroke-width:1;"/><polygon fill="#181818" points="1013.98,120.61,1005.6639,125.8866,1011.21,124.7726,1012.324,130.3186,1013.98,120.61" style="stroke:#181818;stroke-width:1;"/></g><!--link UC31 to UC21--><g class="link" data-entity-1="UC31" data-entity-2="UC21" data-source-line="45" data-uid="lnk38" id="link_UC31_UC21"><path d="M348.7,301.8 C383.85,286.61 432.84,261.93 468.36,230 C503.29,198.6 490.17,170.34 528.36,143 C545.26,130.9 559.9038,124.0865 579.9738,118.0565" fill="none" id="UC31-to-UC21" style="stroke:#181818;stroke-width:1;"/><polygon fill="#181818" points="585.72,116.33,575.9497,115.0888,580.9315,117.7687,578.2516,122.7505,585.72,116.33" style="stroke:#181818;stroke-width:1;"/></g><!--link stud to UC32--><g class="link" data-entity-1="stud" data-entity-2="UC32" data-source-line="47" data-uid="lnk39" id="link_stud_UC32"><path d="M79.06,405 C100.93,405 124.49,405 154.93,405" fill="none" id="stud-to-UC32" style="stroke:#181818;stroke-width:1;"/><polygon fill="#181818" points="160.93,405,151.93,401,155.93,405,151.93,409,160.93,405" style="stroke:#181818;stroke-width:1;"/></g><!--link stud to UC33--><g class="link" data-entity-1="stud" data-entity-2="UC33" data-source-line="48" data-uid="lnk40" id="link_stud_UC33"><path d="M54.35,443.54 C64.95,473.53 83.96,513.82 114.59,537 C138.45,555.05 162.718,564.3775 191.828,570.4875" fill="none" id="stud-to-UC33" style="stroke:#181818;stroke-width:1;"/><polygon fill="#181818" points="197.7,571.72,189.7136,565.9565,192.8066,570.6929,188.0703,573.7859,197.7,571.72" style="stroke:#181818;stroke-width:1;"/></g><!--link UC33 to UC34--><g class="link" data-entity-1="UC33" data-entity-2="UC34" data-source-line="49" data-uid="lnk41" id="link_UC33_UC34"><path d="M386.85,595.18 C413.4,601.69 442.61,610.25 468.36,621 C497.05,632.99 499.58,645.22 528.36,657 C555.67,668.19 581.5377,675.1186 608.3377,680.7386" fill="none" id="UC33-to-UC34" style="stroke:#181818;stroke-width:1;"/><polygon fill="#181818" points="614.21,681.97,606.2225,676.208,609.3164,680.9438,604.5806,684.0377,614.21,681.97" style="stroke:#181818;stroke-width:1;"/></g><!--link UC34 to UC35--><g class="link" data-entity-1="UC34" data-entity-2="UC35" data-source-line="50" data-uid="lnk42" id="link_UC34_UC35"><path d="M746.67,688.95 C785.8,687.27 829.7555,685.3975 876.5555,683.3875" fill="none" id="UC34-to-UC35" style="stroke:#181818;stroke-width:1;"/><polygon fill="#181818" points="882.55,683.13,873.3867,679.5199,877.5546,683.3445,873.7299,687.5125,882.55,683.13" style="stroke:#181818;stroke-width:1;"/></g><!--link UC35 to notif--><g class="link" data-entity-1="UC35" data-entity-2="notif" data-source-line="51" data-uid="lnk43" id="link_UC35_notif"><path d="M1054.77,708.29 C1084.71,743.47 1134.02,802.65 1173.35,856 C1201.88,894.7 1198.19,913.21 1233.35,946 C1239.7,951.92 1241.8571,954.0344 1249.2371,959.1444" fill="none" id="UC35-to-notif" style="stroke:#181818;stroke-width:1;"/><polygon fill="#181818" points="1254.17,962.56,1249.0477,954.148,1250.0592,959.7137,1244.4936,960.7252,1254.17,962.56" style="stroke:#181818;stroke-width:1;"/></g><!--link notif to UC36--><g class="link" data-entity-1="notif" data-entity-2="UC36" data-source-line="52" data-uid="lnk44" id="link_notif_UC36"><path d="M1243.67,973.53 C1052.42,912.54 599.4363,768.0732 402.5363,705.2732" fill="none" id="notif-to-UC36" style="stroke:#181818;stroke-width:1;"/><polygon fill="#181818" points="396.82,703.45,404.179,709.9956,401.5836,704.9693,406.6099,702.3739,396.82,703.45" style="stroke:#181818;stroke-width:1;"/></g><!--link UC36 to stud--><g class="link" data-entity-1="UC36" data-entity-2="stud" data-source-line="53" data-uid="lnk45" id="link_UC36_stud"><path d="M167.99,653.67 C148.32,645.96 129.65,635.41 114.59,621 C65.24,573.76 50.6095,497.702 45.9295,449.472" fill="none" id="UC36-to-stud" style="stroke:#181818;stroke-width:1;"/><polygon fill="#181818" points="45.35,443.5,42.2379,452.8443,45.8329,448.4766,50.2005,452.0716,45.35,443.5" style="stroke:#181818;stroke-width:1;"/></g><!--link stud to UC21--><g class="link" data-entity-1="stud" data-entity-2="UC21" data-source-line="55" data-uid="lnk46" id="link_stud_UC21"><path d="M48.08,366.41 C57.21,299.63 79.4,166.87 114.59,138 C255.11,22.71 482.6236,55.2911 598.2136,81.9611" fill="none" id="stud-to-UC21" style="stroke:#181818;stroke-width:1;"/><polygon fill="#181818" points="604.06,83.31,596.1897,77.389,599.188,82.1859,594.3911,85.1842,604.06,83.31" style="stroke:#181818;stroke-width:1;"/></g><!--link stud to UC22--><g class="link" data-entity-1="stud" data-entity-2="UC22" data-source-line="56" data-uid="lnk47" id="link_stud_UC22"><path d="M78.79,432.68 C89.78,440.19 102.25,447.69 114.59,453 C144.53,465.88 173.0334,473.8292 204.1434,480.2392" fill="none" id="stud-to-UC22" style="stroke:#181818;stroke-width:1;"/><polygon fill="#181818" points="210.02,481.45,202.0124,475.7161,205.1229,480.441,200.398,483.5515,210.02,481.45" style="stroke:#181818;stroke-width:1;"/></g><!--link UC22 to UC23--><g class="link" data-entity-1="UC22" data-entity-2="UC23" data-source-line="57" data-uid="lnk48" id="link_UC22_UC23"><path d="M381.21,512.97 C408.85,519.89 440.17,528.25 468.36,537 C495.48,545.43 501.57,549.56 528.36,559 C549.41,566.42 566.5665,572.3169 587.7565,579.4869" fill="none" id="UC22-to-UC23" style="stroke:#181818;stroke-width:1;"/><polygon fill="#181818" points="593.44,581.41,586.1969,574.7364,588.7038,579.8074,583.6327,582.3143,593.44,581.41" style="stroke:#181818;stroke-width:1;"/></g><!--link UC22 to UC24--><g class="link" data-entity-1="UC22" data-entity-2="UC24" data-source-line="58" data-uid="lnk49" id="link_UC22_UC24"><path d="M412.15,500.55 C455.64,502.79 500.0579,505.0815 544.9279,507.3915" fill="none" id="UC22-to-UC24" style="stroke:#181818;stroke-width:1;"/><polygon fill="#181818" points="550.92,507.7,542.1376,503.2426,545.9266,507.4429,541.7262,511.232,550.92,507.7" style="stroke:#181818;stroke-width:1;"/></g><!--link UC24 to UC25--><g class="link" data-entity-1="UC24" data-entity-2="UC25" data-source-line="59" data-uid="lnk50" id="link_UC24_UC25"><path d="M767.87,533.01 C822.63,544.26 885.4929,557.172 938.2329,568.012" fill="none" id="UC24-to-UC25" style="stroke:#181818;stroke-width:1;"/><polygon fill="#181818" points="944.11,569.22,936.0996,563.49,939.2124,568.2134,934.489,571.3261,944.11,569.22" style="stroke:#181818;stroke-width:1;"/></g><!--link UC25 to log--><g class="link" data-entity-1="UC25" data-entity-2="log" data-source-line="60" data-uid="lnk51" id="link_UC25_log"><path d="M1123.02,598.65 C1141.61,604.94 1159.58,614.25 1173.35,628 C1241.12,695.69 1174.07,759.76 1233.35,835 C1251.13,857.56 1275.3044,870.2989 1297.0744,878.8389" fill="none" id="UC25-to-log" style="stroke:#181818;stroke-width:1;"/><polygon fill="#181818" points="1302.66,881.03,1295.7424,874.0196,1298.0053,879.2041,1292.8208,881.467,1302.66,881.03" style="stroke:#181818;stroke-width:1;"/></g><!--link UC25 to dev--><g class="link" data-entity-1="UC25" data-entity-2="dev" data-source-line="61" data-uid="lnk52" id="link_UC25_dev"><path d="M1116.97,600.58 C1136.86,606.75 1156.9,615.53 1173.35,628 C1213.74,658.64 1196.73,689.95 1233.35,725 C1248.32,739.33 1262.48,748.4738 1280.03,757.3838" fill="none" id="UC25-to-dev" style="stroke:#181818;stroke-width:1;"/><polygon fill="#181818" points="1285.38,760.1,1279.1658,752.4591,1280.9217,757.8365,1275.5442,759.5924,1285.38,760.1" style="stroke:#181818;stroke-width:1;"/></g><!--SRC=[XLInRjim4Dtr5OI7e1sImfJj01qo9B2dfXsCTkX6IoUAC4qA9EKsBhhtG_8DdRfvxKVrI8KIcHRf8k3ntjsxUqTHGkE8qyG8tZfI2mEL4reL1QkSDcIsTNqDohqLQaQO9HPX3AsL-oAglGGJepKSO_2Tvbme7ewbvl7u5XIhMYEgrWdUAsvh0SgwG5FQYQOeEbRj6GTVmZfoGJQwLpNPFbW7XndvLX3IMwYOHSOdCBAtxW2onbg4AQqU3eJr3OST32rzl9lFqvGFnY4lYzCq_Xd4NuGo9To2nG50x0R5ZBX8YHkDjhP2dVgc__s3WoAlTEUzPV9rJ5Yc2VTFOzWEq1ymOzdLlrX7CEUVJOExaPuzag-BbBt67J3ia1oP5EYryMtSIJJTnIRe_By9Mp0eDoRGPpkmxloewj06sK2B5sBQo0a47vkZcPFhhnK4GmZRDTv9XTi-CBiFgZ4bzpHK9vr1R_TQoi1ym_3CJHdBp85jNxLu8vnXlXq9KpVbFD_hivlPcVDZu-kVi34BxZGbPWQyXnx7nZiw3PsfP3FVCrVXdU0umlbNCv4MBxL2i1gOOHSNs8ggfyJbYubmw4PdXNA09gJcbglYUr7uVvfSNjuC_uh_HBGOqDNLpN1PqzWgHTJdqJosYkWwaoWzjHofD4DbXXO3IkJBJA9Cv3C9cg5Gj8me55r458ek0ngUd_2DqI0op14UlhGiQgR8pq5fH6M6l2IDajHBqa7IFumZmCVp3m00]--></g></svg>