<svg xmlns="http://www.w3.org/2000/svg" xmlns:xlink="http://www.w3.org/1999/xlink" contentStyleType="text/css" data-diagram-type="DESCRIPTION" height="400px" preserveAspectRatio="none" style="width:1295px;height:400px;background:#FFFFFF;" version="1.1" viewBox="0 0 1295 400" width="1295px" zoomAndPan="magnify"><defs/><g><!--cluster Lost & Found System--><g class="cluster" data-entity="Lost . Found System" data-source-line="8" data-uid="ent0006" id="cluster_Lost . Found System"><path d="M8.5,97.65 L177.3496,97.65 A3.75,3.75 0 0 1 179.8496,100.15 L186.8496,119.9469 L1285.93,119.9469 A2.5,2.5 0 0 1 1288.43,122.4469 L1288.43,391.15 A2.5,2.5 0 0 1 1285.93,393.65 L8.5,393.65 A2.5,2.5 0 0 1 6,391.15 L6,100.15 A2.5,2.5 0 0 1 8.5,97.65" fill="none" style="stroke:#000000;stroke-width:1.5;"/><line style="stroke:#000000;stroke-width:1.5;" x1="6" x2="186.8496" y1="119.9469" y2="119.9469"/><text fill="#000000" font-family="sans-serif" font-size="14" font-weight="bold" lengthAdjust="spacing" textLength="167.8496" x="10" y="112.6451">Lost &amp; Found System</text></g><!--entity UC1--><g class="entity" data-entity="UC1" data-source-line="9" data-uid="ent0007" id="entity_UC1"><ellipse cx="484.596" cy="226.6512" fill="#F1F1F1" rx="131.206" ry="28.6412" style="stroke:#181818;stroke-width:0.5;"/><text fill="#000000" font-family="sans-serif" font-size="14" lengthAdjust="spacing" textLength="243.1201" x="363.0359" y="231.2996">Verlustmeldung anonym aufgeben</text></g><!--entity UC2--><g class="entity" data-entity="UC2" data-source-line="10" data-uid="ent0008" id="entity_UC2"><ellipse cx="834.3107" cy="362.6461" fill="#F1F1F1" rx="62.9807" ry="14.9961" style="stroke:#181818;stroke-width:0.5;"/><text fill="#000000" font-family="sans-serif" font-size="14" lengthAdjust="spacing" textLength="88.04" x="790.2907" y="367.2946">Ort angeben</text></g><!--entity UC3--><g class="entity" data-entity="UC3" data-source-line="11" data-uid="ent0009" id="entity_UC3"><ellipse cx="834.3086" cy="297.6517" fill="#F1F1F1" rx="64.9586" ry="15.3917" style="stroke:#181818;stroke-width:0.5;"/><text fill="#000000" font-family="sans-serif" font-size="14" lengthAdjust="spacing" textLength="93.3584" x="787.6294" y="302.3002">Zeit angeben</text></g><!--entity UC4--><g class="entity" data-entity="UC4" data-source-line="12" data-uid="ent0010" id="entity_UC4"><ellipse cx="834.3067" cy="226.6513" fill="#F1F1F1" rx="93.5067" ry="21.1013" style="stroke:#181818;stroke-width:0.5;"/><text fill="#000000" font-family="sans-serif" font-size="14" lengthAdjust="spacing" textLength="161.6357" x="753.4888" y="231.2998">Beschreibung angeben</text></g><!--entity UC5--><g class="entity" data-entity="UC5" data-source-line="13" data-uid="ent0011" id="entity_UC5"><ellipse cx="126.1976" cy="226.6495" fill="#F1F1F1" rx="104.1976" ry="23.2395" style="stroke:#181818;stroke-width:0.5;"/><text fill="#000000" font-family="sans-serif" font-size="14" lengthAdjust="spacing" textLength="185.2676" x="33.5638" y="231.2979">Foto hinzufu&#776;gen (optional)</text></g><!--entity UC6--><g class="entity" data-entity="UC6" data-source-line="14" data-uid="ent0012" id="entity_UC6"><ellipse cx="834.3087" cy="151.6517" fill="#F1F1F1" rx="81.0087" ry="18.6017" style="stroke:#181818;stroke-width:0.5;"/><text fill="#000000" font-family="sans-serif" font-size="14" lengthAdjust="spacing" textLength="133.0479" x="767.7848" y="156.3002">Meldung speichern</text></g><!--entity UC7--><g class="entity" data-entity="UC7" data-source-line="15" data-uid="ent0013" id="entity_UC7"><ellipse cx="1162.6243" cy="156.6509" fill="#F1F1F1" rx="109.8043" ry="24.3609" style="stroke:#181818;stroke-width:0.5;"/><text fill="#000000" font-family="sans-serif" font-size="14" lengthAdjust="spacing" textLength="197.4561" x="1063.8962" y="161.2993">Meldung auffindbar machen</text></g><!--entity s--><g class="entity" data-entity="s" data-source-line="2" data-uid="ent0002" id="entity_s"><ellipse cx="126.1957" cy="14" fill="#F1F1F1" rx="8" ry="8" style="stroke:#181818;stroke-width:0.5;"/><path d="M126.1957,22 L126.1957,49 M113.1957,30 L139.1957,30 M126.1957,49 L113.1957,64 M126.1957,49 L139.1957,64" fill="none" style="stroke:#181818;stroke-width:0.5;"/><text fill="#000000" font-family="sans-serif" font-size="14" lengthAdjust="spacing" textLength="55.1113" x="98.64" y="78.4951">Student</text></g><g class="entity" data-entity="GMN3" data-source-line="4" data-uid="ent0004" id="entity_GMN3"><path d="M385.85,23.52 L385.85,39.65 L153.99,43.65 L385.85,47.65 L385.85,63.7856 A0,0 0 0 0 385.85,63.7856 L583.3529,63.7856 A0,0 0 0 0 583.3529,63.7856 L583.3529,33.52 L573.3529,23.52 L385.85,23.52 A0,0 0 0 0 385.85,23.52" fill="#FEFFDD" style="stroke:#181818;stroke-width:0.5;"/><path d="M573.3529,23.52 L573.3529,33.52 L583.3529,33.52 L573.3529,23.52" fill="#FEFFDD" style="stroke:#181818;stroke-width:0.5;"/><text fill="#000000" font-family="sans-serif" font-size="13" lengthAdjust="spacing" textLength="112.6963" x="391.85" y="40.5869">Meldung anonym</text><text fill="#000000" font-family="sans-serif" font-size="13" lengthAdjust="spacing" textLength="176.5029" x="391.85" y="55.7197">(keine perso&#776;nlichen Daten)</text></g><!--link s to UC1--><g class="link" data-entity-1="s" data-entity-2="UC1" data-source-line="18" data-uid="lnk14" id="link_s_UC1"><path d="M153.99,57.4 C212.91,87.66 349.3126,157.6992 426.3326,197.2492" fill="none" id="s-to-UC1" style="stroke:#181818;stroke-width:1;"/><polygon fill="#181818" points="431.67,199.99,425.4911,192.3205,427.2221,197.706,421.8367,199.4371,431.67,199.99" style="stroke:#181818;stroke-width:1;"/></g><!--link UC1 to UC2--><g class="link" data-entity-1="UC1" data-entity-2="UC2" data-source-line="20" data-uid="lnk15" id="link_UC1_UC2"><path d="M543.88,252.64 C574.12,265.91 611.78,282.06 645.81,295.65 C687.6,312.33 698.43,315.52 740.81,330.65 C759.21,337.22 774.0751,342.4018 791.1151,348.2518" fill="none" id="UC1-to-UC2" style="stroke:#181818;stroke-width:1;"/><polygon fill="#181818" points="796.79,350.2,789.5765,343.4944,792.0609,348.5765,786.9788,351.0609,796.79,350.2" style="stroke:#181818;stroke-width:1;"/><text fill="#000000" font-family="sans-serif" font-size="13" lengthAdjust="spacing" textLength="63.0068" x="646.81" y="291.7169">&#171;include&#187;</text></g><!--link UC1 to UC3--><g class="link" data-entity-1="UC1" data-entity-2="UC3" data-source-line="21" data-uid="lnk16" id="link_UC1_UC3"><path d="M581.54,246.24 C647.27,259.66 725.8613,275.7098 778.3213,286.4198" fill="none" id="UC1-to-UC3" style="stroke:#181818;stroke-width:1;"/><polygon fill="#181818" points="784.2,287.62,776.182,281.9006,779.3011,286.6199,774.5818,289.7389,784.2,287.62" style="stroke:#181818;stroke-width:1;"/><text fill="#000000" font-family="sans-serif" font-size="13" lengthAdjust="spacing" textLength="63.0068" x="646.81" y="256.7169">&#171;include&#187;</text></g><!--link UC1 to UC4--><g class="link" data-entity-1="UC1" data-entity-2="UC4" data-source-line="22" data-uid="lnk17" id="link_UC1_UC4"><path d="M616.07,226.65 C657.4,226.65 696.23,226.65 734.37,226.65" fill="none" id="UC1-to-UC4" style="stroke:#181818;stroke-width:1;"/><polygon fill="#181818" points="740.37,226.65,731.37,222.65,735.37,226.65,731.37,230.65,740.37,226.65" style="stroke:#181818;stroke-width:1;"/><text fill="#000000" font-family="sans-serif" font-size="13" lengthAdjust="spacing" textLength="63.0068" x="646.81" y="222.7169">&#171;include&#187;</text></g><!--link UC5 to UC1--><g class="link" data-entity-1="UC5" data-entity-2="UC1" data-source-line="23" data-uid="lnk18" id="link_UC5_UC1"><path d="M230.76,226.65 C268.99,226.65 306.81,226.65 347.12,226.65" fill="none" id="UC5-to-UC1" style="stroke:#181818;stroke-width:1;stroke-dasharray:7,7;"/><polygon fill="#181818" points="353.12,226.65,344.12,222.65,348.12,226.65,344.12,230.65,353.12,226.65" style="stroke:#181818;stroke-width:1;"/><text fill="#000000" font-family="sans-serif" font-size="13" lengthAdjust="spacing" textLength="61.1851" x="261.4" y="222.7169">&#171;extend&#187;</text></g><!--link UC1 to UC6--><g class="link" data-entity-1="UC1" data-entity-2="UC6" data-source-line="25" data-uid="lnk19" id="link_UC1_UC6"><path d="M579.24,206.45 C641.19,193.09 714.6849,177.235 768.0949,165.715" fill="none" id="UC1-to-UC6" style="stroke:#181818;stroke-width:1;"/><polygon fill="#181818" points="773.96,164.45,764.319,162.4375,769.0724,165.5042,766.0057,170.2577,773.96,164.45" style="stroke:#181818;stroke-width:1;"/><text fill="#000000" font-family="sans-serif" font-size="13" lengthAdjust="spacing" textLength="63.0068" x="646.81" y="176.7169">&#171;include&#187;</text></g><!--link UC6 to UC7--><g class="link" data-entity-1="UC6" data-entity-2="UC7" data-source-line="26" data-uid="lnk20" id="link_UC6_UC7"><path d="M915.56,152.88 C956.88,153.51 1001.8807,154.1976 1046.7007,154.8876" fill="none" id="UC6-to-UC7" style="stroke:#181818;stroke-width:1;"/><polygon fill="#181818" points="1052.7,154.98,1043.7626,150.8419,1047.7006,154.903,1043.6395,158.841,1052.7,154.98" style="stroke:#181818;stroke-width:1;"/><text fill="#000000" font-family="sans-serif" font-size="13" lengthAdjust="spacing" textLength="63.0068" x="958.82" y="149.7169">&#171;include&#187;</text></g><!--SRC=[TP6_QiCm48TtFSNXeIH30irVAC53MpArT0Zjq4sHpxQ8VJBI2PgMxdcuF5Hbrm4bQHU1z7rtqlrKOSx01gmkIePCMrIi3Gcfs5X8Dkmp94v0Ed2236DlcZpi0PwnoZmL8CdGlWu7WnrgGcZGEdCyKALLYGIFaf660Yc3jeSGZLGxMI0aJyOntC3Q-C0sUyTO9_0L6dc7IhfWlA6jlEFwx2QGFYzmYzIzxFNXDgvuiHoq64zY_8xwaazZVezEbHRrzlUws9l5tjg4t4fDdpxtnqCHnXoOfWrFLiFUdyV-AIlNO9kAFJLT_2M5-N9DsLPQg6MROIylnRSG3aQZj9jQXANVJE0ELYjDgWfVbgOHcVvBPbTa3kDnrxeZ-17-BGiWgbbSrInwiZmdFm00]--></g></svg>