<svg xmlns="http://www.w3.org/2000/svg" xmlns:xlink="http://www.w3.org/1999/xlink" contentStyleType="text/css" data-diagram-type="DESCRIPTION" height="725px" preserveAspectRatio="none" style="width:1414px;height:725px;background:#FFFFFF;" version="1.1" viewBox="0 0 1414 725" width="1414px" zoomAndPan="magnify"><defs/><g><!--cluster Lost & Found System--><g class="cluster" data-entity="Lost . Found System" data-source-line="8" data-uid="ent0006" id="cluster_Lost . Found System"><path d="M125.09,6 L293.9396,6 A3.75,3.75 0 0 1 296.4396,8.5 L303.4396,28.2969 L1186.85,28.2969 A2.5,2.5 0 0 1 1189.35,30.7969 L1189.35,715.5 A2.5,2.5 0 0 1 1186.85,718 L125.09,718 A2.5,2.5 0 0 1 122.59,715.5 L122.59,8.5 A2.5,2.5 0 0 1 125.09,6" fill="none" style="stroke:#000000;stroke-width:1.5;"/><line style="stroke:#000000;stroke-width:1.5;" x1="122.59" x2="303.4396" y1="28.2969" y2="28.2969"/><text fill="#000000" font-family="sans-serif" font-size="14" font-weight="bold" lengthAdjust="spacing" textLength="167.8496" x="126.59" y="20.9951">Lost &amp; Found System</text></g><!--entity UC11--><g class="entity" data-entity="UC11" data-source-line="9" data-uid="ent0007" id="entity_UC11"><ellipse cx="303.466" cy="153.0012" fill="#F1F1F1" rx="131.206" ry="28.6412" style="stroke:#181818;stroke-width:0.5;"/><text fill="#000000" font-family="sans-serif" font-size="14" lengthAdjust="spacing" textLength="243.1201" x="181.9059" y="157.6496">Verlustmeldung anonym aufgeben</text></g><!--entity UC12--><g class="entity" data-entity="UC12" data-source-line="10" data-uid="ent0008" id="entity_UC12"><ellipse cx="674.3207" cy="197.9961" fill="#F1F1F1" rx="62.9807" ry="14.9961" style="stroke:#181818;stroke-width:0.5;"/><text fill="#000000" font-family="sans-serif" font-size="14" lengthAdjust="spacing" textLength="88.04" x="630.3007" y="202.6446">Ort angeben</text></g><!--entity UC13--><g class="entity" data-entity="UC13" data-source-line="11" data-uid="ent0009" id="entity_UC13"><ellipse cx="674.3186" cy="133.0017" fill="#F1F1F1" rx="64.9586" ry="15.3917" style="stroke:#181818;stroke-width:0.5;"/><text fill="#000000" font-family="sans-serif" font-size="14" lengthAdjust="spacing" textLength="93.3584" x="627.6394" y="137.6502">Zeit angeben</text></g><!--entity UC14--><g class="entity" data-entity="UC14" data-source-line="12" data-uid="ent0010" id="entity_UC14"><ellipse cx="674.3167" cy="62.0013" fill="#F1F1F1" rx="93.5067" ry="21.1013" style="stroke:#181818;stroke-width:0.5;"/><text fill="#000000" font-family="sans-serif" font-size="14" lengthAdjust="spacing" textLength="161.6357" x="593.4988" y="66.6498">Beschreibung angeben</text></g><!--entity UC15--><g class="entity" data-entity="UC15" data-source-line="13" data-uid="ent0011" id="entity_UC15"><ellipse cx="674.3176" cy="343.9995" fill="#F1F1F1" rx="104.1976" ry="23.2395" style="stroke:#181818;stroke-width:0.5;"/><text fill="#000000" font-family="sans-serif" font-size="14" lengthAdjust="spacing" textLength="185.2676" x="581.6838" y="348.6479">Foto hinzufu&#776;gen (optional)</text></g><!--entity UC16--><g class="entity" data-entity="UC16" data-source-line="14" data-uid="ent0012" id="entity_UC16"><ellipse cx="674.3187" cy="267.0017" fill="#F1F1F1" rx="81.0087" ry="18.6017" style="stroke:#181818;stroke-width:0.5;"/><text fill="#000000" font-family="sans-serif" font-size="14" lengthAdjust="spacing" textLength="133.0479" x="607.7948" y="271.6502">Meldung speichern</text></g><!--entity UC17--><g class="entity" data-entity="UC17" data-source-line="15" data-uid="ent0013" id="entity_UC17"><ellipse cx="1026.8185" cy="267.0017" fill="#F1F1F1" rx="97.4585" ry="21.8917" style="stroke:#181818;stroke-width:0.5;"/><text fill="#000000" font-family="sans-serif" font-size="14" lengthAdjust="spacing" textLength="170.4404" x="941.5983" y="271.6501">Meldung ver&#246;ffentlichen</text></g><!--entity UC21--><g class="entity" data-entity="UC21" data-source-line="17" data-uid="ent0014" id="entity_UC21"><ellipse cx="303.4657" cy="65.0011" fill="#F1F1F1" rx="108.7057" ry="24.1411" style="stroke:#181818;stroke-width:0.5;"/><text fill="#000000" font-family="sans-serif" font-size="14" lengthAdjust="spacing" textLength="195.0771" x="205.9271" y="69.6496">Eingaben validieren (Client)</text></g><!--entity UC22--><g class="entity" data-entity="UC22" data-source-line="18" data-uid="ent0015" id="entity_UC22"><ellipse cx="303.4728" cy="240.9986" fill="#F1F1F1" rx="111.1928" ry="24.6386" style="stroke:#181818;stroke-width:0.5;"/><text fill="#000000" font-family="sans-serif" font-size="14" lengthAdjust="spacing" textLength="200.457" x="203.2443" y="245.647">Eingaben validieren (Server)</text></g><!--entity UC23--><g class="entity" data-entity="UC23" data-source-line="19" data-uid="ent0016" id="entity_UC23"><ellipse cx="674.3216" cy="524.0023" fill="#F1F1F1" rx="145.9616" ry="31.5923" style="stroke:#181818;stroke-width:0.5;"/><text fill="#000000" font-family="sans-serif" font-size="14" lengthAdjust="spacing" textLength="274.0664" x="537.2884" y="528.6508">Verst&#228;ndliche Fehlermeldung anzeigen</text></g><!--entity UC24--><g class="entity" data-entity="UC24" data-source-line="20" data-uid="ent0017" id="entity_UC24"><ellipse cx="674.3169" cy="430.0034" fill="#F1F1F1" rx="126.4169" ry="27.6834" style="stroke:#181818;stroke-width:0.5;"/><text fill="#000000" font-family="sans-serif" font-size="14" lengthAdjust="spacing" textLength="232.9961" x="557.8188" y="434.6518">Exception abfangen &amp; maskieren</text></g><!--entity UC25--><g class="entity" data-entity="UC25" data-source-line="21" data-uid="ent0018" id="entity_UC25"><ellipse cx="1026.8215" cy="429.9983" fill="#F1F1F1" rx="111.0915" ry="24.6183" style="stroke:#181818;stroke-width:0.5;"/><text fill="#000000" font-family="sans-serif" font-size="14" lengthAdjust="spacing" textLength="200.2383" x="926.7023" y="434.6467">Fehler protokollieren/alerten</text></g><!--entity UC26--><g class="entity" data-entity="UC26" data-source-line="22" data-uid="ent0019" id="entity_UC26"><ellipse cx="303.4724" cy="321.0005" fill="#F1F1F1" rx="91.0524" ry="20.6105" style="stroke:#181818;stroke-width:0.5;"/><text fill="#000000" font-family="sans-serif" font-size="14" lengthAdjust="spacing" textLength="156.1191" x="225.4128" y="325.6489">Fehler-ID bereitstellen</text></g><!--entity UC31--><g class="entity" data-entity="UC31" data-source-line="24" data-uid="ent0020" id="entity_UC31"><ellipse cx="303.4672" cy="576.9974" fill="#F1F1F1" rx="86.6872" ry="19.7374" style="stroke:#181818;stroke-width:0.5;"/><text fill="#000000" font-family="sans-serif" font-size="14" lengthAdjust="spacing" textLength="146.2002" x="230.3671" y="581.6459">Suchauftrag anlegen</text></g><!--entity UC32--><g class="entity" data-entity="UC32" data-source-line="25" data-uid="ent0021" id="entity_UC32"><ellipse cx="303.4721" cy="490.9964" fill="#F1F1F1" rx="142.1821" ry="30.8364" style="stroke:#181818;stroke-width:0.5;"/><text fill="#000000" font-family="sans-serif" font-size="14" lengthAdjust="spacing" textLength="266.1709" x="170.3867" y="495.6449">Benachrichtigungspr&#228;ferenzen setzen</text></g><!--entity UC33--><g class="entity" data-entity="UC33" data-source-line="26" data-uid="ent0022" id="entity_UC33"><ellipse cx="303.4734" cy="401.0047" fill="#F1F1F1" rx="110.1234" ry="24.4247" style="stroke:#181818;stroke-width:0.5;"/><text fill="#000000" font-family="sans-serif" font-size="14" lengthAdjust="spacing" textLength="198.1465" x="204.4002" y="405.6531">Neue Fundmeldung anlegen</text></g><!--entity UC34--><g class="entity" data-entity="UC34" data-source-line="27" data-uid="ent0023" id="entity_UC34"><ellipse cx="674.3183" cy="608.0037" fill="#F1F1F1" rx="73.3683" ry="17.0737" style="stroke:#181818;stroke-width:0.5;"/><text fill="#000000" font-family="sans-serif" font-size="14" lengthAdjust="spacing" textLength="114.748" x="616.9443" y="612.6521">Matching pr&#252;fen</text></g><!--entity UC35--><g class="entity" data-entity="UC35" data-source-line="28" data-uid="ent0024" id="entity_UC35"><ellipse cx="1026.8151" cy="599.997" fill="#F1F1F1" rx="146.5351" ry="31.707" style="stroke:#181818;stroke-width:0.5;"/><text fill="#000000" font-family="sans-serif" font-size="14" lengthAdjust="spacing" textLength="275.2627" x="889.1837" y="604.6454">Benachrichtigung generieren &amp; senden</text></g><!--entity UC36--><g class="entity" data-entity="UC36" data-source-line="29" data-uid="ent0025" id="entity_UC36"><ellipse cx="303.4736" cy="666.9967" fill="#F1F1F1" rx="164.8836" ry="35.3767" style="stroke:#181818;stroke-width:0.5;"/><text fill="#000000" font-family="sans-serif" font-size="14" lengthAdjust="spacing" textLength="313.3457" x="146.8008" y="671.6452">Benachrichtigung empfangen &amp; interagieren</text></g><!--entity stud--><g class="entity" data-entity="stud" data-source-line="3" data-uid="ent0002" id="entity_stud"><ellipse cx="42.2954" cy="336.35" fill="#F1F1F1" rx="8" ry="8" style="stroke:#181818;stroke-width:0.5;"/><path d="M42.2954,344.35 L42.2954,371.35 M29.2954,352.35 L55.2954,352.35 M42.2954,371.35 L29.2954,386.35 M42.2954,371.35 L55.2954,386.35" fill="none" style="stroke:#181818;stroke-width:0.5;"/><text fill="#000000" font-family="sans-serif" font-size="14" lengthAdjust="spacing" textLength="72.5908" x="6" y="400.8451">Student:in</text></g><!--entity dev--><g class="entity" data-entity="dev" data-source-line="4" data-uid="ent0003" id="entity_dev"><ellipse cx="1320.1954" cy="366.35" fill="#F1F1F1" rx="8" ry="8" style="stroke:#181818;stroke-width:0.5;"/><path d="M1320.1954,374.35 L1320.1954,401.35 M1307.1954,382.35 L1333.1954,382.35 M1320.1954,401.35 L1307.1954,416.35 M1320.1954,401.35 L1333.1954,416.35" fill="none" style="stroke:#181818;stroke-width:0.5;"/><text fill="#000000" font-family="sans-serif" font-size="14" lengthAdjust="spacing" textLength="90.0908" x="1275.15" y="430.8451">Entwickler:in</text></g><!--entity log--><g class="entity" data-entity="log" data-source-line="5" data-uid="ent0004" id="entity_log"><ellipse cx="1320.194" cy="477.35" fill="#F1F1F1" rx="8" ry="8" style="stroke:#181818;stroke-width:0.5;"/><path d="M1320.194,485.35 L1320.194,512.35 M1307.194,493.35 L1333.194,493.35 M1320.194,512.35 L1307.194,527.35 M1320.194,512.35 L1333.194,527.35" fill="none" style="stroke:#181818;stroke-width:0.5;"/><text fill="#000000" font-family="sans-serif" font-size="14" lengthAdjust="spacing" textLength="55.7881" x="1292.3" y="541.8451">Logging</text></g><!--entity notif--><g class="entity" data-entity="notif" data-source-line="6" data-uid="ent0005" id="entity_notif"><ellipse cx="1320.1972" cy="604.35" fill="#F1F1F1" rx="8" ry="8" style="stroke:#181818;stroke-width:0.5;"/><path d="M1320.1972,612.35 L1320.1972,639.35 M1307.1972,620.35 L1333.1972,620.35 M1320.1972,639.35 L1307.1972,654.35 M1320.1972,639.35 L1333.1972,654.35" fill="none" style="stroke:#181818;stroke-width:0.5;"/><text fill="#000000" font-family="sans-serif" font-size="14" lengthAdjust="spacing" textLength="173.6943" x="1233.35" y="668.8451">Benachrichtigungsdienst</text></g><!--link stud to UC11--><g class="link" data-entity-1="stud" data-entity-2="UC11" data-source-line="32" data-uid="lnk26" id="link_stud_UC11"><path d="M49.48,327.64 C57.67,289.43 75.89,231.84 114.59,199 C134.05,182.49 152.734,173.344 177.524,166.374" fill="none" id="stud-to-UC11" style="stroke:#181818;stroke-width:1;"/><polygon fill="#181818" points="183.3,164.75,173.5533,163.3353,178.4866,166.1033,175.7186,171.0367,183.3,164.75" style="stroke:#181818;stroke-width:1;"/></g><!--link UC11 to UC12--><g class="link" data-entity-1="UC11" data-entity-2="UC12" data-source-line="33" data-uid="lnk27" id="link_UC11_UC12"><path d="M418.91,166.96 C484.9,175.01 558.9842,184.0534 611.4442,190.4534" fill="none" id="UC11-to-UC12" style="stroke:#181818;stroke-width:1;"/><polygon fill="#181818" points="617.4,191.18,608.9506,186.1195,612.4368,190.5745,607.9818,194.0607,617.4,191.18" style="stroke:#181818;stroke-width:1;"/></g><!--link UC11 to UC13--><g class="link" data-entity-1="UC11" data-entity-2="UC13" data-source-line="34" data-uid="lnk28" id="link_UC11_UC13"><path d="M431.41,146.12 C491.84,142.84 555.4288,139.3954 604.4088,136.7354" fill="none" id="UC11-to-UC13" style="stroke:#181818;stroke-width:1;"/><polygon fill="#181818" points="610.4,136.41,601.1963,132.9039,605.4074,136.6811,601.6302,140.8922,610.4,136.41" style="stroke:#181818;stroke-width:1;"/></g><!--link UC11 to UC14--><g class="link" data-entity-1="UC11" data-entity-2="UC14" data-source-line="35" data-uid="lnk29" id="link_UC11_UC14"><path d="M391.89,131.43 C458.88,114.9 543.9345,93.9165 604.0745,79.0865" fill="none" id="UC11-to-UC14" style="stroke:#181818;stroke-width:1;"/><polygon fill="#181818" points="609.9,77.65,600.2041,75.9211,605.0454,78.8471,602.1194,83.6884,609.9,77.65" style="stroke:#181818;stroke-width:1;"/></g><!--link UC11 to UC15--><g class="link" data-entity-1="UC11" data-entity-2="UC15" data-source-line="36" data-uid="lnk30" id="link_UC11_UC15"><path d="M410.72,169.9 C431.24,176.59 451.56,185.94 468.36,199 C510.5,231.74 486.25,270.22 528.36,303 C545.18,316.1 560.2252,323.3121 580.7652,329.3721" fill="none" id="UC11-to-UC15" style="stroke:#181818;stroke-width:1;stroke-dasharray:7,7;"/><polygon fill="#181818" points="586.52,331.07,579.0198,324.6867,581.7244,329.6551,576.756,332.3597,586.52,331.07" style="stroke:#181818;stroke-width:1;"/></g><!--link UC11 to UC16--><g class="link" data-entity-1="UC11" data-entity-2="UC16" data-source-line="37" data-uid="lnk31" id="link_UC11_UC16"><path d="M392.74,174.23 C417.54,181.15 444.3,189.52 468.36,199 C496.28,210 500.3,219.33 528.36,230 C555.31,240.25 580.2969,247.207 606.5769,253.337" fill="none" id="UC11-to-UC16" style="stroke:#181818;stroke-width:1;"/><polygon fill="#181818" points="612.42,254.7,604.5639,248.7601,607.5507,253.5642,602.7466,256.551,612.42,254.7" style="stroke:#181818;stroke-width:1;"/></g><!--link UC16 to UC17--><g class="link" data-entity-1="UC16" data-entity-2="UC17" data-source-line="38" data-uid="lnk32" id="link_UC16_UC17"><path d="M755.73,267 C807.27,267 868.46,267 922.94,267" fill="none" id="UC16-to-UC17" style="stroke:#181818;stroke-width:1;"/><polygon fill="#181818" points="928.94,267,919.94,263,923.94,267,919.94,271,928.94,267" style="stroke:#181818;stroke-width:1;"/></g><!--link stud to UC21--><g class="link" data-entity-1="stud" data-entity-2="UC21" data-source-line="40" data-uid="lnk33" id="link_stud_UC21"><path d="M48.95,327.54 C59.21,263.08 82.8,137.28 114.59,107 C136.49,86.14 160.5092,75.9701 190.0092,70.0001" fill="none" id="stud-to-UC21" style="stroke:#181818;stroke-width:1;"/><polygon fill="#181818" points="195.89,68.81,186.2754,66.6746,190.9893,69.8018,187.8622,74.5157,195.89,68.81" style="stroke:#181818;stroke-width:1;"/></g><!--link stud to UC22--><g class="link" data-entity-1="stud" data-entity-2="UC22" data-source-line="41" data-uid="lnk34" id="link_stud_UC22"><path d="M67.95,327.58 C80.14,311.51 96.19,294.05 114.59,283 C140.81,267.26 166.416,258.6332 196.046,252.4632" fill="none" id="stud-to-UC22" style="stroke:#181818;stroke-width:1;"/><polygon fill="#181818" points="201.92,251.24,192.2936,249.1588,197.025,252.2593,193.9245,256.9908,201.92,251.24" style="stroke:#181818;stroke-width:1;"/></g><!--link UC22 to UC23--><g class="link" data-entity-1="UC22" data-entity-2="UC23" data-source-line="42" data-uid="lnk35" id="link_UC22_UC23"><path d="M406.61,250.44 C429.2,256.78 451.42,266.92 468.36,283 C533.2,344.55 465.87,411.06 528.36,475 C539.59,486.5 548.1458,492.8116 563.0058,499.5516" fill="none" id="UC22-to-UC23" style="stroke:#181818;stroke-width:1;"/><polygon fill="#181818" points="568.47,502.03,561.9259,494.6696,563.9165,499.9647,558.6214,501.9552,568.47,502.03" style="stroke:#181818;stroke-width:1;"/></g><!--link UC22 to UC24--><g class="link" data-entity-1="UC22" data-entity-2="UC24" data-source-line="43" data-uid="lnk36" id="link_UC22_UC24"><path d="M402.01,252.77 C425.38,259.01 449.11,268.52 468.36,283 C510.39,314.62 487.13,352.34 528.36,385 C543.02,396.62 555.0523,403.2244 572.9523,409.6444" fill="none" id="UC22-to-UC24" style="stroke:#181818;stroke-width:1;"/><polygon fill="#181818" points="578.6,411.67,571.4788,404.8664,573.8936,409.982,568.778,412.3967,578.6,411.67" style="stroke:#181818;stroke-width:1;"/></g><!--link UC24 to UC25--><g class="link" data-entity-1="UC24" data-entity-2="UC25" data-source-line="44" data-uid="lnk37" id="link_UC24_UC25"><path d="M800.87,430 C838.29,430 873,430 909.38,430" fill="none" id="UC24-to-UC25" style="stroke:#181818;stroke-width:1;"/><polygon fill="#181818" points="915.38,430,906.38,426,910.38,430,906.38,434,915.38,430" style="stroke:#181818;stroke-width:1;"/></g><!--link UC25 to log--><g class="link" data-entity-1="UC25" data-entity-2="log" data-source-line="45" data-uid="lnk38" id="link_UC25_log"><path d="M1099.47,448.93 C1161.65,465.37 1242.5293,486.7363 1286.0993,498.2563" fill="none" id="UC25-to-log" style="stroke:#181818;stroke-width:1;"/><polygon fill="#181818" points="1291.9,499.79,1284.2215,493.6223,1287.0661,498.5119,1282.1765,501.3565,1291.9,499.79" style="stroke:#181818;stroke-width:1;"/></g><!--link UC26 to UC23--><g class="link" data-entity-1="UC26" data-entity-2="UC23" data-source-line="46" data-uid="lnk39" id="link_UC26_UC23"><path d="M390.98,326.9 C417.94,332.25 446.33,341.88 468.36,359 C514.19,394.62 484.33,437.18 528.36,475 C541.05,485.91 550.7505,492.0809 566.4905,498.7109" fill="none" id="UC26-to-UC23" style="stroke:#181818;stroke-width:1;stroke-dasharray:7,7;"/><polygon fill="#181818" points="572.02,501.04,565.2785,493.86,567.4121,499.0991,562.173,501.2326,572.02,501.04" style="stroke:#181818;stroke-width:1;"/></g><!--link UC25 to dev--><g class="link" data-entity-1="UC25" data-entity-2="dev" data-source-line="47" data-uid="lnk40" id="link_UC25_dev"><path d="M1126.06,418.54 C1176.45,412.66 1229.3803,406.4745 1268.7703,401.8845" fill="none" id="UC25-to-dev" style="stroke:#181818;stroke-width:1;"/><polygon fill="#181818" points="1274.73,401.19,1265.3275,398.2586,1269.7636,401.7687,1266.2535,406.2048,1274.73,401.19" style="stroke:#181818;stroke-width:1;"/></g><!--link stud to UC31--><g class="link" data-entity-1="stud" data-entity-2="UC31" data-source-line="49" data-uid="lnk41" id="link_stud_UC31"><path d="M48.51,404.57 C56.01,444.38 73.74,505.31 114.59,539 C142.83,562.29 175.5322,571.88 210.4422,576.04" fill="none" id="stud-to-UC31" style="stroke:#181818;stroke-width:1;"/><polygon fill="#181818" points="216.4,576.75,207.9365,571.7132,211.4351,576.1584,206.9899,579.657,216.4,576.75" style="stroke:#181818;stroke-width:1;"/></g><!--link stud to UC32--><g class="link" data-entity-1="stud" data-entity-2="UC32" data-source-line="50" data-uid="lnk42" id="link_stud_UC32"><path d="M71.29,404.55 C83.21,418.5 98.15,433.21 114.59,443 C136.87,456.26 156.9562,464.2937 182.2462,471.2737" fill="none" id="stud-to-UC32" style="stroke:#181818;stroke-width:1;"/><polygon fill="#181818" points="188.03,472.87,180.4186,466.6197,183.2102,471.5397,178.2902,474.3314,188.03,472.87" style="stroke:#181818;stroke-width:1;"/></g><!--link UC33 to UC34--><g class="link" data-entity-1="UC33" data-entity-2="UC34" data-source-line="51" data-uid="lnk43" id="link_UC33_UC34"><path d="M403.47,411.58 C426.68,417.85 449.97,427.68 468.36,443 C517.25,483.73 479.18,532.61 528.36,573 C549.16,590.09 571.0854,598.0044 596.7954,602.6444" fill="none" id="UC33-to-UC34" style="stroke:#181818;stroke-width:1;"/><polygon fill="#181818" points="602.7,603.71,594.5535,598.1751,597.7795,602.822,593.1327,606.048,602.7,603.71" style="stroke:#181818;stroke-width:1;"/></g><!--link UC34 to UC35--><g class="link" data-entity-1="UC34" data-entity-2="UC35" data-source-line="52" data-uid="lnk44" id="link_UC34_UC35"><path d="M747.52,606.35 C785.99,605.47 828.7516,604.4972 874.6616,603.4472" fill="none" id="UC34-to-UC35" style="stroke:#181818;stroke-width:1;"/><polygon fill="#181818" points="880.66,603.31,871.5709,599.5168,875.6613,603.4243,871.7538,607.5147,880.66,603.31" style="stroke:#181818;stroke-width:1;"/></g><!--link UC35 to notif--><g class="link" data-entity-1="UC35" data-entity-2="notif" data-source-line="53" data-uid="lnk45" id="link_UC35_notif"><path d="M1156.47,615.01 C1182.39,618.04 1203.0703,620.4559 1227.1103,623.2559" fill="none" id="UC35-to-notif" style="stroke:#181818;stroke-width:1;"/><polygon fill="#181818" points="1233.07,623.95,1224.5932,618.9356,1228.1036,623.3715,1223.6677,626.8819,1233.07,623.95" style="stroke:#181818;stroke-width:1;"/></g><!--link notif to UC36--><g class="link" data-entity-1="notif" data-entity-2="UC36" data-source-line="54" data-uid="lnk46" id="link_notif_UC36"><path d="M1233.1,645.71 C1221.11,647.02 1208.94,648.17 1197.35,649 C943.34,667.15 653.72,669.4438 474.45,668.7338" fill="none" id="notif-to-UC36" style="stroke:#181818;stroke-width:1;"/><polygon fill="#181818" points="468.45,668.71,477.4341,672.7456,473.45,668.7298,477.4658,664.7457,468.45,668.71" style="stroke:#181818;stroke-width:1;"/></g><!--link UC36 to stud--><g class="link" data-entity-1="UC36" data-entity-2="stud" data-source-line="55" data-uid="lnk47" id="link_UC36_stud"><path d="M167.02,646.98 C147.58,639.22 129.25,628.58 114.59,614 C57.75,557.44 45.783,464.7251 43.583,410.4551" fill="none" id="UC36-to-stud" style="stroke:#181818;stroke-width:1;"/><polygon fill="#181818" points="43.34,404.46,39.7078,413.6146,43.5425,409.4559,47.7013,413.2906,43.34,404.46" style="stroke:#181818;stroke-width:1;"/></g><!--SRC=[XLInRjim4Dtr5OI7e1sImgBj01qo9BM10aqx6EtGZPPE566Q4iYJsxZetW_9DtJgvZKVrQCOMc9If8k0ntjtx_ZkH0qLCcoOLR96LYeB1Qh6P9aeiB5iiiQk18DlbPamuPWZ64DBWzzKiTLWOxI4VGn-QAHKHlR7kf7n-1gCA6ghYXgLx8nqfGBZiAUP1bMLPQqejaA2B-6GdR5LqvcIhUySmcx2VcICTGuAuOZn1Qpk7Ev0brIB2TEOknqJNILX0w6bppVJwJZbaqNY9V5y7FyAwXc1ZmdNuEW2e3P1CI7EniHLGxRMoXowgdlu9S6mLqthlHNwTKoOZnDk7w_XMY1_m9xABlx5seCz_gugcetsx1FvCXkpbpG3GHsolT2AlBQ-ZHjDfcDi8f_-Ds4DbkHE2VcJ6JWytfkoRuEjeAQ562Po02LFpUM9ayll1VI6CB6fl9E6fhqJRjkhnfJKqxuwQorvkssqxfbl19tXa35_dd7-_XtR45SXRP7M0tUHkBNkYfgs1wtmhMiOEkVJT0UUR75hZ_ULx-L0bt20Xo4nCUiZT6GHxVDWKAAI-7ChiA3zaNJTuvzg8CrUQeLHDR1XRcVKYYc7nFcBYR1hJrDG1e5C60-2BxAVMUR_VtP-VXN-A_-9A4yGJz0ie8kBgx3quzZ2eqL4bua4hUOOUOayZuWdo4laiuYyH3xlaNzy_A0VrKDQ2FddQYp04pdkvJYFo0lmAC2z00zLmhFLVsFKtuc7E_c2Vm40]--></g></svg>