<svg xmlns="http://www.w3.org/2000/svg" xmlns:xlink="http://www.w3.org/1999/xlink" contentStyleType="text/css" data-diagram-type="DESCRIPTION" height="365px" preserveAspectRatio="none" style="width:933px;height:365px;background:#FFFFFF;" version="1.1" viewBox="0 0 933 365" width="933px" zoomAndPan="magnify"><defs/><g><!--cluster Lost & Found System--><g class="cluster" data-entity="Lost . Found System" data-source-line="8" data-uid="ent0006" id="cluster_Lost . Found System"><path d="M107.61,62.13 L276.4596,62.13 A3.75,3.75 0 0 1 278.9596,64.63 L285.9596,84.4269 L923.65,84.4269 A2.5,2.5 0 0 1 926.15,86.9269 L926.15,355.63 A2.5,2.5 0 0 1 923.65,358.13 L107.61,358.13 A2.5,2.5 0 0 1 105.11,355.63 L105.11,64.63 A2.5,2.5 0 0 1 107.61,62.13" fill="none" style="stroke:#000000;stroke-width:1.5;"/><line style="stroke:#000000;stroke-width:1.5;" x1="105.11" x2="285.9596" y1="84.4269" y2="84.4269"/><text fill="#000000" font-family="sans-serif" font-size="14" font-weight="bold" lengthAdjust="spacing" textLength="167.8496" x="109.11" y="77.1251">Lost &amp; Found System</text></g><!--entity UC1--><g class="entity" data-entity="UC1" data-source-line="9" data-uid="ent0007" id="entity_UC1"><ellipse cx="252.316" cy="207.1312" fill="#F1F1F1" rx="131.206" ry="28.6412" style="stroke:#181818;stroke-width:0.5;"/><text fill="#000000" font-family="sans-serif" font-size="14" lengthAdjust="spacing" textLength="243.1201" x="130.7559" y="211.7796">Verlustmeldung anonym aufgeben</text></g><!--entity UC2--><g class="entity" data-entity="UC2" data-source-line="10" data-uid="ent0008" id="entity_UC2"><ellipse cx="537.0307" cy="327.1261" fill="#F1F1F1" rx="62.9807" ry="14.9961" style="stroke:#181818;stroke-width:0.5;"/><text fill="#000000" font-family="sans-serif" font-size="14" lengthAdjust="spacing" textLength="88.04" x="493.0107" y="331.7746">Ort angeben</text></g><!--entity UC3--><g class="entity" data-entity="UC3" data-source-line="11" data-uid="ent0009" id="entity_UC3"><ellipse cx="537.0286" cy="262.1317" fill="#F1F1F1" rx="64.9586" ry="15.3917" style="stroke:#181818;stroke-width:0.5;"/><text fill="#000000" font-family="sans-serif" font-size="14" lengthAdjust="spacing" textLength="93.3584" x="490.3494" y="266.7802">Zeit angeben</text></g><!--entity UC4--><g class="entity" data-entity="UC4" data-source-line="12" data-uid="ent0010" id="entity_UC4"><ellipse cx="537.0267" cy="191.1313" fill="#F1F1F1" rx="93.5067" ry="21.1013" style="stroke:#181818;stroke-width:0.5;"/><text fill="#000000" font-family="sans-serif" font-size="14" lengthAdjust="spacing" textLength="161.6357" x="456.2088" y="195.7798">Beschreibung angeben</text></g><!--entity UC5--><g class="entity" data-entity="UC5" data-source-line="13" data-uid="ent0011" id="entity_UC5"><ellipse cx="252.3176" cy="120.1295" fill="#F1F1F1" rx="104.1976" ry="23.2395" style="stroke:#181818;stroke-width:0.5;"/><text fill="#000000" font-family="sans-serif" font-size="14" lengthAdjust="spacing" textLength="185.2676" x="159.6838" y="124.7779">Foto hinzufu&#776;gen (optional)</text></g><!--entity UC6--><g class="entity" data-entity="UC6" data-source-line="14" data-uid="ent0012" id="entity_UC6"><ellipse cx="537.0287" cy="116.1317" fill="#F1F1F1" rx="81.0087" ry="18.6017" style="stroke:#181818;stroke-width:0.5;"/><text fill="#000000" font-family="sans-serif" font-size="14" lengthAdjust="spacing" textLength="133.0479" x="470.5048" y="120.7802">Meldung speichern</text></g><!--entity UC7--><g class="entity" data-entity="UC7" data-source-line="15" data-uid="ent0013" id="entity_UC7"><ellipse cx="800.3443" cy="121.1309" fill="#F1F1F1" rx="109.8043" ry="24.3609" style="stroke:#181818;stroke-width:0.5;"/><text fill="#000000" font-family="sans-serif" font-size="14" lengthAdjust="spacing" textLength="197.4561" x="701.6162" y="125.7793">Meldung auffindbar machen</text></g><!--entity s--><g class="entity" data-entity="s" data-source-line="2" data-uid="ent0002" id="entity_s"><ellipse cx="33.5557" cy="87.48" fill="#F1F1F1" rx="8" ry="8" style="stroke:#181818;stroke-width:0.5;"/><path d="M33.5557,95.48 L33.5557,122.48 M20.5557,103.48 L46.5557,103.48 M33.5557,122.48 L20.5557,137.48 M33.5557,122.48 L46.5557,137.48" fill="none" style="stroke:#181818;stroke-width:0.5;"/><text fill="#000000" font-family="sans-serif" font-size="14" lengthAdjust="spacing" textLength="55.1113" x="6" y="151.9751">Student</text></g><g class="entity" data-entity="GMN3" data-source-line="4" data-uid="ent0004" id="entity_GMN3"><path d="M153.57,6 L153.57,46.2656 L351.0729,46.2656 L351.0729,16 L341.0729,6 L153.57,6" fill="#FEFFDD" style="stroke:#181818;stroke-width:0.5;"/><path d="M341.0729,6 L341.0729,16 L351.0729,16 L341.0729,6" fill="#FEFFDD" style="stroke:#181818;stroke-width:1;"/><text fill="#000000" font-family="sans-serif" font-size="13" lengthAdjust="spacing" textLength="112.6963" x="159.57" y="23.0669">Meldung anonym</text><text fill="#000000" font-family="sans-serif" font-size="13" lengthAdjust="spacing" textLength="176.5029" x="159.57" y="38.1997">(keine perso&#776;nlichen Daten)</text></g><!--link s to GMN3--><g class="link" data-entity-1="s" data-entity-2="GMN3" data-source-line="4" data-uid="lnk5" id="link_s_GMN3"><path d="M61.4,100.27 C72.25,93.82 85.05,86.7 97.11,81.13 C125.37,68.09 157.67,56.14 185.38,46.74" fill="none" id="s-GMN3" style="stroke:#181818;stroke-width:1;stroke-dasharray:7,7;"/></g><!--link s to UC1--><g class="link" data-entity-1="s" data-entity-2="UC1" data-source-line="18" data-uid="lnk14" id="link_s_UC1"><path d="M61.39,138.87 C72.03,146.71 84.69,155.11 97.11,161.13 C117.6,171.06 134.9287,177.5872 156.8687,184.2472" fill="none" id="s-to-UC1" style="stroke:#181818;stroke-width:1;"/><polygon fill="#181818" points="162.61,185.99,155.1599,179.5483,157.8256,184.5377,152.8362,187.2033,162.61,185.99" style="stroke:#181818;stroke-width:1;"/></g><!--link UC1 to UC2--><g class="link" data-entity-1="UC1" data-entity-2="UC2" data-source-line="20" data-uid="lnk15" id="link_UC1_UC2"><path d="M306.8,233.62 C344.57,251.9 396.62,276.22 443.52,295.13 C461.33,302.31 475.7499,307.4866 492.6699,313.1466" fill="none" id="UC1-to-UC2" style="stroke:#181818;stroke-width:1;"/><polygon fill="#181818" points="498.36,315.05,491.0938,308.4015,493.6183,313.4638,488.5559,315.9883,498.36,315.05" style="stroke:#181818;stroke-width:1;"/></g><!--link UC1 to UC3--><g class="link" data-entity-1="UC1" data-entity-2="UC3" data-source-line="21" data-uid="lnk16" id="link_UC1_UC3"><path d="M351.4,226.21 C396.7,235.02 442.6605,243.9638 479.8605,251.2038" fill="none" id="UC1-to-UC3" style="stroke:#181818;stroke-width:1;"/><polygon fill="#181818" points="485.75,252.35,477.6799,246.7043,480.8421,251.3948,476.1516,254.557,485.75,252.35" style="stroke:#181818;stroke-width:1;"/></g><!--link UC1 to UC4--><g class="link" data-entity-1="UC1" data-entity-2="UC4" data-source-line="22" data-uid="lnk17" id="link_UC1_UC4"><path d="M379.79,199.97 C402.14,198.71 418.9995,197.7482 440.0795,196.5582" fill="none" id="UC1-to-UC4" style="stroke:#181818;stroke-width:1;"/><polygon fill="#181818" points="446.07,196.22,436.8589,192.7336,441.0779,196.5018,437.3098,200.7209,446.07,196.22" style="stroke:#181818;stroke-width:1;"/></g><!--link UC1 to UC6--><g class="link" data-entity-1="UC1" data-entity-2="UC6" data-source-line="24" data-uid="lnk18" id="link_UC1_UC6"><path d="M327.6,183.22 C378.48,166.84 438.7386,147.4484 482.6986,133.2984" fill="none" id="UC1-to-UC6" style="stroke:#181818;stroke-width:1;"/><polygon fill="#181818" points="488.41,131.46,478.6173,130.41,483.6505,132.992,481.0685,138.0252,488.41,131.46" style="stroke:#181818;stroke-width:1;"/></g><!--link UC6 to UC7--><g class="link" data-entity-1="UC6" data-entity-2="UC7" data-source-line="25" data-uid="lnk19" id="link_UC6_UC7"><path d="M618.21,117.66 C641.01,118.1 660.2411,118.4635 684.4411,118.9335" fill="none" id="UC6-to-UC7" style="stroke:#181818;stroke-width:1;"/><polygon fill="#181818" points="690.44,119.05,681.5194,114.876,685.4409,118.9529,681.364,122.8745,690.44,119.05" style="stroke:#181818;stroke-width:1;"/></g><!--SRC=[RP2nJiCm48PtFyKf0sg73hGbtHWAwWHYg61WSvoBOpMvY-ppK11x7wuFXLDIoI0Mwp__d-zyVuUDW31uPrk1sdaqufYKDi8UYht46aaAq0628XQSI6vI3V2CNHt9WYQcOvykPWTqX32W3tm-KUTCYmIFMf3c2gc6iOTIWpO7RH6A9mu2Dx3ZcBpzCGZs1NocHZ6WqI4HR-Yx6AJ_DGbqR2nMI9UVlJxSvYzUl2GijvUv_Oxkhx_A_Iq6qtfqrS-ud5ldt8vJRgsZZzZ4yyccDMSyZE7fRZxnTpb_pIeCEARYhqtB_w2qN-EehhI7NeyPJl16VIaLOB6ulsojqZ4LoqolChtEeJBfSjARRm00]--></g></svg>