<svg xmlns="http://www.w3.org/2000/svg" xmlns:xlink="http://www.w3.org/1999/xlink" contentStyleType="text/css" data-diagram-type="DESCRIPTION" height="444px" preserveAspectRatio="none" style="width:2611px;height:444px;background:#FFFFFF;" version="1.1" viewBox="0 0 2611 444" width="2611px" zoomAndPan="magnify"><defs/><g><!--cluster Lost & Found System--><g class="cluster" data-entity="Lost . Found System" data-source-line="9" data-uid="ent0005" id="cluster_Lost . Found System"><rect fill="none" height="336" rx="2.5" ry="2.5" style="stroke:#181818;stroke-width:1;" width="2488.25" x="117.03" y="7"/><text fill="#000000" font-family="sans-serif" font-size="14" font-weight="bold" lengthAdjust="spacing" textLength="167.8496" x="1277.2302" y="21.9951">Lost &amp; Found System</text></g><!--entity UC_Lost--><g class="entity" data-entity="UC_Lost" data-source-line="12" data-uid="ent0006" id="entity_UC_Lost"><ellipse cx="251.9515" cy="64.0023" fill="#F1F1F1" rx="100.2615" ry="22.4523" style="stroke:#181818;stroke-width:0.5;"/><text fill="#000000" font-family="sans-serif" font-size="14" lengthAdjust="spacing" textLength="176.6338" x="163.6346" y="68.6507">Verlustmeldung erstellen</text></g><!--entity UC_Found--><g class="entity" data-entity="UC_Found" data-source-line="13" data-uid="ent0007" id="entity_UC_Found"><ellipse cx="251.9521" cy="142.9984" fill="#F1F1F1" rx="93.5921" ry="21.1184" style="stroke:#181818;stroke-width:0.5;"/><text fill="#000000" font-family="sans-serif" font-size="14" lengthAdjust="spacing" textLength="161.8271" x="171.0385" y="147.6469">Fundmeldung erstellen</text></g><!--entity UC_Info--><g class="entity" data-entity="UC_Info" data-source-line="14" data-uid="ent0008" id="entity_UC_Info"><ellipse cx="742.9071" cy="114.9994" fill="#F1F1F1" rx="162.0471" ry="34.8094" style="stroke:#181818;stroke-width:0.5;"/><text fill="#000000" font-family="sans-serif" font-size="14" lengthAdjust="spacing" textLength="168.4717" x="658.6713" y="103.351">Informationen eingeben</text><text fill="#000000" font-family="sans-serif" font-size="14" lengthAdjust="spacing" textLength="307.4805" x="589.1669" y="119.6479">(Titel, Beschreibung, Raum, Kategorie, Bild)</text></g><!--entity UC_Validate--><g class="entity" data-entity="UC_Validate" data-source-line="15" data-uid="ent0009" id="entity_UC_Validate"><ellipse cx="1235.5962" cy="114.9972" fill="#F1F1F1" rx="83.6362" ry="19.1272" style="stroke:#181818;stroke-width:0.5;"/><text fill="#000000" font-family="sans-serif" font-size="14" lengthAdjust="spacing" textLength="139.1729" x="1166.0098" y="119.6457">Eingaben validieren</text></g><!--entity UC_ShowErrors--><g class="entity" data-entity="UC_ShowErrors" data-source-line="16" data-uid="ent0010" id="entity_UC_ShowErrors"><ellipse cx="1618.7387" cy="163.0017" fill="#F1F1F1" rx="119.5087" ry="26.3017" style="stroke:#181818;stroke-width:0.5;"/><text fill="#000000" font-family="sans-serif" font-size="14" lengthAdjust="spacing" textLength="218.3057" x="1509.5858" y="167.6502">Fehlerhafte Eingaben anzeigen</text></g><!--entity UC_DupCheck--><g class="entity" data-entity="UC_DupCheck" data-source-line="18" data-uid="ent0011" id="entity_UC_DupCheck"><ellipse cx="1618.7406" cy="77.0021" fill="#F1F1F1" rx="113.4606" ry="25.0921" style="stroke:#181818;stroke-width:0.5;"/><text fill="#000000" font-family="sans-serif" font-size="14" lengthAdjust="spacing" textLength="205.3447" x="1516.0682" y="81.6506">Eingabe auf Duplikate pr&#252;fen</text></g><!--entity UC_ShowDup--><g class="entity" data-entity="UC_ShowDup" data-source-line="19" data-uid="ent0012" id="entity_UC_ShowDup"><ellipse cx="2103.2412" cy="165.9982" fill="#F1F1F1" rx="111.9912" ry="24.7982" style="stroke:#181818;stroke-width:0.5;"/><text fill="#000000" font-family="sans-serif" font-size="14" lengthAdjust="spacing" textLength="202.1797" x="2002.1514" y="170.6467">M&#246;gliche Duplikate anzeigen</text></g><!--entity UC_Publish--><g class="entity" data-entity="UC_Publish" data-source-line="20" data-uid="ent0013" id="entity_UC_Publish"><ellipse cx="2493.7635" cy="81.0047" fill="#F1F1F1" rx="95.5235" ry="21.5047" style="stroke:#181818;stroke-width:0.5;"/><text fill="#000000" font-family="sans-serif" font-size="14" lengthAdjust="spacing" textLength="166.1406" x="2410.6932" y="85.6531">Anzeige ver&#246;ffentlichen</text></g><!--entity UC_Discard--><g class="entity" data-entity="UC_Discard" data-source-line="21" data-uid="ent0014" id="entity_UC_Discard"><ellipse cx="2493.7571" cy="165.9994" fill="#F1F1F1" rx="80.1971" ry="18.4394" style="stroke:#181818;stroke-width:0.5;"/><text fill="#000000" font-family="sans-serif" font-size="14" lengthAdjust="spacing" textLength="131.1406" x="2428.1868" y="170.6479">Anzeige verwerfen</text></g><!--entity UC_Pickup--><g class="entity" data-entity="UC_Pickup" data-source-line="23" data-uid="ent0015" id="entity_UC_Pickup"><ellipse cx="251.9465" cy="225.0033" fill="#F1F1F1" rx="118.9165" ry="26.1833" style="stroke:#181818;stroke-width:0.5;"/><text fill="#000000" font-family="sans-serif" font-size="14" lengthAdjust="spacing" textLength="217.041" x="143.426" y="229.6517">Eintrag als abgeholt markieren</text></g><!--entity UC_Delete--><g class="entity" data-entity="UC_Delete" data-source-line="24" data-uid="ent0016" id="entity_UC_Delete"><ellipse cx="742.9054" cy="309.9951" fill="#F1F1F1" rx="70.8754" ry="16.5751" style="stroke:#181818;stroke-width:0.5;"/><text fill="#000000" font-family="sans-serif" font-size="14" lengthAdjust="spacing" textLength="108.5752" x="688.6178" y="314.6435">Eintrag l&#246;schen</text></g><!--entity UC_Search--><g class="entity" data-entity="UC_Search" data-source-line="25" data-uid="ent0017" id="entity_UC_Search"><ellipse cx="251.9485" cy="306.9957" fill="#F1F1F1" rx="89.9785" ry="20.3957" style="stroke:#181818;stroke-width:0.5;"/><text fill="#000000" font-family="sans-serif" font-size="14" lengthAdjust="spacing" textLength="153.6924" x="175.1023" y="311.6441">Eintr&#228;ge durchsuchen</text></g><!--entity user--><g class="entity" data-entity="user" data-source-line="4" data-uid="ent0002" id="entity_user"><ellipse cx="38.0161" cy="165.35" fill="#F1F1F1" rx="8" ry="8" style="stroke:#181818;stroke-width:0.5;"/><path d="M38.0161,173.35 L38.0161,200.35 M25.0161,181.35 L51.0161,181.35 M38.0161,200.35 L25.0161,215.35 M38.0161,200.35 L51.0161,215.35" fill="none" style="stroke:#181818;stroke-width:0.5;"/><text fill="#000000" font-family="sans-serif" font-size="14" lengthAdjust="spacing" textLength="64.0322" x="6" y="229.8451">Nutzer:in</text></g><!--entity server--><g class="entity" data-entity="server" data-source-line="5" data-uid="ent0003" id="entity_server"><ellipse cx="251.9451" cy="371.35" fill="#F1F1F1" rx="8" ry="8" style="stroke:#181818;stroke-width:0.5;"/><path d="M251.9451,379.35 L251.9451,406.35 M238.9451,387.35 L264.9451,387.35 M251.9451,406.35 L238.9451,421.35 M251.9451,406.35 L264.9451,421.35" fill="none" style="stroke:#181818;stroke-width:0.5;"/><text fill="#000000" font-family="sans-serif" font-size="14" lengthAdjust="spacing" textLength="45.9102" x="228.99" y="435.8451">Server</text></g><!--entity log--><g class="entity" data-entity="log" data-source-line="6" data-uid="ent0004" id="entity_log"><ellipse cx="1235.594" cy="367.35" fill="#F1F1F1" rx="8" ry="8" style="stroke:#181818;stroke-width:0.5;"/><path d="M1235.594,375.35 L1235.594,402.35 M1222.594,383.35 L1248.594,383.35 M1235.594,402.35 L1222.594,417.35 M1235.594,402.35 L1248.594,417.35" fill="none" style="stroke:#181818;stroke-width:0.5;"/><text fill="#000000" font-family="sans-serif" font-size="14" lengthAdjust="spacing" textLength="55.7881" x="1207.7" y="431.8451">Logging</text></g><!--link user to UC_Lost--><g class="link" data-entity-1="user" data-entity-2="UC_Lost" data-source-line="30" data-uid="lnk18" id="link_user_UC_Lost"><path d="M60.53,156.59 C72.6,138.24 89.22,117.41 109.03,104 C127.16,91.74 143.2339,84.8237 164.2939,78.9037" fill="none" id="user-to-UC_Lost" style="stroke:#181818;stroke-width:1;"/><polygon fill="#181818" points="170.07,77.28,160.3234,75.8648,165.2566,78.6331,162.4883,83.5663,170.07,77.28" style="stroke:#181818;stroke-width:1;"/></g><!--link user to UC_Found--><g class="link" data-entity-1="user" data-entity-2="UC_Found" data-source-line="31" data-uid="lnk19" id="link_user_UC_Found"><path d="M70.3,186 C79.82,183.34 90.34,180.48 100.03,178 C127.4,171.02 151.8511,165.2179 178.0811,159.2179" fill="none" id="user-to-UC_Found" style="stroke:#181818;stroke-width:1;"/><polygon fill="#181818" points="183.93,157.88,174.2647,155.9876,179.0559,158.9949,176.0486,163.7862,183.93,157.88" style="stroke:#181818;stroke-width:1;"/></g><!--link UC_Lost to UC_Info--><g class="link" data-entity-1="UC_Lost" data-entity-2="UC_Info" data-source-line="33" data-uid="lnk20" id="link_UC_Lost_UC_Info"><path d="M343.49,73.44 C414.44,80.84 508.5723,90.6679 590.6923,99.2279" fill="none" id="UC_Lost-to-UC_Info" style="stroke:#181818;stroke-width:1;"/><polygon fill="#181818" points="596.66,99.85,588.1232,94.9385,591.6869,99.3316,587.2938,102.8954,596.66,99.85" style="stroke:#181818;stroke-width:1;"/></g><!--link UC_Found to UC_Info--><g class="link" data-entity-1="UC_Found" data-entity-2="UC_Info" data-source-line="34" data-uid="lnk21" id="link_UC_Found_UC_Info"><path d="M343.2,137.83 C411.08,133.95 499.7898,128.8626 579.8598,124.2826" fill="none" id="UC_Found-to-UC_Info" style="stroke:#181818;stroke-width:1;"/><polygon fill="#181818" points="585.85,123.94,576.6363,120.4605,580.8582,124.2255,577.0931,128.4474,585.85,123.94" style="stroke:#181818;stroke-width:1;"/></g><!--link UC_Info to UC_Validate--><g class="link" data-entity-1="UC_Info" data-entity-2="UC_Validate" data-source-line="36" data-uid="lnk22" id="link_UC_Info_UC_Validate"><path d="M905.26,115 C987.66,115 1078.44,115 1145.67,115" fill="none" id="UC_Info-to-UC_Validate" style="stroke:#181818;stroke-width:1;"/><polygon fill="#181818" points="1151.67,115,1142.67,111,1146.67,115,1142.67,119,1151.67,115" style="stroke:#181818;stroke-width:1;"/></g><!--link UC_Validate to UC_ShowErrors--><g class="link" data-entity-1="UC_Validate" data-entity-2="UC_ShowErrors" data-source-line="39" data-uid="lnk23" id="link_UC_Validate_UC_ShowErrors"><path d="M1309.63,124.2 C1367.56,131.5 1443.307,141.0304 1508.027,149.1804" fill="none" id="UC_Validate-to-UC_ShowErrors" style="stroke:#181818;stroke-width:1;"/><polygon fill="#181818" points="1513.98,149.93,1505.5503,144.8369,1509.0192,149.3053,1504.5508,152.7742,1513.98,149.93" style="stroke:#181818;stroke-width:1;"/><text fill="#000000" font-family="sans-serif" font-size="13" lengthAdjust="spacing" textLength="118.2061" x="1350.23" y="127.0669">ung&#252;ltige Eingabe</text></g><!--link UC_Validate to UC_DupCheck--><g class="link" data-entity-1="UC_Validate" data-entity-2="UC_DupCheck" data-source-line="40" data-uid="lnk24" id="link_UC_Validate_UC_DupCheck"><path d="M1312.81,107.4 C1370.7,101.63 1444.9696,94.2248 1508.6096,87.8848" fill="none" id="UC_Validate-to-UC_DupCheck" style="stroke:#181818;stroke-width:1;"/><polygon fill="#181818" points="1514.58,87.29,1505.2278,84.2019,1509.6046,87.7857,1506.0209,92.1625,1514.58,87.29" style="stroke:#181818;stroke-width:1;"/><text fill="#000000" font-family="sans-serif" font-size="13" lengthAdjust="spacing" textLength="101.7275" x="1358.73" y="89.0669">g&#252;ltige Eingabe</text></g><!--link UC_DupCheck to UC_Publish--><g class="link" data-entity-1="UC_DupCheck" data-entity-2="UC_Publish" data-source-line="43" data-uid="lnk25" id="link_UC_DupCheck_UC_Publish"><path d="M1732.53,77.52 C1906.19,78.31 2229.9101,79.7922 2391.9901,80.5422" fill="none" id="UC_DupCheck-to-UC_Publish" style="stroke:#181818;stroke-width:1;"/><polygon fill="#181818" points="2397.99,80.57,2389.0086,76.5284,2392.9901,80.5469,2388.9716,84.5283,2397.99,80.57" style="stroke:#181818;stroke-width:1;"/><text fill="#000000" font-family="sans-serif" font-size="13" lengthAdjust="spacing" textLength="167.7495" x="2019.74" y="75.0669">keine Duplikate gefunden</text></g><!--link UC_DupCheck to UC_ShowDup--><g class="link" data-entity-1="UC_DupCheck" data-entity-2="UC_ShowDup" data-source-line="44" data-uid="lnk26" id="link_UC_DupCheck_UC_ShowDup"><path d="M1707.12,93.12 C1794.7,109.27 1922.8096,132.9014 2010.0196,148.9914" fill="none" id="UC_DupCheck-to-UC_ShowDup" style="stroke:#181818;stroke-width:1;"/><polygon fill="#181818" points="2015.92,150.08,2007.7951,144.5135,2011.003,149.1728,2006.3436,152.3807,2015.92,150.08" style="stroke:#181818;stroke-width:1;"/><text fill="#000000" font-family="sans-serif" font-size="13" lengthAdjust="spacing" textLength="191.8516" x="1769.25" y="102.0669">m&#246;gliche Duplikate gefunden</text></g><!--link UC_ShowDup to UC_Discard--><g class="link" data-entity-1="UC_ShowDup" data-entity-2="UC_Discard" data-source-line="46" data-uid="lnk27" id="link_UC_ShowDup_UC_Discard"><path d="M2215.57,166 C2278.69,166 2350.19,166 2407.18,166" fill="none" id="UC_ShowDup-to-UC_Discard" style="stroke:#181818;stroke-width:1;"/><polygon fill="#181818" points="2413.18,166,2404.18,162,2408.18,166,2404.18,170,2413.18,166" style="stroke:#181818;stroke-width:1;"/><text fill="#000000" font-family="sans-serif" font-size="13" lengthAdjust="spacing" textLength="121.7734" x="2246.23" y="162.0669">Anzeige verwerfen</text></g><!--link UC_ShowDup to UC_Publish--><g class="link" data-entity-1="UC_ShowDup" data-entity-2="UC_Publish" data-source-line="47" data-uid="lnk28" id="link_UC_ShowDup_UC_Publish"><path d="M2184.27,148.49 C2254.91,133.04 2350.9387,112.0327 2418.0187,97.3527" fill="none" id="UC_ShowDup-to-UC_Publish" style="stroke:#181818;stroke-width:1;"/><polygon fill="#181818" points="2423.88,96.07,2414.2329,94.0865,2418.9956,97.1389,2415.9432,101.9016,2423.88,96.07" style="stroke:#181818;stroke-width:1;"/><text fill="#000000" font-family="sans-serif" font-size="13" lengthAdjust="spacing" textLength="86.6201" x="2263.73" y="105.0669">Force Publish</text></g><!--link user to UC_Pickup--><g class="link" data-entity-1="user" data-entity-2="UC_Pickup" data-source-line="50" data-uid="lnk29" id="link_user_UC_Pickup"><path d="M70.29,199.43 C91.82,202.48 115.7791,205.8703 145.0691,210.0103" fill="none" id="user-to-UC_Pickup" style="stroke:#181818;stroke-width:1;"/><polygon fill="#181818" points="151.01,210.85,142.6584,205.6298,146.0592,210.1502,141.5388,213.551,151.01,210.85" style="stroke:#181818;stroke-width:1;"/></g><!--link UC_Pickup to UC_Delete--><g class="link" data-entity-1="UC_Pickup" data-entity-2="UC_Delete" data-source-line="51" data-uid="lnk30" id="link_UC_Pickup_UC_Delete"><path d="M346.36,241.24 C446.43,258.64 596.1188,284.6517 679.1888,299.1017" fill="none" id="UC_Pickup-to-UC_Delete" style="stroke:#181818;stroke-width:1;"/><polygon fill="#181818" points="685.1,300.13,676.9187,294.6468,680.174,299.2731,675.5476,302.5284,685.1,300.13" style="stroke:#181818;stroke-width:1;"/></g><!--link UC_Delete to log--><g class="link" data-entity-1="UC_Delete" data-entity-2="log" data-source-line="52" data-uid="lnk31" id="link_UC_Delete_log"><path d="M800.2,319.98 C905.68,338.68 1123.5321,377.313 1201.3421,391.103" fill="none" id="UC_Delete-to-log" style="stroke:#181818;stroke-width:1;"/><polygon fill="#181818" points="1207.25,392.15,1199.0861,386.6408,1202.3267,391.2775,1197.6901,394.5181,1207.25,392.15" style="stroke:#181818;stroke-width:1;"/><text fill="#000000" font-family="sans-serif" font-size="13" lengthAdjust="spacing" textLength="185.688" x="935.96" y="342.0669">L&#246;schvorgang protokollieren</text></g><!--link user to UC_Search--><g class="link" data-entity-1="user" data-entity-2="UC_Search" data-source-line="55" data-uid="lnk32" id="link_user_UC_Search"><path d="M68.06,233.48 C79.55,246.41 93.69,259.86 109.03,269 C129.63,281.27 148.4071,288.2132 171.3071,293.9032" fill="none" id="user-to-UC_Search" style="stroke:#181818;stroke-width:1;"/><polygon fill="#181818" points="177.13,295.35,169.3601,289.2978,172.2775,294.1443,167.431,297.0617,177.13,295.35" style="stroke:#181818;stroke-width:1;"/></g><!--link server to UC_Delete--><g class="link" data-entity-1="server" data-entity-2="UC_Delete" data-source-line="58" data-uid="lnk33" id="link_server_UC_Delete"><path d="M275.23,396.86 C347.81,383.35 573.0412,341.4275 680.3212,321.4675" fill="none" id="server-to-UC_Delete" style="stroke:#181818;stroke-width:1;"/><polygon fill="#181818" points="686.22,320.37,676.6402,318.0837,681.3044,321.2846,678.1035,325.9488,686.22,320.37" style="stroke:#181818;stroke-width:1;"/><text fill="#000000" font-family="sans-serif" font-size="13" lengthAdjust="spacing" textLength="148.7065" x="401.87" y="344.0669">wenn &#228;lter als 14 Tage</text></g><!--SRC=[TLJBJXmn4BpxArfx28a4XqWvSOX4U4XHI8Iom2bIvFNqUAprsgZjOGLH_ePluCHjVYnjpsCzOJbDgxkgkksfjiKwGlH0HZSHAaEeel5EY0CuKT5J439zOF6ZZOz8nyOjG0Pe0z9OMIBT8-LqoE5OkFHQ6wTpnNgTD9SF8U86LhvrbQG7aTf9foqcT8Zm3YvIQS0ju8yG00TmwWbJJr0oOE0Knoc4nIsIRKFSeArQfm69UTPYF-NDwU-aMk8lMFrDSEvTeh-wsjD6fXj11yY7mHMwN-xzjM7c8Np1e1f2isAvG_WfsyqXV9CHjIU3N3Qs-Z2A9wrI-vpL9Al1lRIcCaYxEMvJXcLcWsDZaHfPHuI9AjqZ6hqZBXk_FITAlsrFAv1j3MVjdJLh5eSxwbxg7PSBfmsgTKdytZrhQrI31MrVJwwMj9CU0ko5xhdc7Z6BJ9IhTcLDQDwWR97AiKnGagh_pnD9Qf0sW5nfRBoDi96qdjtYbL7h-LmZptRFePpd32tERpiZkoSUg6f9DQ4juKkKd1FYRtBq3NiUQkktGQIbWAEZpvFloaJlBJ6KncmsnLYT9SKGZCd94znpYDcLG1XQ6uCe42DZPmOu1ZPezs9ZkkB13VieemUOy0hEVRC9LCBpEXibIiQWCFnQ5bZpkfI-qLZp6T7jOmqUOjPcZ-CcfYYWuyIzFPZvoa5xqBlfBZmfXD68VBRUBVbFplxRuA8fcXhtdfcYdEThOUtBRAzxJvgVDbup7_tQMvlDcH_1tZzbbz5IgPYUK5xLwFdXmGgKHUbuWlvjdRVdPbjq3hed6nE9z-7Z9xYM6ly1]--></g></svg>